<svg width="30" height="30" viewBox="0 0 30 30" fill="none" xmlns="http://www.w3.org/2000/svg">
<g clip-path="url(#clip0_1608_500)">
<path d="M15 0C6.71406 0 0 6.71406 0 15C0 23.2859 6.71406 30 15 30C23.2859 30 30 23.2859 30 15C29.9875 6.71406 23.2734 0 15 0ZM15.0656 25.9875C13.9875 25.9875 12.9344 25.8313 11.9484 25.5328C12.1953 25.0125 12.9344 23.4813 13.1031 22.8438C13.2734 22.2203 13.7797 20.1562 13.7797 20.1562C14.4938 20.9484 15.3766 21.4672 16.4281 21.4281C20.4547 21.3109 22.0781 18.0266 22.3375 14.8438C22.5453 12.1687 20.9094 7.77969 15.2344 7.77969C10.0266 7.77969 8.12969 11.4156 7.76562 13.5578C7.36406 15.9344 8.48125 18.6625 10.325 18.7266L10.7016 17.2594C9.92188 16.3375 9.50625 15.2203 9.85781 13.5453C10.1422 12.1562 11.8313 9.45469 15.2984 9.54531C19.3375 9.65 19.9484 13.0391 19.65 15.0391C18.8578 20.2594 15.8828 19.5844 15.7797 19.5578C14.6359 19.3375 14.3891 18.5063 14.4422 17.6891C14.4812 16.8313 15.1953 15.9219 15.4156 14.4156C15.5578 13.4547 15.4422 12.1687 14.1687 12.0266C12.8047 11.8828 12.1687 13.2859 12.0516 13.8188C11.8047 15.0391 11.9484 15.5453 12.2734 16.5453C12.2734 16.5453 11.2344 21 10.8313 22.5188C10.7016 23.0391 10.65 24.35 10.6359 25.0266C6.76562 23.325 4.06562 19.4672 4.06562 14.9609C4.06562 8.89688 8.9875 3.97344 15.0516 3.97344C21.1172 3.97344 26.0391 8.89688 26.0391 14.9609C26.0516 21.0656 21.1297 25.9875 15.0656 25.9875Z" fill="url(#paint0_linear_1608_500)"/>
</g>
<defs>
<linearGradient id="paint0_linear_1608_500" x1="15" y1="0" x2="15" y2="30" gradientUnits="userSpaceOnUse">
<stop stop-color="#CB68A2"/>
<stop offset="1" stop-color="#E9A9D9"/>
</linearGradient>
<clipPath id="clip0_1608_500">
<rect width="30" height="30" fill="white"/>
</clipPath>
</defs>
</svg>
