<svg width="30" height="30" viewBox="0 0 30 30" fill="none" xmlns="http://www.w3.org/2000/svg">
<g clip-path="url(#clip0_1608_502)">
<path d="M15 11.675C13.1687 11.675 11.675 13.1688 11.675 15C11.675 16.8313 13.1687 18.325 15 18.325C16.8312 18.325 18.325 16.8313 18.325 15C18.325 13.1688 16.8312 11.675 15 11.675Z" fill="url(#paint0_linear_1608_502)"/>
<path d="M19.4672 6.84375H10.5328C8.50625 6.84375 6.84375 8.49375 6.84375 10.5328V19.4672C6.84375 21.4937 8.49375 23.1562 10.5328 23.1562H19.4672C21.4937 23.1562 23.1562 21.5063 23.1562 19.4672V10.5328C23.1422 8.49375 21.4937 6.84375 19.4672 6.84375ZM15 20C12.2344 20 9.9875 17.7531 9.9875 14.9875C9.9875 12.2203 12.2344 9.97344 15 9.97344C17.7656 9.97344 20.0125 12.2203 20.0125 14.9875C20 17.7531 17.7531 20 15 20ZM20.3641 10.8188C19.7016 10.8188 19.1562 10.2734 19.1562 9.61094C19.1562 8.94844 19.7016 8.40313 20.3641 8.40313C21.0266 8.40313 21.5719 8.94844 21.5719 9.61094C21.5719 10.2859 21.0391 10.8188 20.3641 10.8188Z" fill="url(#paint1_linear_1608_502)"/>
<path d="M15 0C6.71406 0 0 6.71406 0 15C0 23.2859 6.71406 30 15 30C23.2859 30 30 23.2859 30 15C29.9875 6.71406 23.2734 0 15 0ZM24.8313 19.4672C24.8313 22.4281 22.4156 24.8438 19.4547 24.8438H10.5328C7.57188 24.8438 5.15625 22.4281 5.15625 19.4672V10.5328C5.15625 7.57188 7.57188 5.15625 10.5328 5.15625H19.4672C22.4281 5.15625 24.8438 7.57188 24.8438 10.5328V19.4672H24.8313Z" fill="url(#paint2_linear_1608_502)"/>
</g>
<defs>
<linearGradient id="paint0_linear_1608_502" x1="15" y1="11.675" x2="15" y2="18.325" gradientUnits="userSpaceOnUse">
<stop stop-color="#CB68A2"/>
<stop offset="1" stop-color="#E9A9D9"/>
</linearGradient>
<linearGradient id="paint1_linear_1608_502" x1="15" y1="6.84375" x2="15" y2="23.1562" gradientUnits="userSpaceOnUse">
<stop stop-color="#CB68A2"/>
<stop offset="1" stop-color="#E9A9D9"/>
</linearGradient>
<linearGradient id="paint2_linear_1608_502" x1="15" y1="0" x2="15" y2="30" gradientUnits="userSpaceOnUse">
<stop stop-color="#CB68A2"/>
<stop offset="1" stop-color="#E9A9D9"/>
</linearGradient>
<clipPath id="clip0_1608_502">
<rect width="30" height="30" fill="white"/>
</clipPath>
</defs>
</svg>
