<svg width="30" height="30" viewBox="0 0 30 30" fill="none" xmlns="http://www.w3.org/2000/svg">
<g clip-path="url(#clip0_1608_497)">
<path d="M15 0C6.71406 0 0 6.71406 0 15C0 23.2859 6.71406 30 15 30C23.2859 30 30 23.2859 30 15C29.9875 6.71406 23.2734 0 15 0ZM23.6359 19.1953C23.4672 20.2984 22.5063 21.1031 21.3891 21.1031H8.59688C7.48125 21.1031 6.51875 20.2984 6.35 19.1953C6.19531 18.1688 6.03906 16.7406 6.02656 14.9875C6.03906 13.2344 6.18125 11.8188 6.35 10.7797C6.51875 9.675 7.48125 8.87031 8.59688 8.87031H21.3891C22.5063 8.87031 23.4672 9.675 23.6359 10.7797C23.7922 11.8047 23.9484 13.2344 23.9609 14.9875C23.9484 16.7406 23.7922 18.1688 23.6359 19.1953Z" fill="url(#paint0_linear_1608_497)"/>
<path d="M13.1031 12.5579V17.4282L17.636 15L13.1031 12.5579Z" fill="url(#paint1_linear_1608_497)"/>
</g>
<defs>
<linearGradient id="paint0_linear_1608_497" x1="15" y1="0" x2="15" y2="30" gradientUnits="userSpaceOnUse">
<stop stop-color="#CB68A2"/>
<stop offset="1" stop-color="#E9A9D9"/>
</linearGradient>
<linearGradient id="paint1_linear_1608_497" x1="15.3696" y1="12.5579" x2="15.3696" y2="17.4282" gradientUnits="userSpaceOnUse">
<stop stop-color="#CB68A2"/>
<stop offset="1" stop-color="#E9A9D9"/>
</linearGradient>
<clipPath id="clip0_1608_497">
<rect width="30" height="30" fill="white"/>
</clipPath>
</defs>
</svg>
