<svg width="100" height="100" viewBox="0 0 100 100" fill="none" xmlns="http://www.w3.org/2000/svg">
<g clip-path="url(#clip0_81_14013)">
<path d="M47.3698 50.625C46.7343 49.9792 45.8541 49.5834 44.8802 49.5834C43.9062 49.5834 43.026 49.9792 42.3854 50.625C41.75 51.2657 41.3541 52.1563 41.3541 53.1355C41.3541 54.1146 41.75 55.0052 42.3854 55.6459C43.026 56.2917 43.9062 56.6875 44.8802 56.6875C45.8541 56.6875 46.7343 56.2917 47.3698 55.6459C48.0104 55.0052 48.4062 54.1146 48.4062 53.1355C48.4062 52.1563 48.0104 51.2657 47.3698 50.625Z" fill="url(#paint0_linear_81_14013)"/>
<path d="M44.9115 66.4583C44.2761 65.8125 43.3959 65.4166 42.4219 65.4166C41.448 65.4166 40.5677 65.8125 39.9271 66.4583C39.2917 67.0989 38.8959 67.9843 38.8959 68.9687C38.8959 69.9479 39.2917 70.8385 39.9271 71.4791C40.5677 72.1198 41.448 72.5208 42.4219 72.5208C43.3959 72.5208 44.2761 72.1198 44.9115 71.4791C45.5521 70.8385 45.9427 69.9479 45.9427 68.9687C45.9427 67.9843 45.5521 67.0989 44.9115 66.4583Z" fill="url(#paint1_linear_81_14013)"/>
<path d="M33.3021 59.6407C32.6615 59 31.7813 58.599 30.8073 58.599C29.8334 58.599 28.9532 59 28.3177 59.6407C27.6771 60.2865 27.2865 61.1719 27.2865 62.1511C27.2865 63.1355 27.6771 64.0209 28.3177 64.6667C28.9532 65.3073 29.8334 65.7032 30.8073 65.7032C31.7813 65.7032 32.6615 65.3073 33.3021 64.6667C33.9375 64.0209 34.3334 63.1355 34.3334 62.1511C34.3334 61.1719 33.9375 60.2865 33.3021 59.6407Z" fill="url(#paint2_linear_81_14013)"/>
<path d="M32.0052 46.3542C31.3646 45.7136 30.4844 45.3177 29.5104 45.3177C28.5365 45.3177 27.6563 45.7136 27.0208 46.3542C26.3802 47 25.9844 47.8855 25.9844 48.8698C25.9844 49.849 26.3802 50.7344 27.0208 51.3802C27.6563 52.0209 28.5365 52.4167 29.5104 52.4167C30.4844 52.4167 31.3646 52.0209 32.0052 51.3802C32.6406 50.7344 33.0365 49.849 33.0365 48.8698C33.0365 47.8855 32.6406 47 32.0052 46.3542Z" fill="url(#paint3_linear_81_14013)"/>
<path d="M58.4375 63.7032C57.8021 63.0625 56.9167 62.6615 55.9479 62.6615C54.974 62.6615 54.0885 63.0625 53.4531 63.7032C52.8177 64.3438 52.4219 65.2344 52.4219 66.2136C52.4219 67.1927 52.8177 68.0834 53.4531 68.724C54.0937 69.3698 54.974 69.7657 55.9479 69.7657C56.9167 69.7657 57.8021 69.3698 58.4375 68.724C59.0729 68.0834 59.4688 67.1927 59.4688 66.2136C59.4688 65.2344 59.0729 64.3438 58.4375 63.7032Z" fill="url(#paint4_linear_81_14013)"/>
<path d="M40.2031 35.5573C39.5625 34.9167 38.6823 34.5156 37.7083 34.5156C36.7343 34.5156 35.8541 34.9167 35.2187 35.5573C34.5781 36.1979 34.1823 37.0885 34.1823 38.0677C34.1823 39.0521 34.5781 39.9375 35.2187 40.5781C35.8541 41.224 36.7343 41.6198 37.7083 41.6198C38.6823 41.6198 39.5625 41.224 40.2031 40.5781C40.8385 39.9375 41.2343 39.0521 41.2343 38.0677C41.2343 37.0885 40.8385 36.1979 40.2031 35.5573Z" fill="url(#paint5_linear_81_14013)"/>
<path d="M64.6666 41.0157L69.2291 38.3646L71.2135 41.8282L66.651 44.4844L64.6666 41.0157Z" fill="url(#paint6_linear_81_14013)"/>
<mask id="mask0_81_14013" style="mask-type:luminance" maskUnits="userSpaceOnUse" x="66" y="42" width="17" height="26">
<path d="M66.6666 42.6666H82.5052V68H66.6666V42.6666Z" fill="white"/>
</mask>
<g mask="url(#mask0_81_14013)">
<path d="M71.8125 42.8124C78.4583 53.151 81.6406 60.4114 82.276 64.0885C82.4895 65.3333 82.4375 66.052 82.1458 66.2187C82.1406 66.2187 82.1354 66.2239 82.125 66.2291C81.8281 66.3749 81.1927 66.0572 80.25 65.2656C77.4114 62.8749 72.7604 56.4687 67.1979 45.4999L71.8125 42.8124Z" fill="url(#paint7_linear_81_14013)"/>
</g>
<mask id="mask1_81_14013" style="mask-type:luminance" maskUnits="userSpaceOnUse" x="56" y="20" width="10" height="14">
<path d="M56 20.7291H65.3333V33.3333H56V20.7291Z" fill="white"/>
</mask>
<g mask="url(#mask1_81_14013)">
<path d="M60.1355 32.401L64.0157 30.1406C64.5625 24.5364 58.9532 21.7812 56.0052 20.7291C56.8386 23.0156 56.5209 26.8645 56.4792 27.3333C56.4792 27.3645 56.4792 27.3958 56.474 27.427C55.7709 31.3906 59.2917 32.2552 60.1355 32.401Z" fill="url(#paint8_linear_81_14013)"/>
</g>
<path d="M64.3802 31.2604L60.9896 33.2395L64.1355 39.9948L68.6146 37.3906L64.3802 31.2604Z" fill="url(#paint9_linear_81_14013)"/>
<mask id="mask2_81_14013" style="mask-type:luminance" maskUnits="userSpaceOnUse" x="17" y="28" width="54" height="52">
<path d="M17.5052 28H70.6667V79.7292H17.5052V28Z" fill="white"/>
</mask>
<g mask="url(#mask2_81_14013)">
<path fill-rule="evenodd" clip-rule="evenodd" d="M50.3073 32.375C48.948 30.8802 47.2761 29.7969 45.4323 29.1146C43.5938 28.4375 41.5834 28.1563 39.5261 28.2656C35.5 28.4844 31.2969 30.1979 27.8855 33.349C27.8698 33.3646 27.8542 33.375 27.8438 33.3906C22.6146 38.5052 19.1042 45.1354 18.2761 51.9479C17.5157 58.1875 19 64.5729 23.4584 70.0938C26.8646 74.3073 32.2396 77.026 38.0105 78.3125C44.3438 79.7292 51.1719 79.4219 56.3907 77.4792C58.1042 76.8385 61.0782 75.5625 63.7865 73.5729C65.823 72.0781 67.7084 70.1719 68.7969 67.8333C69.8959 65.4583 70.1823 62.6563 68.9844 59.3958C68.4532 57.9479 67.6303 56.4115 66.448 54.776C64.5417 52.1458 62.2136 51.25 60.0313 50.4115C56.9584 49.2292 54.2188 48.1719 53.875 41.7448C53.6615 37.7135 52.3282 34.599 50.3073 32.375ZM42.4219 64.2604C43.7084 64.2604 44.8803 64.7865 45.724 65.6354C46.5678 66.4896 47.0938 67.6667 47.0938 68.9688C47.0938 70.2656 46.5678 71.4427 45.724 72.2969C44.8803 73.151 43.7084 73.6771 42.4219 73.6771C41.1303 73.6771 39.9636 73.151 39.1146 72.2969C38.2709 71.4427 37.75 70.2656 37.75 68.9688C37.75 67.6667 38.2709 66.4896 39.1146 65.6354C39.9636 64.7865 41.1303 64.2604 42.4219 64.2604ZM49.5521 53.1354C49.5521 54.4375 49.0313 55.6146 48.1823 56.4635C47.3386 57.3177 46.1719 57.8438 44.8803 57.8438C43.5886 57.8438 42.4219 57.3177 41.573 56.4635C40.7292 55.6146 40.2084 54.4375 40.2084 53.1354C40.2084 51.8333 40.7292 50.6563 41.573 49.8073C42.4219 48.9531 43.5886 48.4271 44.8803 48.4271C46.1719 48.4271 47.3386 48.9531 48.1823 49.8073C49.0313 50.6563 49.5521 51.8333 49.5521 53.1354ZM30.8073 57.4427C32.099 57.4427 33.2657 57.9688 34.1146 58.8229C34.9584 59.6771 35.4792 60.8542 35.4792 62.151C35.4792 63.4531 34.9584 64.6302 34.1146 65.4844C33.2657 66.3333 32.099 66.8594 30.8073 66.8594C29.5209 66.8594 28.349 66.3333 27.5053 65.4844C26.6615 64.6302 26.1355 63.4531 26.1355 62.151C26.1355 60.8542 26.6615 59.6771 27.5053 58.8229C28.349 57.9688 29.5209 57.4427 30.8073 57.4427ZM29.5105 44.1563C30.8021 44.1563 31.9688 44.6875 32.8178 45.5365C33.6615 46.3906 34.1823 47.5677 34.1823 48.8698C34.1823 50.1667 33.6615 51.3438 32.8178 52.1979C31.9688 53.0469 30.8021 53.5781 29.5105 53.5781C28.2188 53.5781 27.0521 53.0469 26.2084 52.1979C25.3594 51.3438 24.8386 50.1667 24.8386 48.8698C24.8386 47.5677 25.3594 46.3906 26.2084 45.5365C27.0521 44.6875 28.2188 44.1563 29.5105 44.1563ZM55.948 61.5052C57.2344 61.5052 58.4063 62.0313 59.25 62.8854C60.0938 63.7344 60.6198 64.9115 60.6198 66.2135C60.6198 67.5156 60.0938 68.6927 59.25 69.5417C58.4063 70.3958 57.2344 70.9219 55.948 70.9219C54.6563 70.9219 53.4896 70.3958 52.6407 69.5417C51.7969 68.6927 51.2709 67.5156 51.2709 66.2135C51.2709 64.9115 51.7969 63.7344 52.6407 62.8854C53.4896 62.0313 54.6563 61.5052 55.948 61.5052ZM42.3803 38.0677C42.3803 39.3698 41.8594 40.5469 41.0105 41.401C40.1667 42.25 39 42.776 37.7084 42.776C36.4167 42.776 35.25 42.25 34.4063 41.401C33.5573 40.5469 33.0365 39.3698 33.0365 38.0677C33.0365 36.7708 33.5573 35.5938 34.4063 34.7396C35.25 33.8854 36.4167 33.3594 37.7084 33.3594C39 33.3594 40.1667 33.8854 41.0105 34.7396C41.8594 35.5938 42.3803 36.7708 42.3803 38.0677Z" fill="url(#paint10_linear_81_14013)"/>
</g>
<mask id="mask3_81_14013" style="mask-type:luminance" maskUnits="userSpaceOnUse" x="0" y="0" width="100" height="100">
<path d="M50 0C22.3854 0 0 22.3854 0 50C0 77.6146 22.3854 100 50 100C77.6146 100 100 77.6146 100 50C100 22.3854 77.6146 0 50 0Z" fill="white"/>
</mask>
<g mask="url(#mask3_81_14013)">
<path d="M50 0C22.3854 0 0 22.3854 0 50C0 77.6146 22.3854 100 50 100C77.6146 100 100 77.6146 100 50C100 22.3854 77.6146 0 50 0Z" stroke="url(#paint11_diamond_81_14013)" stroke-width="2"/>
</g>
</g>
<defs>
<linearGradient id="paint0_linear_81_14013" x1="44.8802" y1="49.5834" x2="44.8802" y2="56.6875" gradientUnits="userSpaceOnUse">
<stop stop-color="#CB68A2"/>
<stop offset="1" stop-color="#E9A9D9"/>
</linearGradient>
<linearGradient id="paint1_linear_81_14013" x1="42.4193" y1="65.4166" x2="42.4193" y2="72.5208" gradientUnits="userSpaceOnUse">
<stop stop-color="#CB68A2"/>
<stop offset="1" stop-color="#E9A9D9"/>
</linearGradient>
<linearGradient id="paint2_linear_81_14013" x1="30.8099" y1="58.599" x2="30.8099" y2="65.7032" gradientUnits="userSpaceOnUse">
<stop stop-color="#CB68A2"/>
<stop offset="1" stop-color="#E9A9D9"/>
</linearGradient>
<linearGradient id="paint3_linear_81_14013" x1="29.5104" y1="45.3177" x2="29.5104" y2="52.4167" gradientUnits="userSpaceOnUse">
<stop stop-color="#CB68A2"/>
<stop offset="1" stop-color="#E9A9D9"/>
</linearGradient>
<linearGradient id="paint4_linear_81_14013" x1="55.9453" y1="62.6615" x2="55.9453" y2="69.7657" gradientUnits="userSpaceOnUse">
<stop stop-color="#CB68A2"/>
<stop offset="1" stop-color="#E9A9D9"/>
</linearGradient>
<linearGradient id="paint5_linear_81_14013" x1="37.7083" y1="34.5156" x2="37.7083" y2="41.6198" gradientUnits="userSpaceOnUse">
<stop stop-color="#CB68A2"/>
<stop offset="1" stop-color="#E9A9D9"/>
</linearGradient>
<linearGradient id="paint6_linear_81_14013" x1="67.9401" y1="38.3646" x2="67.9401" y2="44.4844" gradientUnits="userSpaceOnUse">
<stop stop-color="#CB68A2"/>
<stop offset="1" stop-color="#E9A9D9"/>
</linearGradient>
<linearGradient id="paint7_linear_81_14013" x1="74.8151" y1="42.8124" x2="74.8151" y2="66.7187" gradientUnits="userSpaceOnUse">
<stop stop-color="#CB68A2"/>
<stop offset="1" stop-color="#E9A9D9"/>
</linearGradient>
<linearGradient id="paint8_linear_81_14013" x1="60.0291" y1="20.7291" x2="60.0291" y2="32.401" gradientUnits="userSpaceOnUse">
<stop stop-color="#CB68A2"/>
<stop offset="1" stop-color="#E9A9D9"/>
</linearGradient>
<linearGradient id="paint9_linear_81_14013" x1="64.8021" y1="31.2604" x2="64.8021" y2="39.9948" gradientUnits="userSpaceOnUse">
<stop stop-color="#CB68A2"/>
<stop offset="1" stop-color="#E9A9D9"/>
</linearGradient>
<linearGradient id="paint10_linear_81_14013" x1="43.9237" y1="28.2427" x2="43.9237" y2="79.1919" gradientUnits="userSpaceOnUse">
<stop stop-color="#CB68A2"/>
<stop offset="1" stop-color="#E9A9D9"/>
</linearGradient>
<radialGradient id="paint11_diamond_81_14013" cx="0" cy="0" r="1" gradientUnits="userSpaceOnUse" gradientTransform="translate(-9.67741 38.2352) rotate(2.22711) scale(113.527 7701.88)">
<stop offset="0.0455043" stop-color="#9A73C0"/>
<stop offset="1" stop-color="#7B638D"/>
</radialGradient>
<clipPath id="clip0_81_14013">
<rect width="100" height="100" fill="white"/>
</clipPath>
</defs>
</svg>
