<svg width="101" height="100" viewBox="0 0 101 100" fill="none" xmlns="http://www.w3.org/2000/svg">
<g clip-path="url(#clip0_63_12769)">
<path d="M9.71052 98.7065C9.62132 98.595 9.55441 98.4166 9.4652 98.3943C5.56244 97.5023 3.39919 94.8038 2.0834 91.2355C2.0165 91.0794 1.92729 90.9233 1.86039 90.7895C1.48126 89.719 0.834517 88.6709 0.789914 87.5781C0.72301 85.7271 0.700708 83.7645 1.23594 82.025C2.66324 77.2748 5.40633 73.595 10.4688 72.2123C11.8515 71.8332 13.3011 71.3649 14.6838 71.4318C17.2484 71.5656 19.8354 71.9224 21.9987 73.372C29.8042 65.5442 37.5651 57.7833 45.393 49.9331C45.1922 49.6878 44.9246 49.3087 44.6124 48.9965C37.4313 41.7931 30.2279 34.5897 23.0691 27.3863C22.4893 26.8065 22.0433 26.6726 21.2627 27.0518C18.698 28.323 15.9549 28.769 13.1227 28.546C12.5874 28.5014 12.0968 28.1222 11.5838 27.8992C11.45 27.8992 11.2939 27.8992 11.1601 27.8992C9.4429 27.9215 8.08251 26.9403 6.78902 26.0259C3.533 23.7288 1.52586 20.5397 0.834517 16.637C0.410789 14.273 0.589201 11.8198 1.45896 9.52277C2.59634 6.53437 4.46966 4.0589 7.21275 2.34169C9.95584 0.602168 12.8773 -0.200686 16.2226 0.17844C18.8541 0.490661 21.2404 1.24891 23.2921 2.78772C26.7489 5.35239 28.7337 8.78683 29.0013 13.2025C29.1797 16.124 28.6445 18.8225 27.2841 21.2534C35.0896 29.0812 42.8952 36.8867 50.7453 44.7592C50.8122 44.6923 51.0352 44.4916 51.2359 44.2908C58.5285 36.9982 65.7988 29.6833 73.1137 22.3908C73.6044 21.9001 73.872 21.4318 73.6936 20.7404C73.5598 20.5174 73.426 20.2944 73.2921 20.0491C73.2029 19.7592 73.1137 19.4693 73.0245 19.1793C72.9799 19.0232 72.913 18.8894 72.8684 18.7333C71.9095 17.2837 71.9987 15.6557 71.9541 14.0277C71.8648 10.8163 72.9799 8.00627 74.8756 5.5531C76.2582 3.76898 77.864 2.14097 80.1833 1.51653C80.4063 1.38272 80.6293 1.24891 80.8524 1.1151C85.7587 -0.914335 90.442 -0.11148 94.6124 2.85462C97.9353 5.24088 99.8532 8.65302 100.277 12.8903C100.5 15.0759 99.9871 17.083 99.541 19.157C99.3849 19.1793 99.2511 19.2016 99.095 19.2239C99.0281 19.2908 98.9835 19.3354 98.9166 19.4023C98.9166 19.6923 98.9389 20.0045 98.9389 20.2944C98.1583 22.5915 96.4634 24.1972 94.657 25.6245C93.6088 26.4496 92.3376 27.0072 91.1111 27.6316C90.7096 27.8323 90.219 27.7877 89.7507 27.8769C89.5277 27.9438 89.2823 28.033 89.0593 28.0999C87.3421 28.7913 85.6249 28.8136 83.93 28.0999C83.93 28.033 83.9077 27.9884 83.9077 27.9215C83.8408 27.9661 83.7962 28.033 83.7293 28.0776C82.525 28.4791 81.5437 27.7431 80.5178 27.3417C78.8452 26.6726 78.8675 26.6057 77.5963 27.8769C70.5491 34.9465 63.4795 42.0161 56.4322 49.0634C56.1646 49.331 55.8524 49.5094 55.4955 49.777C55.8747 50.1784 56.0754 50.4238 56.3207 50.6468C63.6356 57.984 70.9505 65.2989 78.2654 72.6584C78.8452 73.2382 79.2243 73.1713 79.9826 72.8591C81.4991 72.2569 83.1048 71.8555 84.7105 71.5879C87.2529 71.1419 89.7507 71.6102 92.0477 72.703C95.6829 74.4648 98.4483 77.1187 99.5633 81.1552C99.9425 82.5602 100.411 84.0321 100.411 85.4594C100.411 88.6709 99.541 91.7262 97.467 94.2462C95.8836 96.1865 94.0103 97.8145 91.624 98.7734C86.7846 100.714 82.1905 100.312 77.9755 97.2569C74.1396 94.4916 72.0433 90.7003 71.9541 85.8609C71.9094 83.5638 72.6454 81.4675 73.3591 79.3488C73.426 79.2596 73.4706 79.1927 73.5375 79.1035C73.8943 78.4568 73.6936 78.033 73.1806 77.4978C65.9549 70.2944 58.7516 63.091 51.5705 55.843C50.8568 55.1294 50.4108 55.1071 49.6748 55.843C42.4045 63.1579 35.1343 70.4505 27.8417 77.7431C27.2618 78.323 27.1726 78.6798 27.6409 79.5049C28.2431 80.5977 28.4438 81.9135 28.8006 83.1401C28.8006 83.2962 28.8006 83.4523 28.8006 83.6084C29.4697 85.0803 29.269 86.5968 28.9121 88.091C28.8675 88.2917 28.8452 88.5147 28.8006 88.7155C28.6668 88.8716 28.533 89.0277 28.4215 89.1615C28.1093 90.2097 27.7971 91.2578 27.5071 92.3283C27.2172 92.529 26.9273 92.752 26.6597 92.9527C26.6151 93.1981 26.5482 93.4211 26.5036 93.6664C26.3252 93.8002 26.169 93.934 26.0129 94.0678C25.1878 95.0714 24.4518 96.1642 23.4929 97.0339C22.8238 97.6361 21.8871 97.926 21.062 98.372C20.7721 98.4166 20.4599 98.4835 20.1699 98.5281C19.2779 99.6432 17.9175 99.7324 16.7355 99.7993C14.996 99.9108 13.2119 99.6209 11.45 99.3979C10.8925 99.331 10.3573 98.9296 9.82203 98.6842C9.73282 98.7511 9.71052 98.7065 9.71052 98.7065ZM78.9344 14.2507C78.6445 17.8635 82.5027 21.5879 86.1378 21.4987C89.7507 21.4095 93.3635 18.2427 93.2743 14.2061C93.1851 10.3033 90.2636 7.29262 86.0263 7.18112C83.1048 7.09191 81.1423 8.83143 79.6258 10.9947C79.0236 11.8198 79.1351 13.1579 78.9344 14.2507ZM14.8845 92.7966C18.7649 93.1535 22.244 89.3622 22.0656 85.4371C21.8871 81.6236 19.0995 78.7021 14.8845 78.5237C11.2493 78.3676 7.9041 81.7351 7.77029 85.4817C7.63648 89.3399 11.4277 93.2204 14.8845 92.7966Z" fill="url(#paint0_linear_63_12769)"/>
<path d="M73.4929 79.1704C73.426 79.2596 73.3814 79.3265 73.3145 79.4157C73.3814 79.3265 73.4483 79.2373 73.4929 79.1704Z" fill="white"/>
</g>
<defs>
<linearGradient id="paint0_linear_63_12769" x1="50.5127" y1="-0.00842285" x2="50.5127" y2="99.9578" gradientUnits="userSpaceOnUse">
<stop stop-color="#CB68A2"/>
<stop offset="1" stop-color="#E9A9D9"/>
</linearGradient>
<clipPath id="clip0_63_12769">
<rect width="99.777" height="100" fill="white" transform="translate(0.611511)"/>
</clipPath>
</defs>
</svg>
