<svg width="30" height="30" viewBox="0 0 30 30" fill="none" xmlns="http://www.w3.org/2000/svg">
<g clip-path="url(#clip0_1608_510)">
<path d="M29.9828 14.9915C29.9885 23.2181 23.2811 29.9485 15.1233 30.0001C6.80489 30.046 0.0917235 23.3328 -2.10013e-06 15.1635C-0.0859948 6.87378 6.58704 0.0287562 14.8595 9.19219e-05C23.2639 -0.0285723 29.9771 6.6502 29.9828 14.9915ZM22.4957 10.7263C21.2975 10.6919 20.2828 10.2848 19.4516 9.46503C18.6146 8.63376 18.2018 7.61332 18.1674 6.44381C17.2272 6.44381 16.3157 6.44381 15.387 6.44381C15.387 7.29801 15.387 8.14074 15.387 8.97773C15.387 12.0735 15.3927 15.1692 15.387 18.265C15.3812 19.6064 14.3895 20.6556 13.025 20.7931C11.8211 20.9135 10.6287 20.0135 10.365 18.7866C10.0898 17.5139 10.8351 16.2126 12.1078 15.8572C12.5836 15.7253 13.111 15.7712 13.6327 15.7368C13.6327 14.8883 13.6327 13.9596 13.6327 13.0079C13.134 13.0079 12.6581 12.9678 12.188 13.0137C9.0579 13.3118 6.85649 16.4534 7.62469 19.4918C8.3069 22.192 10.8007 23.8602 13.6327 23.499C16.2182 23.1665 18.1903 20.8734 18.1903 18.1904C18.1903 16.2241 18.1846 14.252 18.1846 12.2856C18.1846 12.2168 18.1961 12.148 18.2075 12.0563C19.5032 12.9965 20.9077 13.4952 22.4957 13.4952C22.4957 12.555 22.4957 11.6492 22.4957 10.7263Z" fill="url(#paint0_linear_1608_510)"/>
</g>
<defs>
<linearGradient id="paint0_linear_1608_510" x1="14.991" y1="0" x2="14.991" y2="30.0003" gradientUnits="userSpaceOnUse">
<stop stop-color="#CB68A2"/>
<stop offset="1" stop-color="#E9A9D9"/>
</linearGradient>
<clipPath id="clip0_1608_510">
<rect width="29.9828" height="30" fill="white"/>
</clipPath>
</defs>
</svg>
