<svg width="30" height="30" viewBox="0 0 30 30" fill="none" xmlns="http://www.w3.org/2000/svg">
<g clip-path="url(#clip0_1608_508)">
<path d="M15 0C6.71406 0 0 6.71406 0 15C0 23.2859 6.71406 30 15 30C23.2859 30 30 23.2859 30 15C29.9875 6.71406 23.2734 0 15 0ZM23.7531 11.6234C23.7531 11.6234 24.0125 17.3641 19.65 20.9219C13.1172 26.2344 6.06562 21.9219 6.06562 21.9219C6.06562 21.9219 7.77969 21.9484 9.29844 21.5453C10.8047 21.1422 11.8969 20.1562 11.8969 20.1562C11.8969 20.1562 10.2469 19.8188 9.38906 19.1953C8.53281 18.5719 8.19531 17.3766 8.19531 17.3766C8.19531 17.3766 8.76562 17.4281 9.11719 17.4156C9.48125 17.4031 9.90938 17.2344 9.90938 17.2344C9.90938 17.2344 8.72656 17.0906 7.62344 15.8578C6.75312 14.8828 6.81875 13.2594 6.81875 13.2594C6.81875 13.2594 7.3375 13.5719 7.61094 13.6359C7.88281 13.7141 8.41563 13.7141 8.41563 13.7141C8.41563 13.7141 7.37656 13.1031 6.92188 11.5063C6.46719 9.92188 7.3375 8.31094 7.3375 8.31094C7.3375 8.31094 8.88281 10.1813 11.1687 11.3766C13.4547 12.5719 15.6109 12.5328 15.6109 12.5328C15.6109 12.5328 15.2984 11.5844 15.8438 10.1813C16.3891 8.77969 17.6234 7.76562 19.5063 7.62344C21.3891 7.46719 22.5969 8.89688 22.5969 8.89688C22.5969 8.89688 23.1812 8.79219 23.8438 8.54531C24.5063 8.31094 25.1688 8 25.1688 8C25.1688 8 24.9344 8.71406 24.4813 9.27344C24.0266 9.83125 23.5188 10.1687 23.5188 10.1687C23.5188 10.1687 24.1172 10.1297 24.7141 9.96094C25.3109 9.79219 25.6359 9.62344 25.6359 9.62344C24.9484 10.7656 23.7531 11.6234 23.7531 11.6234Z" fill="url(#paint0_linear_1608_508)"/>
</g>
<defs>
<linearGradient id="paint0_linear_1608_508" x1="15" y1="0" x2="15" y2="30" gradientUnits="userSpaceOnUse">
<stop stop-color="#CB68A2"/>
<stop offset="1" stop-color="#E9A9D9"/>
</linearGradient>
<clipPath id="clip0_1608_508">
<rect width="30" height="30" fill="white"/>
</clipPath>
</defs>
</svg>
