<svg width="87" height="102" viewBox="0 0 87 102" fill="none" xmlns="http://www.w3.org/2000/svg">
<path d="M27.3839 28.3432C27.2491 28.6129 27.1142 28.8826 26.9456 29.1187C26.8108 29.3209 26.7096 29.4895 26.5748 29.6918C26.0353 30.5347 25.4959 31.4113 24.9902 32.2542C24.8553 32.2205 24.7204 32.2205 24.6193 32.1868C24.3496 30.7707 24.0124 29.3884 23.8101 27.9723C23.709 27.3317 23.5067 27.1294 22.8998 27.3992C22.3266 27.6352 21.7198 27.77 21.1129 27.9386C20.9106 28.006 20.7083 28.0735 20.5397 28.1409C19.6631 28.4781 18.7865 28.7815 17.9099 29.1187C17.8425 29.0849 17.8088 29.0175 17.7413 28.9838C18.0111 28.5118 18.3145 28.0735 18.5505 27.6015C18.9551 26.8597 19.3597 26.0843 19.7643 25.3088C19.9328 25.2077 20.1351 25.1065 20.3037 25.0054C20.3711 24.7356 20.4386 24.4659 20.506 24.1962C20.7083 23.0499 21.6186 22.2744 22.1243 21.263C22.2929 20.9932 22.4952 20.7235 22.6638 20.4538C22.6638 20.3526 22.6975 20.2852 22.6975 20.1841C22.8661 20.0829 23.0684 19.9818 23.2369 19.8806C23.3044 19.6109 23.3718 19.3412 23.4392 19.0714C23.9787 18.0937 24.5181 17.116 25.0576 16.1719C25.2262 15.9022 25.4285 15.6325 25.597 15.3628C25.6645 15.1605 25.7656 14.9919 25.833 14.7896C25.9342 14.6547 26.069 14.5199 26.1702 14.385C26.5748 13.6095 26.9456 12.8341 27.3502 12.0586C27.3502 12.0249 27.3502 11.9575 27.3502 11.9238C27.4851 11.7552 27.62 11.5866 27.7885 11.3843C27.9571 11.2832 28.1594 11.182 28.328 11.0809C28.3954 10.8112 28.4628 10.5414 28.5303 10.2717C29.3732 9.02425 30.216 7.81049 31.0589 6.56302C31.1938 6.42816 31.3287 6.2933 31.4635 6.15844C32.711 5.18069 33.9247 4.20294 35.1722 3.22519C35.8465 3.69721 36.1162 3.36005 36.15 2.68575C37.7346 2.1463 39.3529 1.60685 40.9376 1.0674C41.0387 1.03369 41.1398 0.932543 41.2073 0.865112C42.6233 0.865112 44.0731 0.865112 45.4891 0.865112C46.0623 1.03369 46.6692 1.23598 47.2423 1.40456C48.8944 2.07887 50.6476 2.5846 52.1985 3.42749C54.8283 4.80982 56.5815 7.10247 58.1324 9.52998C58.6044 10.238 59.0765 10.946 59.5485 11.6541C59.5822 11.7552 59.6496 11.8901 59.6833 11.9912C59.8856 12.3958 60.1216 12.8004 60.3239 13.205C60.3576 13.2387 60.4251 13.3061 60.4588 13.3398C60.7959 14.0141 61.0657 14.6884 61.4703 15.3628C61.74 15.8348 62.1446 16.2731 62.4817 16.7114C62.5154 16.8125 62.5829 16.9474 62.6166 17.0485C62.8189 17.4531 63.0549 17.8577 63.2572 18.2623C63.2909 18.296 63.3583 18.3634 63.392 18.3971C63.628 18.9029 63.7966 19.4423 64.1001 19.8806C64.2012 20.0155 64.6732 19.9143 64.9767 19.9481C65.1115 19.7795 65.2801 19.6109 65.415 19.4086C65.4824 19.4086 65.5498 19.4086 65.6173 19.4086C65.6173 19.476 65.651 19.5435 65.651 19.5772C65.651 19.5097 65.6847 19.4423 65.6847 19.4086C66.0218 19.2737 66.359 19.1052 66.6962 18.9703C66.831 18.8017 66.9996 18.6331 67.1345 18.4309C67.2019 18.4309 67.2693 18.4309 67.3705 18.4309C67.3705 18.4983 67.4042 18.5657 67.4042 18.5994C67.4042 18.532 67.4379 18.4646 67.4379 18.4309C67.8762 18.2286 68.3145 18.0263 68.6516 17.8914C68.6516 18.6669 68.6516 19.5098 68.6516 20.3526C68.5842 20.4875 68.5505 20.6224 68.4831 20.7572C68.2808 22.207 68.1122 23.623 67.8762 25.0728C67.7413 25.9157 67.4716 26.7249 67.303 27.534C66.9996 29.1186 66.7636 30.7033 66.4939 32.2879C66.3253 32.4228 66.123 32.5239 65.9544 32.6588C64.2686 31.9507 62.5492 31.209 60.8634 30.501C60.7959 30.4673 60.7285 30.3998 60.6274 30.3661C59.245 29.8267 57.829 29.2872 56.4467 28.7478C56.0084 28.5792 55.6038 28.3432 55.1655 28.1409C55.098 28.1072 55.0306 28.0398 54.9295 28.006C54.3226 27.6689 53.7494 27.3317 53.1425 27.0283C53.1425 26.8934 53.1425 26.7586 53.1763 26.6237C54.0866 26.0843 54.9969 25.5785 55.9072 25.0391C56.0421 24.9717 56.1769 24.9042 56.2781 24.8368C56.5141 24.6345 56.7501 24.4659 57.0535 24.1962C55.7049 21.7687 54.3226 19.3075 52.9403 16.8462C52.8728 16.7114 52.8054 16.5765 52.738 16.4754C51.9288 15.2279 51.187 13.913 50.2767 12.6992C49.6024 11.7889 48.6921 11.0472 47.8829 10.238C47.6469 9.93457 47.3772 9.59741 47.1412 9.29397C47.0063 9.42883 46.8715 9.52998 46.7366 9.66484C44.6125 8.82196 42.4885 8.88939 40.3307 9.46255C40.1284 9.52998 39.9261 9.59741 39.7238 9.66484C39.3866 9.90085 39.0832 10.1031 38.746 10.3392C37.7683 10.9797 36.9591 11.7552 36.386 12.8341C35.7791 13.9804 34.9025 14.9919 34.2619 16.1382C32.475 19.2063 30.7218 22.3081 28.9686 25.41C28.5303 26.1854 28.0583 26.9271 27.62 27.6689C27.62 27.9723 27.5188 28.1746 27.3839 28.3432Z" fill="url(#paint0_linear_63_12857)"/>
<path d="M53.0752 85.356C53.0415 85.3223 52.974 85.2549 52.9403 85.2212C52.8055 85.1538 52.6706 85.0863 52.502 85.0189C49.7711 82.8611 47.0401 80.7033 44.3092 78.5455C44.2417 78.5118 44.1743 78.4444 44.1069 78.4107C43.1966 77.6689 42.2862 76.9609 41.2748 76.1517C45.1521 73.0836 48.9619 70.083 52.7717 67.0823C52.9403 67.0823 53.1089 67.0823 53.2775 67.0823C53.3112 68.7006 53.3112 70.319 53.3449 71.971C53.4123 72.0384 53.4798 72.0722 53.5135 72.1396C59.2114 72.1396 64.9093 72.3419 70.6072 72.1396C74.4171 72.0047 77.856 68.768 78.3955 64.8571C78.7326 62.3284 77.9572 60.238 76.7434 58.1814C75.6982 56.4282 74.6868 54.6413 73.6416 52.8544C73.5742 52.7869 73.5405 52.7195 73.473 52.6521C71.7198 49.584 69.9666 46.5159 68.2134 43.4478C67.1682 41.6271 66.0893 39.7728 64.9093 37.7161C67.0334 38.4242 68.9889 39.0647 70.9444 39.7053C71.2141 37.8847 71.4838 36.2326 71.7198 34.5469C72.5964 34.884 73.3045 35.8618 75.1251 39.2333C76.0354 40.9191 76.9794 42.6049 77.9235 44.2906C78.9012 45.9764 79.879 47.6622 80.8904 49.348C80.9579 49.4154 80.9916 49.4828 81.059 49.5502C82.8122 52.7532 84.97 55.7539 86.0489 59.294C86.7232 61.5192 86.5883 63.7444 86.386 65.936C86.0152 70.0155 83.9585 73.3196 80.9916 76.0169C78.7326 78.0735 76.1028 79.557 73.0347 79.9953C72.8999 80.0627 72.765 80.0964 72.6301 80.1639C66.5614 80.1976 60.4926 80.1976 54.4238 80.2313C54.0866 80.2313 53.7158 80.2313 53.2438 80.2313C53.2438 81.9508 53.2438 83.6028 53.2438 85.2212C53.2438 85.2212 53.1763 85.2886 53.0752 85.356Z" fill="url(#paint1_linear_63_12857)"/>
<path d="M34.5654 76.2529C35.7454 77.4666 36.9255 78.7141 38.1055 79.9279C38.1055 79.9953 38.0718 80.0627 38.0718 80.1301C30.351 80.1301 22.6638 80.265 14.9767 80.029C12.2795 79.9616 9.64968 78.8827 7.42447 77.1295C7.2896 77.0958 7.15474 77.0283 7.01988 76.9946C6.24443 76.2529 5.43526 75.5448 4.72723 74.7357C3.3449 73.1173 2.16486 71.3641 1.45683 69.3075C0.546516 66.7451 0.209362 64.149 0.546517 61.4181C0.917386 58.3837 2.23229 55.7876 3.74948 53.1915C5.90727 49.5165 8.03134 45.8078 10.1554 42.0654C8.8068 41.2562 7.4919 40.4471 5.94099 39.503C6.31186 39.2333 6.58158 38.9973 6.88502 38.8624C9.51482 37.7836 12.1783 36.7047 14.8081 35.6595C16.3591 35.0526 17.91 34.4794 19.5957 33.8726C19.7643 34.7154 19.9329 35.6258 20.1352 36.5361C20.4049 37.8847 20.6746 39.2333 20.8769 40.6156C20.9781 41.29 20.8432 41.9643 20.9106 42.6386C21.0792 44.0883 21.2815 45.5044 21.4838 46.9204C21.5175 47.1564 21.6861 47.3925 21.7198 47.6285C21.7535 47.9319 21.7198 48.2016 21.7198 48.5051C21.4164 48.4713 21.0792 48.5388 20.8432 48.4376C19.5957 47.7296 18.4157 46.9879 17.1008 46.2124C16.2579 47.6622 15.4487 49.0782 14.6396 50.4943C13.1898 53.0229 11.7063 55.5179 10.2903 58.0465C9.44739 59.5637 8.46964 61.1483 8.43593 62.9353C8.40221 64.7222 8.67194 66.4417 9.88569 67.9926C10.7286 69.1052 11.504 70.2178 12.7515 70.9595C14.235 71.8699 15.887 72.1059 17.5728 72.1059C24.1136 72.1059 30.6544 72.1059 37.1952 72.1059C37.4986 72.1059 37.8358 72.1059 38.3752 72.1059C37.1952 73.2185 36.15 74.1962 35.1386 75.174C34.9025 75.41 34.734 75.7134 34.5654 76.0169C34.5317 76.0506 34.4642 76.0843 34.4305 76.0843C34.4642 76.1517 34.5317 76.1854 34.5654 76.2529Z" fill="url(#paint2_linear_63_12857)"/>
<path d="M39.8587 52.3486C40.6678 53.1915 40.8701 54.6076 42.1513 54.9447C44.5788 55.5853 47.3435 54.5401 47.0738 51.472C47.0401 50.9326 47.1412 50.3594 46.9726 49.8537C46.4669 48.3702 45.7252 47.8982 44.1405 47.8982C43.0954 47.8982 42.0839 47.8982 41.005 47.8982C41.005 46.1113 41.005 44.4255 41.005 42.6386C41.9153 42.6386 42.8594 42.6386 43.7697 42.6386C45.5903 42.6386 46.5343 41.6946 46.9052 39.8739C47.1412 38.6602 46.9726 37.615 46.1297 36.8058C44.9497 35.6595 43.4325 35.6595 41.949 36.1315C40.4318 36.6035 40.1621 37.9184 39.9598 39.3345C38.0043 39.3345 36.0151 39.3345 33.9922 39.3345C34.1945 38.1207 34.3631 36.9744 34.5654 35.7944C34.6328 35.6595 34.7002 35.5246 34.7676 35.3898C35.0374 34.7492 35.3408 34.0749 35.6105 33.4343C35.678 33.4006 35.7117 33.3331 35.7791 33.2994C36.1163 33.0971 36.4871 32.8948 36.7906 32.6588C38.1055 31.7485 39.5215 31.2091 41.0724 30.9056C43.8371 30.3662 46.5343 30.6696 49.0293 31.9171C51.2545 33.0297 52.502 34.9178 52.7717 37.4801C52.974 39.5368 52.7717 41.4585 51.5579 43.1443C51.0522 43.8523 50.3779 44.4592 49.7036 45.201C50.3442 45.8416 51.2208 46.5159 51.8614 47.3588C53.0414 48.9434 53.3449 50.8314 52.9403 52.7532C52.7043 53.7984 52.5694 54.911 52.0974 55.8213C50.6813 58.4849 48.2875 59.8672 45.3543 60.2043C44.1743 60.3392 42.9268 60.4066 41.7467 60.2381C40.1621 60.002 38.5775 59.5975 37.1277 58.822C37.094 58.7883 37.0266 58.7209 36.9929 58.6871C36.4534 57.9117 35.8803 57.1362 35.3408 56.3271C35.2734 56.2259 35.2397 56.0911 35.1722 55.9899C34.9699 55.6865 34.7002 55.4167 34.5991 55.0796C34.2956 54.1693 33.7225 53.259 34.2282 52.2475C34.2956 52.1801 34.3631 52.1126 34.3968 52.0452C36.0151 52.0452 37.6672 52.0452 39.2855 52.0452C39.4878 52.1126 39.6564 52.2475 39.8587 52.3486Z" fill="url(#paint3_linear_63_12857)"/>
<path d="M59.6497 91.6945C59.5822 91.2562 59.5823 90.7505 59.4474 90.2447C58.9079 88.4915 56.5479 87.8846 55.3004 89.267C54.8958 89.7053 54.6598 90.4133 54.5587 91.0539C54.2215 92.8745 54.1541 94.7626 54.7272 96.5495C55.233 98.2353 56.885 98.9096 58.5034 98.1679C59.4474 97.7296 59.616 96.9541 59.6497 95.9764C60.2566 95.9764 60.8297 95.9764 61.4029 95.9764C61.9423 95.9764 62.4818 95.9764 63.0212 95.9764C63.4932 98.1679 61.74 100.764 59.2114 100.899C57.3907 101 55.5701 101.27 53.8843 100.461C52.4683 99.7862 51.4231 98.7747 51.2208 97.1227C50.9848 95.1672 50.7151 93.178 50.7151 91.2225C50.7151 90.3122 51.2883 89.4018 51.7266 88.5252C52.6369 86.772 54.2215 86.0303 56.177 85.9966C57.2896 85.9966 58.4359 86.0303 59.5485 86.1989C61.0657 86.4012 62.0435 87.3115 62.8526 88.6601C63.4595 89.6716 63.0549 90.6156 63.1561 91.6945C61.9423 91.6945 60.8297 91.6945 59.6497 91.6945Z" fill="url(#paint4_linear_63_12857)"/>
<path d="M27.7886 95.7741C27.7886 97.1565 27.7212 98.5051 27.7886 99.8874C27.8223 100.697 27.5189 100.933 26.7771 100.865C26.0017 100.798 25.2262 100.865 24.3496 100.865C24.3496 95.9764 24.3496 91.0877 24.3496 86.1315C27.5189 86.3001 30.7218 85.6595 33.7562 87.0081C33.8236 87.0755 33.9248 87.1093 33.9922 87.1767C35.1386 88.0196 35.442 89.1996 35.6106 90.582C35.7791 92.2677 35.3071 93.6501 33.9585 94.5604C33.1156 95.1335 32.003 95.4033 30.9578 95.5718C29.9801 95.7404 28.9349 95.6393 27.9572 95.6393C27.8897 95.6393 27.856 95.7067 27.7886 95.7741ZM27.7886 88.9299C27.7886 90.2785 27.7886 91.526 27.7886 92.8409C28.6652 92.8409 29.5081 92.8746 30.351 92.8409C31.4636 92.8072 32.1042 91.9306 32.0367 90.5145C32.003 89.4693 31.3961 88.9299 30.2835 88.9299C29.5081 88.9299 28.6989 88.9299 27.7886 88.9299Z" fill="url(#paint5_linear_63_12857)"/>
<path d="M45.3206 100.798C43.8371 100.798 42.32 100.798 40.8365 100.798C40.769 100.73 40.7353 100.696 40.6679 100.629C40.0947 98.7073 39.4879 96.8192 38.9147 94.8974C38.0718 92.0316 37.2964 89.1658 36.4872 86.3C37.7009 86.1989 38.881 86.0977 40.061 86.0303C40.1284 86.0303 40.297 86.2663 40.3307 86.4011C41.0388 89.267 41.7131 92.1665 42.4211 95.0323C42.4885 95.2683 42.6908 95.6392 42.792 95.6392C43.0617 95.6392 43.5 95.4706 43.5337 95.2683C44.2754 92.4699 44.9835 89.6378 45.7252 86.8394C45.7926 86.5697 46.1635 86.2326 46.4332 86.2326C47.4784 86.1651 48.5236 86.1989 49.6362 86.1989C48.2202 91.0539 46.8378 95.8752 45.4555 100.663C45.4218 100.696 45.3881 100.764 45.3206 100.798ZM43.264 96.2123C43.3314 96.2461 43.3988 96.2798 43.4326 96.2798C43.4663 96.2798 43.5 96.1786 43.5 96.1112C43.4326 96.0775 43.3651 96.0438 43.3314 96.0438C43.2977 96.0775 43.264 96.1449 43.264 96.2123Z" fill="url(#paint6_linear_63_12857)"/>
<path d="M46.8716 9.7997C47.0064 9.66484 47.1413 9.56369 47.2762 9.42883C47.5122 9.73227 47.7819 10.0694 48.0179 10.3729C47.6808 10.2043 47.2762 10.002 46.8716 9.7997Z" fill="url(#paint7_linear_63_12857)"/>
<path d="M36.15 2.78687C36.0826 3.46117 35.8465 3.76461 35.1722 3.32631C35.4757 3.15774 35.8128 2.95544 36.15 2.78687Z" fill="url(#paint8_linear_63_12857)"/>
<path d="M25.5971 15.4302C25.4285 15.6999 25.2262 15.9696 25.0576 16.2394C24.9565 15.8011 24.9228 15.3965 25.5971 15.4302Z" fill="url(#paint9_linear_63_12857)"/>
<path d="M28.5304 10.3729C28.4629 10.6426 28.3955 10.9123 28.3281 11.182C28.1932 11.182 28.0921 11.182 27.9572 11.182C27.8898 10.71 27.856 10.3054 28.5304 10.3729Z" fill="url(#paint10_linear_63_12857)"/>
<path d="M22.6639 20.5212C22.4953 20.7909 22.293 21.0606 22.1244 21.3304C22.0233 20.8921 21.9895 20.4538 22.6639 20.5212Z" fill="url(#paint11_linear_63_12857)"/>
<path d="M20.5061 24.2299C20.4387 24.4996 20.3713 24.7693 20.3038 25.039C20.2027 25.039 20.0678 25.039 19.9667 25.039C19.8992 24.6007 19.8655 24.1962 20.5061 24.2299Z" fill="url(#paint12_linear_63_12857)"/>
<path d="M23.4393 19.1726C23.3718 19.4423 23.3044 19.7121 23.237 19.9818C23.1021 19.9818 23.001 19.9818 22.8661 19.9818C23.0684 19.6783 23.2707 19.4086 23.4393 19.1726Z" fill="url(#paint13_linear_63_12857)"/>
<path d="M39.8587 52.3486C39.6564 52.2138 39.4541 52.1126 39.2518 51.9778C39.7576 51.7418 39.7913 51.7418 39.8587 52.3486Z" fill="url(#paint14_linear_63_12857)"/>
<path d="M34.7677 35.3898C34.7003 35.5246 34.6329 35.6595 34.5654 35.7944C34.498 35.6932 34.4643 35.6258 34.3969 35.5246C34.5317 35.4909 34.6329 35.4235 34.7677 35.3898Z" fill="url(#paint15_linear_63_12857)"/>
<path d="M20.5398 28.1746C20.7421 28.1072 20.9444 28.0397 21.113 27.9723C20.9107 28.0397 20.7084 28.1072 20.5398 28.1746Z" fill="url(#paint16_linear_63_12857)"/>
<path d="M26.1703 14.4524C26.0692 14.5873 25.9343 14.7221 25.8332 14.857C25.7994 14.621 25.6309 14.2164 26.1703 14.4524Z" fill="url(#paint17_linear_63_12857)"/>
<path d="M19.9666 25.0391C20.0677 25.0391 20.2026 25.0391 20.3037 25.0391C20.1352 25.1402 19.9329 25.2414 19.7643 25.3425C19.8317 25.2414 19.8991 25.1402 19.9666 25.0391Z" fill="url(#paint18_linear_63_12857)"/>
<path d="M68.5843 20.9258C68.6517 20.791 68.6854 20.6561 68.7529 20.5212C68.6854 20.6561 68.618 20.791 68.5843 20.9258Z" fill="url(#paint19_linear_63_12857)"/>
<path d="M22.8999 19.948C23.0348 19.948 23.1359 19.948 23.2708 19.948C23.1022 20.0491 22.8999 20.1503 22.7313 20.2514C22.765 20.1503 22.8325 20.0491 22.8999 19.948Z" fill="url(#paint20_linear_63_12857)"/>
<path d="M38.1055 80.1301C38.1055 80.0627 38.1392 79.9953 38.1392 79.9279C38.2066 80.029 38.3078 80.1301 38.3752 80.2313C38.274 80.1976 38.2066 80.1639 38.1055 80.1301Z" fill="url(#paint21_linear_63_12857)"/>
<path d="M72.6976 80.0964C72.8324 80.029 72.9673 79.9953 73.1022 79.9279C72.9336 79.9953 72.7987 80.029 72.6976 80.0964Z" fill="url(#paint22_linear_63_12857)"/>
<path d="M34.3968 51.9778C34.3294 52.0452 34.2619 52.1126 34.2282 52.18C34.1945 52.0789 34.1608 51.944 34.1271 51.8429C34.1945 51.9103 34.2957 51.944 34.3968 51.9778Z" fill="url(#paint23_linear_63_12857)"/>
<path d="M27.9908 11.1483C28.1257 11.1483 28.2269 11.1483 28.3617 11.1483C28.1931 11.2495 27.9908 11.3506 27.8223 11.4518C27.856 11.3506 27.9234 11.2495 27.9908 11.1483Z" fill="url(#paint24_linear_63_12857)"/>
<path d="M62.6841 17.2172C62.6503 17.116 62.5829 16.9812 62.5492 16.88C62.5829 16.9812 62.6166 17.116 62.6841 17.2172Z" fill="url(#paint25_linear_63_12857)"/>
<path d="M59.7508 12.1261C59.7171 12.0249 59.6497 11.8901 59.616 11.7889C59.6497 11.8901 59.6834 12.0249 59.7508 12.1261Z" fill="url(#paint26_linear_63_12857)"/>
<path d="M7.0199 76.9946C7.15476 77.0283 7.28962 77.0958 7.42448 77.1295C7.28962 77.0958 7.15476 77.0621 7.0199 76.9946Z" fill="url(#paint27_linear_63_12857)"/>
<path d="M65.7859 19.6108C65.7859 19.6783 65.7522 19.7457 65.7522 19.7794C65.7522 19.712 65.7185 19.6446 65.7185 19.6108C65.6848 19.6108 65.7859 19.6108 65.7859 19.6108Z" fill="url(#paint28_linear_63_12857)"/>
<path d="M53.5472 72.0721C53.4797 72.0047 53.4123 71.971 53.3786 71.9036C53.4123 71.971 53.4797 72.0384 53.5472 72.0721Z" fill="url(#paint29_linear_63_12857)"/>
<path d="M36.9929 58.6533C37.0266 58.687 37.0941 58.7545 37.1278 58.7882C37.0604 58.7545 37.0266 58.687 36.9929 58.6533Z" fill="url(#paint30_linear_63_12857)"/>
<path d="M45.3207 100.798C45.3881 100.73 45.4218 100.697 45.4893 100.629C45.4218 100.697 45.3881 100.764 45.3207 100.798Z" fill="url(#paint31_linear_63_12857)"/>
<path d="M73.5067 52.5846C73.5741 52.652 73.6079 52.7195 73.6753 52.7869C73.6079 52.7195 73.5404 52.652 73.5067 52.5846Z" fill="url(#paint32_linear_63_12857)"/>
<path d="M35.7455 33.2993C35.6781 33.333 35.6443 33.4005 35.5769 33.4342C35.6443 33.3667 35.7118 33.333 35.7455 33.2993Z" fill="url(#paint33_linear_63_12857)"/>
<path d="M60.7286 30.501C60.796 30.5347 60.8634 30.6021 60.9646 30.6358C60.8972 30.6021 60.796 30.5684 60.7286 30.501Z" fill="url(#paint34_linear_63_12857)"/>
<path d="M67.5391 18.6332C67.5391 18.7006 67.5054 18.768 67.5054 18.8018C67.5054 18.7343 67.4717 18.6669 67.4717 18.6332H67.5391Z" fill="url(#paint35_linear_63_12857)"/>
<path d="M63.4595 18.5658C63.4258 18.5321 63.3584 18.4646 63.3246 18.4309C63.3584 18.4983 63.3921 18.5321 63.4595 18.5658Z" fill="url(#paint36_linear_63_12857)"/>
<path d="M27.7886 95.774C27.856 95.7066 27.8897 95.6729 27.9572 95.6055C27.8897 95.6392 27.856 95.7066 27.7886 95.774Z" fill="url(#paint37_linear_63_12857)"/>
<path d="M60.5263 13.5084C60.4926 13.4747 60.4251 13.4073 60.3914 13.3735C60.4251 13.4073 60.4589 13.441 60.5263 13.5084Z" fill="url(#paint38_linear_63_12857)"/>
<path d="M27.3503 11.9912C27.3503 12.0249 27.3503 12.0924 27.3503 12.1261C27.3166 12.0924 27.2492 12.0249 27.2155 11.9912C27.2492 11.9912 27.3166 11.9912 27.3503 11.9912Z" fill="url(#paint39_linear_63_12857)"/>
<path d="M40.6678 100.663C40.7353 100.73 40.769 100.764 40.8364 100.831C40.769 100.764 40.7353 100.697 40.6678 100.663Z" fill="url(#paint40_linear_63_12857)"/>
<path d="M44.1406 78.377C44.2081 78.4107 44.2755 78.4781 44.3429 78.5118C44.2755 78.4781 44.2081 78.4444 44.1406 78.377Z" fill="url(#paint41_linear_63_12857)"/>
<path d="M43.264 96.2124C43.2978 96.145 43.2978 96.0775 43.3315 96.0438C43.3652 96.0438 43.4326 96.0775 43.5 96.1113C43.4663 96.1787 43.4663 96.2461 43.4326 96.2798C43.3652 96.2798 43.2978 96.2461 43.264 96.2124Z" fill="url(#paint42_linear_63_12857)"/>
<defs>
<linearGradient id="paint0_linear_63_12857" x1="43.1965" y1="0.865112" x2="43.1965" y2="32.6588" gradientUnits="userSpaceOnUse">
<stop stop-color="#CB68A2"/>
<stop offset="1" stop-color="#E9A9D9"/>
</linearGradient>
<linearGradient id="paint1_linear_63_12857" x1="63.9127" y1="34.5469" x2="63.9127" y2="85.356" gradientUnits="userSpaceOnUse">
<stop stop-color="#CB68A2"/>
<stop offset="1" stop-color="#E9A9D9"/>
</linearGradient>
<linearGradient id="paint2_linear_63_12857" x1="19.3968" y1="33.8726" x2="19.3968" y2="80.1685" gradientUnits="userSpaceOnUse">
<stop stop-color="#CB68A2"/>
<stop offset="1" stop-color="#E9A9D9"/>
</linearGradient>
<linearGradient id="paint3_linear_63_12857" x1="43.5511" y1="30.6499" x2="43.5511" y2="60.338" gradientUnits="userSpaceOnUse">
<stop stop-color="#CB68A2"/>
<stop offset="1" stop-color="#E9A9D9"/>
</linearGradient>
<linearGradient id="paint4_linear_63_12857" x1="56.9554" y1="85.9966" x2="56.9554" y2="101.024" gradientUnits="userSpaceOnUse">
<stop stop-color="#CB68A2"/>
<stop offset="1" stop-color="#E9A9D9"/>
</linearGradient>
<linearGradient id="paint5_linear_63_12857" x1="29.9965" y1="86.1224" x2="29.9965" y2="100.876" gradientUnits="userSpaceOnUse">
<stop stop-color="#CB68A2"/>
<stop offset="1" stop-color="#E9A9D9"/>
</linearGradient>
<linearGradient id="paint6_linear_63_12857" x1="43.0617" y1="86.0303" x2="43.0617" y2="100.798" gradientUnits="userSpaceOnUse">
<stop stop-color="#CB68A2"/>
<stop offset="1" stop-color="#E9A9D9"/>
</linearGradient>
<linearGradient id="paint7_linear_63_12857" x1="47.4447" y1="9.42883" x2="47.4447" y2="10.3729" gradientUnits="userSpaceOnUse">
<stop stop-color="#CB68A2"/>
<stop offset="1" stop-color="#E9A9D9"/>
</linearGradient>
<linearGradient id="paint8_linear_63_12857" x1="35.6611" y1="2.78687" x2="35.6611" y2="3.53137" gradientUnits="userSpaceOnUse">
<stop stop-color="#CB68A2"/>
<stop offset="1" stop-color="#E9A9D9"/>
</linearGradient>
<linearGradient id="paint9_linear_63_12857" x1="25.2996" y1="15.4282" x2="25.2996" y2="16.2394" gradientUnits="userSpaceOnUse">
<stop stop-color="#CB68A2"/>
<stop offset="1" stop-color="#E9A9D9"/>
</linearGradient>
<linearGradient id="paint10_linear_63_12857" x1="28.2268" y1="10.3655" x2="28.2268" y2="11.182" gradientUnits="userSpaceOnUse">
<stop stop-color="#CB68A2"/>
<stop offset="1" stop-color="#E9A9D9"/>
</linearGradient>
<linearGradient id="paint11_linear_63_12857" x1="22.3663" y1="20.5143" x2="22.3663" y2="21.3304" gradientUnits="userSpaceOnUse">
<stop stop-color="#CB68A2"/>
<stop offset="1" stop-color="#E9A9D9"/>
</linearGradient>
<linearGradient id="paint12_linear_63_12857" x1="20.2191" y1="24.2279" x2="20.2191" y2="25.039" gradientUnits="userSpaceOnUse">
<stop stop-color="#CB68A2"/>
<stop offset="1" stop-color="#E9A9D9"/>
</linearGradient>
<linearGradient id="paint13_linear_63_12857" x1="23.1527" y1="19.1726" x2="23.1527" y2="19.9818" gradientUnits="userSpaceOnUse">
<stop stop-color="#CB68A2"/>
<stop offset="1" stop-color="#E9A9D9"/>
</linearGradient>
<linearGradient id="paint14_linear_63_12857" x1="39.5553" y1="51.8313" x2="39.5553" y2="52.3486" gradientUnits="userSpaceOnUse">
<stop stop-color="#CB68A2"/>
<stop offset="1" stop-color="#E9A9D9"/>
</linearGradient>
<linearGradient id="paint15_linear_63_12857" x1="34.5823" y1="35.3898" x2="34.5823" y2="35.7944" gradientUnits="userSpaceOnUse">
<stop stop-color="#CB68A2"/>
<stop offset="1" stop-color="#E9A9D9"/>
</linearGradient>
<linearGradient id="paint16_linear_63_12857" x1="20.8264" y1="27.9723" x2="20.8264" y2="28.1746" gradientUnits="userSpaceOnUse">
<stop stop-color="#CB68A2"/>
<stop offset="1" stop-color="#E9A9D9"/>
</linearGradient>
<linearGradient id="paint17_linear_63_12857" x1="25.976" y1="14.381" x2="25.976" y2="14.857" gradientUnits="userSpaceOnUse">
<stop stop-color="#CB68A2"/>
<stop offset="1" stop-color="#E9A9D9"/>
</linearGradient>
<linearGradient id="paint18_linear_63_12857" x1="20.034" y1="25.0391" x2="20.034" y2="25.3425" gradientUnits="userSpaceOnUse">
<stop stop-color="#CB68A2"/>
<stop offset="1" stop-color="#E9A9D9"/>
</linearGradient>
<linearGradient id="paint19_linear_63_12857" x1="68.6686" y1="20.5212" x2="68.6686" y2="20.9258" gradientUnits="userSpaceOnUse">
<stop stop-color="#CB68A2"/>
<stop offset="1" stop-color="#E9A9D9"/>
</linearGradient>
<linearGradient id="paint20_linear_63_12857" x1="23.001" y1="19.948" x2="23.001" y2="20.2514" gradientUnits="userSpaceOnUse">
<stop stop-color="#CB68A2"/>
<stop offset="1" stop-color="#E9A9D9"/>
</linearGradient>
<linearGradient id="paint21_linear_63_12857" x1="38.2403" y1="79.9279" x2="38.2403" y2="80.2313" gradientUnits="userSpaceOnUse">
<stop stop-color="#CB68A2"/>
<stop offset="1" stop-color="#E9A9D9"/>
</linearGradient>
<linearGradient id="paint22_linear_63_12857" x1="72.8999" y1="79.9279" x2="72.8999" y2="80.0964" gradientUnits="userSpaceOnUse">
<stop stop-color="#CB68A2"/>
<stop offset="1" stop-color="#E9A9D9"/>
</linearGradient>
<linearGradient id="paint23_linear_63_12857" x1="34.2619" y1="51.8429" x2="34.2619" y2="52.18" gradientUnits="userSpaceOnUse">
<stop stop-color="#CB68A2"/>
<stop offset="1" stop-color="#E9A9D9"/>
</linearGradient>
<linearGradient id="paint24_linear_63_12857" x1="28.092" y1="11.1483" x2="28.092" y2="11.4518" gradientUnits="userSpaceOnUse">
<stop stop-color="#CB68A2"/>
<stop offset="1" stop-color="#E9A9D9"/>
</linearGradient>
<linearGradient id="paint25_linear_63_12857" x1="62.6166" y1="16.88" x2="62.6166" y2="17.2172" gradientUnits="userSpaceOnUse">
<stop stop-color="#CB68A2"/>
<stop offset="1" stop-color="#E9A9D9"/>
</linearGradient>
<linearGradient id="paint26_linear_63_12857" x1="59.6834" y1="11.7889" x2="59.6834" y2="12.1261" gradientUnits="userSpaceOnUse">
<stop stop-color="#CB68A2"/>
<stop offset="1" stop-color="#E9A9D9"/>
</linearGradient>
<linearGradient id="paint27_linear_63_12857" x1="7.22219" y1="76.9946" x2="7.22219" y2="77.1295" gradientUnits="userSpaceOnUse">
<stop stop-color="#CB68A2"/>
<stop offset="1" stop-color="#E9A9D9"/>
</linearGradient>
<linearGradient id="paint28_linear_63_12857" x1="65.7488" y1="19.6108" x2="65.7488" y2="19.7794" gradientUnits="userSpaceOnUse">
<stop stop-color="#CB68A2"/>
<stop offset="1" stop-color="#E9A9D9"/>
</linearGradient>
<linearGradient id="paint29_linear_63_12857" x1="53.4629" y1="71.9036" x2="53.4629" y2="72.0721" gradientUnits="userSpaceOnUse">
<stop stop-color="#CB68A2"/>
<stop offset="1" stop-color="#E9A9D9"/>
</linearGradient>
<linearGradient id="paint30_linear_63_12857" x1="37.0604" y1="58.6533" x2="37.0604" y2="58.7882" gradientUnits="userSpaceOnUse">
<stop stop-color="#CB68A2"/>
<stop offset="1" stop-color="#E9A9D9"/>
</linearGradient>
<linearGradient id="paint31_linear_63_12857" x1="45.405" y1="100.629" x2="45.405" y2="100.798" gradientUnits="userSpaceOnUse">
<stop stop-color="#CB68A2"/>
<stop offset="1" stop-color="#E9A9D9"/>
</linearGradient>
<linearGradient id="paint32_linear_63_12857" x1="73.591" y1="52.5846" x2="73.591" y2="52.7869" gradientUnits="userSpaceOnUse">
<stop stop-color="#CB68A2"/>
<stop offset="1" stop-color="#E9A9D9"/>
</linearGradient>
<linearGradient id="paint33_linear_63_12857" x1="35.6612" y1="33.2993" x2="35.6612" y2="33.4342" gradientUnits="userSpaceOnUse">
<stop stop-color="#CB68A2"/>
<stop offset="1" stop-color="#E9A9D9"/>
</linearGradient>
<linearGradient id="paint34_linear_63_12857" x1="60.8466" y1="30.501" x2="60.8466" y2="30.6358" gradientUnits="userSpaceOnUse">
<stop stop-color="#CB68A2"/>
<stop offset="1" stop-color="#E9A9D9"/>
</linearGradient>
<linearGradient id="paint35_linear_63_12857" x1="67.5054" y1="18.6332" x2="67.5054" y2="18.8018" gradientUnits="userSpaceOnUse">
<stop stop-color="#CB68A2"/>
<stop offset="1" stop-color="#E9A9D9"/>
</linearGradient>
<linearGradient id="paint36_linear_63_12857" x1="63.3921" y1="18.4309" x2="63.3921" y2="18.5658" gradientUnits="userSpaceOnUse">
<stop stop-color="#CB68A2"/>
<stop offset="1" stop-color="#E9A9D9"/>
</linearGradient>
<linearGradient id="paint37_linear_63_12857" x1="27.8729" y1="95.6055" x2="27.8729" y2="95.774" gradientUnits="userSpaceOnUse">
<stop stop-color="#CB68A2"/>
<stop offset="1" stop-color="#E9A9D9"/>
</linearGradient>
<linearGradient id="paint38_linear_63_12857" x1="60.4589" y1="13.3735" x2="60.4589" y2="13.5084" gradientUnits="userSpaceOnUse">
<stop stop-color="#CB68A2"/>
<stop offset="1" stop-color="#E9A9D9"/>
</linearGradient>
<linearGradient id="paint39_linear_63_12857" x1="27.2829" y1="11.9912" x2="27.2829" y2="12.1261" gradientUnits="userSpaceOnUse">
<stop stop-color="#CB68A2"/>
<stop offset="1" stop-color="#E9A9D9"/>
</linearGradient>
<linearGradient id="paint40_linear_63_12857" x1="40.7521" y1="100.663" x2="40.7521" y2="100.831" gradientUnits="userSpaceOnUse">
<stop stop-color="#CB68A2"/>
<stop offset="1" stop-color="#E9A9D9"/>
</linearGradient>
<linearGradient id="paint41_linear_63_12857" x1="44.2418" y1="78.377" x2="44.2418" y2="78.5118" gradientUnits="userSpaceOnUse">
<stop stop-color="#CB68A2"/>
<stop offset="1" stop-color="#E9A9D9"/>
</linearGradient>
<linearGradient id="paint42_linear_63_12857" x1="43.382" y1="96.0438" x2="43.382" y2="96.2798" gradientUnits="userSpaceOnUse">
<stop stop-color="#CB68A2"/>
<stop offset="1" stop-color="#E9A9D9"/>
</linearGradient>
</defs>
</svg>
