<svg width="101" height="100" viewBox="0 0 101 100" fill="none" xmlns="http://www.w3.org/2000/svg">
<g clip-path="url(#clip0_63_12844)">
<path d="M73.9589 30.7078C73.9589 32.363 73.9874 34.0183 73.9304 35.6735C73.9018 36.3584 74.1016 36.7295 74.7294 37.0719C77.6975 38.7272 80.6084 40.468 83.5765 42.1233C84.4897 42.637 84.8893 43.3219 84.8893 44.3779C84.8607 48.1164 84.8607 51.855 84.9178 55.5936C84.9178 56.7066 84.4897 57.3916 83.5194 57.9338C80.637 59.532 77.7831 61.2443 74.8721 62.8425C74.1872 63.2135 73.9304 63.613 73.9304 64.4121C73.9874 67.7226 73.9304 71.0331 73.9874 74.3721C74.016 75.4281 73.6164 76.113 72.7032 76.6267C69.3356 78.5103 65.968 80.4224 62.629 82.363C61.8014 82.8482 61.0879 82.8482 60.2603 82.3916C57.3493 80.7078 54.4098 79.0811 51.5559 77.3687C50.7854 76.9121 50.2146 76.9406 49.5011 77.3687C46.6473 79.0525 43.7363 80.6507 40.8824 82.3345C39.9692 82.8767 39.1701 82.8767 38.2568 82.363C34.9178 80.4224 31.5788 78.4817 28.2112 76.5982C27.3265 76.0845 27.0126 75.371 27.0126 74.4007C27.0411 71.1758 26.984 67.9224 27.0696 64.6975C27.0982 63.6701 26.6986 63.1849 25.871 62.7283C23.0171 61.1301 20.1918 59.4749 17.3379 57.8767C16.4532 57.3916 16.0536 56.7352 16.0536 55.7363C16.0822 51.9406 16.0822 48.1735 16.0536 44.3779C16.0536 43.2648 16.5103 42.6084 17.4806 42.0662C20.3915 40.468 23.2169 38.7842 26.1279 37.1575C26.8128 36.7865 27.0411 36.3584 27.0411 35.5594C26.984 32.2774 27.0411 29.024 27.0126 25.742C27.0126 24.6575 27.3265 23.9155 28.3253 23.3733C31.6358 21.5468 34.8893 19.6632 38.1712 17.7511C39.0845 17.2374 39.855 17.1518 40.7968 17.6941C43.7363 19.4064 46.7043 21.0331 49.6438 22.774C50.2717 23.145 50.7283 23.145 51.3562 22.774C54.2386 21.0616 57.1781 19.4349 60.0605 17.7511C60.9737 17.2374 61.7443 17.1518 62.6575 17.6941C66.0251 19.6632 69.4212 21.5753 72.8173 23.516C73.6164 23.9726 73.9589 24.6005 73.9304 25.4852C73.9589 27.226 73.9589 28.9669 73.9589 30.7078ZM48.8733 68.75C48.9018 68.75 48.9304 68.75 48.9304 68.75C48.9304 67.2945 48.8733 65.8676 48.9589 64.4121C48.9874 63.6701 48.702 63.2705 48.1027 62.8995C45.5057 61.4441 42.9372 59.9886 40.3687 58.476C39.7979 58.1336 39.3128 58.1336 38.7135 58.476C36.1164 59.9886 33.4909 61.4726 30.8653 62.9566C30.3801 63.242 30.1233 63.5274 30.1233 64.1553C30.1518 67.2089 30.1518 70.2626 30.1233 73.3162C30.1233 73.8584 30.3231 74.1724 30.7797 74.4292C33.4623 75.9418 36.1735 77.4829 38.8562 79.024C39.3413 79.3094 39.7123 79.3379 40.2546 79.024C41.6244 78.1678 43.0514 77.4543 44.4498 76.6267C45.9338 75.742 48.0742 75.3139 48.7306 73.887C49.4155 72.4886 48.8733 70.4909 48.8733 68.75ZM59.9178 50C59.8893 50 59.8893 50 59.9178 50C59.9178 48.516 59.8893 47.032 59.9178 45.5479C59.9463 44.8916 59.718 44.5776 59.1473 44.2637C56.4361 42.7797 53.7534 41.2386 51.0708 39.669C50.6427 39.4121 50.3858 39.3836 49.9292 39.6404C47.218 41.21 44.4783 42.7797 41.7386 44.3208C41.2534 44.6062 41.0536 44.9486 41.0536 45.5479C41.0822 48.516 41.0822 51.484 41.0536 54.4806C41.0536 55.1084 41.2534 55.4795 41.8242 55.7934C44.4498 57.2489 47.0753 58.7329 49.6724 60.274C50.3288 60.6735 50.8139 60.5879 51.4132 60.2454C53.9532 58.7614 56.4646 57.3059 59.0331 55.879C59.7466 55.4795 59.9463 54.9943 59.9178 54.2523C59.8607 52.7968 59.9178 51.3984 59.9178 50ZM70.8196 31.3356C70.8196 29.8516 70.7911 28.3676 70.8482 26.8836C70.8767 26.2842 70.734 25.8847 70.1347 25.5422C67.4235 24.0297 64.7409 22.4886 62.0582 20.9475C61.6016 20.6906 61.2591 20.6621 60.774 20.919C58.0913 22.46 55.4087 24.0011 52.6975 25.5137C52.2123 25.7991 51.984 26.113 51.984 26.7123C52.0126 29.766 52.0126 32.8196 51.984 35.9018C51.984 36.387 52.1552 36.6724 52.5548 36.9007C55.2945 38.4418 58.0057 39.9829 60.7169 41.5811C61.2306 41.8664 61.6016 41.8379 62.1153 41.5525C64.6838 40.04 67.2523 38.5845 69.8493 37.1575C70.5342 36.7865 70.8196 36.3584 70.7911 35.5594C70.7911 34.1324 70.8196 32.734 70.8196 31.3356ZM48.9589 31.3071C48.9874 29.766 48.9589 28.2534 48.9874 26.7123C48.9874 26.2272 48.9018 25.8562 48.3881 25.5708C45.6484 24.0297 42.9087 22.4886 40.1975 20.919C39.7123 20.6336 39.3699 20.6621 38.9132 20.9475C36.2306 22.4886 33.5194 24.0297 30.8368 25.5708C30.3801 25.8276 30.1518 26.1416 30.1518 26.6838C30.1804 29.7374 30.1804 32.8196 30.1804 35.8733C30.1804 36.387 30.3516 36.7295 30.8082 36.9863C33.4623 38.4703 36.145 39.9829 38.7705 41.524C39.2842 41.8379 39.7409 41.9235 40.2831 41.5811C42.8801 40.04 45.5057 38.5559 48.1313 37.0719C48.7306 36.7295 48.9589 36.3584 48.9304 35.6735C48.9018 34.218 48.9589 32.7626 48.9589 31.3071ZM70.8196 68.8642C70.8196 67.3231 70.8196 65.8105 70.8196 64.2694C70.8196 63.6986 70.6769 63.3276 70.1347 63.0422C67.4235 61.5297 64.7409 59.9886 62.0582 58.4475C61.6301 58.2192 61.2591 58.105 60.774 58.4189C58.0913 59.9886 55.4087 61.5011 52.6975 63.0137C52.2123 63.2991 51.984 63.6416 51.984 64.2409C52.0126 67.2945 52.0126 70.3482 51.984 73.4304C51.984 73.9155 52.1267 74.2009 52.5548 74.4292C55.2945 75.9703 58.0057 77.5114 60.7454 79.0811C61.2591 79.3664 61.6301 79.3379 62.1438 79.0525C64.1986 77.8539 66.1963 76.5411 68.3653 75.5708C70.3915 74.6575 71.2762 73.3733 70.8482 71.1758C70.7055 70.4053 70.8196 69.6062 70.8196 68.8642ZM81.6929 50C81.7215 48.516 81.6929 47.032 81.75 45.5479C81.7785 44.9201 81.5788 44.5491 81.008 44.2352C78.3824 42.7797 75.7568 41.2957 73.1313 39.7831C72.589 39.4692 72.218 39.4121 71.6473 39.7546C69.0217 41.2957 66.339 42.8082 63.6849 44.2922C63.1712 44.5776 62.9715 44.9201 62.9715 45.5194C63 48.5445 63 51.5696 62.9715 54.5662C62.9715 55.0799 63.0856 55.4224 63.5708 55.7078C66.3105 57.2489 69.0502 58.79 71.7614 60.3881C72.2466 60.6735 72.589 60.6164 73.0457 60.3596C75.6998 58.8185 78.3539 57.3059 81.008 55.8219C81.5217 55.5365 81.7215 55.2226 81.7215 54.6233C81.6644 53.0537 81.6929 51.5126 81.6929 50ZM38 50.0571C38 48.5731 37.9429 47.089 38 45.605C38.0285 44.9201 37.8002 44.5491 37.2009 44.2066C34.4897 42.6941 31.8071 41.153 29.1244 39.5833C28.7249 39.355 28.468 39.3836 28.0685 39.5833C25.3858 41.1244 22.7032 42.6655 19.992 44.2066C19.4498 44.5205 19.2215 44.8916 19.2215 45.5194C19.25 48.4874 19.25 51.484 19.25 54.4521C19.25 55.0514 19.3927 55.4795 19.9635 55.7934C22.6461 57.2774 25.3002 58.79 27.9258 60.3025C28.3824 60.5594 28.7249 60.645 29.21 60.3596C31.8642 58.8185 34.4897 57.2774 37.1724 55.7934C37.7717 55.4509 38 55.0799 38 54.395C37.9715 52.968 38 51.5126 38 50.0571Z" fill="url(#paint0_linear_63_12844)"/>
<path d="M43.3938 100C42.7089 99.9715 42.3094 99.5719 42.0525 99.0012C41.7386 98.2877 41.9669 97.6884 42.5091 97.1747C44.1359 95.7192 45.677 94.2067 47.3893 92.8653C48.5879 91.9521 49.2158 90.9532 48.9589 89.4121C48.8448 88.6416 49.0731 87.9567 49.8151 87.6142C50.8425 87.129 52.1267 87.9281 51.9555 89.1267C51.6986 90.9818 52.5548 92.0948 53.9247 93.1507C55.3516 94.2637 56.6644 95.548 58.0343 96.7751C59.2043 97.8025 59.3756 98.6587 58.6336 99.4863C57.9201 100.257 57.0354 100.143 55.8653 99.0868C54.2957 97.6599 52.669 96.29 51.1279 94.8345C50.5856 94.3208 50.2717 94.4064 49.758 94.863C48.1313 96.3471 46.4475 97.8025 44.8208 99.2866C44.4212 99.6861 43.9932 100.029 43.3938 100Z" fill="url(#paint1_linear_63_12844)"/>
<path d="M13.1142 77.8254C15.0548 77.911 17.024 77.9681 18.9646 78.1393C19.8208 78.2249 20.4201 77.9681 20.9624 77.3402C21.3048 76.9407 21.7329 76.5412 22.1895 76.2558C22.8745 75.7991 23.5023 76.0845 24.016 76.5982C24.5012 77.1119 24.5868 77.7112 24.2158 78.3676C24.1587 78.4818 24.1016 78.6245 23.9875 78.6816C21.8756 79.9373 22.3037 81.9635 22.3893 83.9042C22.4749 85.5594 22.5891 87.2147 22.7032 88.8699C22.7888 89.9259 22.3608 90.6108 21.3334 90.8106C20.4487 90.9818 19.6496 90.1827 19.564 89.0412C19.4498 87.1291 19.3642 85.2169 19.2786 83.3048C19.1644 81.2215 19.1359 81.2215 17.1096 81.1644C15.1975 81.1074 13.2854 80.9647 11.3733 80.8791C10.6599 80.8505 10.1747 80.5366 9.83223 79.9373C9.5183 79.395 9.63246 78.8813 9.94638 78.3676C10.2603 77.8825 10.7455 77.7398 11.2592 77.7398C11.9441 77.7683 12.5149 77.7969 13.1142 77.8254Z" fill="url(#paint2_linear_63_12844)"/>
<path d="M78.2968 87.3859C78.411 85.4738 78.4395 83.5617 78.6393 81.6496C78.7249 80.6793 78.4966 80.0229 77.7546 79.4236C77.3836 79.1382 77.0697 78.7672 76.8128 78.3962C76.3276 77.7398 76.5274 77.0834 77.0126 76.5411C77.4692 76.0274 78.0685 75.8562 78.7249 76.1987C78.9247 76.2843 79.1245 76.3984 79.2386 76.5697C80.3802 78.3105 82.0925 78.2249 83.8334 78.0822C85.5171 77.9395 87.2295 77.8825 88.9133 77.7969C90.4258 77.7112 91.2535 78.2249 91.282 79.2523C91.3105 80.2512 90.4829 80.822 88.9703 80.879C86.9441 80.9647 84.8893 81.1359 82.863 81.193C82.0069 81.2215 81.6929 81.5925 81.6644 82.4201C81.5788 84.6176 81.4646 86.8437 81.3505 89.0411C81.2934 90.0971 80.7226 90.8105 79.6952 90.7535C78.6678 90.6964 78.1256 89.9829 78.2398 88.8984C78.2398 88.7843 78.2683 88.6416 78.2683 88.5274C78.2968 88.1279 78.2968 87.7569 78.2968 87.3859Z" fill="url(#paint3_linear_63_12844)"/>
<path d="M50.5571 12.5C49.4726 12.4429 48.8448 11.8436 48.9875 10.8733C49.2729 8.96118 48.3596 7.81963 46.9612 6.73515C45.4772 5.5936 44.1359 4.28082 42.7375 3.05365C41.7672 2.19748 41.5959 1.2557 42.3379 0.513691C43.1941 -0.342473 44.0217 -0.028546 44.7923 0.656386C46.3904 2.08333 48.0172 3.42465 49.5297 4.90867C50.3003 5.65068 50.7854 5.56506 51.4989 4.88013C53.0114 3.45319 54.5811 2.08333 56.1507 0.713463C56.6359 0.285381 57.1496 -0.114162 57.863 0.0570705C58.4909 0.199765 58.8904 0.627847 59.0617 1.2557C59.2329 1.91209 58.9475 2.39725 58.4909 2.82534C56.9783 4.16666 55.4943 5.5936 53.8962 6.84931C52.5834 7.87671 51.6987 8.96118 52.0126 10.7877C52.1553 11.7865 51.5274 12.3573 50.5571 12.5Z" fill="url(#paint4_linear_63_12844)"/>
<path d="M13 50.0286C12.8859 50.9704 12.3722 51.6553 11.4589 51.4841C9.3185 51.0845 8.20549 52.3402 7.06394 53.7672C5.95092 55.137 4.72376 56.4498 3.52513 57.7911C2.66896 58.7329 1.8128 58.8756 1.09933 58.2192C0.328778 57.5343 0.357317 56.6496 1.24202 55.6507C2.61188 54.0811 3.98175 52.5115 5.40869 50.9989C6.09362 50.2854 6.17923 49.8003 5.43723 49.0297C3.98175 47.5457 2.64042 45.9475 1.27056 44.3779C0.357317 43.3505 0.300239 42.5229 1.04225 41.8094C1.84134 41.0674 2.64042 41.2386 3.63928 42.3516C4.86645 43.7215 6.1507 45.0057 7.26371 46.4327C8.34819 47.8311 9.48974 48.7729 11.4018 48.4589C12.3722 48.3448 12.9144 49.0297 13 50.0286Z" fill="url(#paint5_linear_63_12844)"/>
<path d="M98.8733 41.3812C99.5297 41.4954 100.015 41.7522 100.329 42.3515C100.671 43.0079 100.5 43.5787 100.043 44.0924C98.5023 45.8047 97.0183 47.5456 95.4486 49.2294C94.8779 49.8573 94.9064 50.2283 95.4486 50.799C96.9327 52.3972 98.331 54.0239 99.7865 55.6506C100.671 56.6495 100.728 57.5627 99.9578 58.1906C99.1587 58.847 98.3025 58.7043 97.4178 57.7054C95.8767 55.9646 94.2785 54.2237 92.7945 52.4543C92.2237 51.7694 91.6244 51.4269 90.7112 51.541C90.2831 51.5981 89.855 51.5696 89.4269 51.541C88.4566 51.4554 88 50.8561 88 49.9429C88.0285 49.0582 88.5422 48.3732 89.4269 48.5445C91.4247 48.8869 92.6518 47.8881 93.7934 46.4326C94.9349 44.9486 96.2763 43.6358 97.4749 42.2088C97.8744 41.7522 98.3311 41.4668 98.8733 41.3812Z" fill="url(#paint6_linear_63_12844)"/>
<path d="M22.6747 12.8425C22.5891 14.4977 22.5891 16.153 22.3893 17.7797C22.2181 19.1496 22.532 20.177 23.6736 20.976C23.8162 21.0617 23.9304 21.2044 24.016 21.347C24.6153 22.0891 24.6724 22.8025 23.9589 23.4875C23.274 24.1439 22.3893 24.258 21.8471 23.4875C20.677 21.8607 19.1359 21.7751 17.3665 21.9178C15.5115 22.0891 13.6279 22.1176 11.7729 22.2603C10.6884 22.3459 9.88931 22.0034 9.74661 20.8619C9.60392 19.8916 10.4315 19.2066 11.6873 19.1496C13.6279 19.0639 15.5971 18.9783 17.5377 18.8642C19.2786 18.7786 19.2786 18.75 19.3642 16.9806C19.4783 15.04 19.564 13.0708 19.6496 11.1302C19.7067 10.0171 20.3916 9.21805 21.3048 9.24659C22.2181 9.27513 22.8459 10.0742 22.8174 11.2158C22.8174 11.387 22.7889 11.5582 22.7603 11.7295C22.7032 12.0719 22.6747 12.4429 22.6747 12.8425Z" fill="url(#paint7_linear_63_12844)"/>
<path d="M87.8573 22.1746C85.9452 22.089 84.0331 22.0319 82.1495 21.8607C81.2077 21.7751 80.5228 22.0319 79.9235 22.7454C79.6666 23.0593 79.3527 23.3732 79.0103 23.6301C78.3539 24.1153 77.6689 24.1153 77.0696 23.5159C76.4988 22.9452 76.3561 22.2602 76.8128 21.5468C76.8413 21.5182 76.8413 21.4611 76.8698 21.4326C79.2671 19.8915 78.5822 17.5513 78.468 15.3824C78.4109 13.984 78.2968 12.5856 78.2397 11.1872C78.2112 9.96 78.782 9.27507 79.7523 9.21799C80.637 9.16091 81.2934 9.98854 81.3504 11.1301C81.4646 13.299 81.5787 15.4395 81.6644 17.6084C81.6929 18.436 82.0354 18.7785 82.8915 18.807C85.089 18.8641 87.3151 19.0068 89.5125 19.121C90.5685 19.178 91.2819 19.7203 91.2249 20.7762C91.1963 21.8321 90.4258 22.3173 89.3698 22.2317C89.2842 22.2317 89.1986 22.2032 89.113 22.2032C88.7135 22.2032 88.2854 22.2032 87.8573 22.1746Z" fill="url(#paint8_linear_63_12844)"/>
</g>
<defs>
<linearGradient id="paint0_linear_63_12844" x1="50.4857" y1="17.3248" x2="50.4857" y2="82.7448" gradientUnits="userSpaceOnUse">
<stop stop-color="#CB68A2"/>
<stop offset="1" stop-color="#E9A9D9"/>
</linearGradient>
<linearGradient id="paint1_linear_63_12844" x1="50.4951" y1="87.4701" x2="50.4951" y2="100.002" gradientUnits="userSpaceOnUse">
<stop stop-color="#CB68A2"/>
<stop offset="1" stop-color="#E9A9D9"/>
</linearGradient>
<linearGradient id="paint2_linear_63_12844" x1="17.046" y1="76.027" x2="17.046" y2="90.8337" gradientUnits="userSpaceOnUse">
<stop stop-color="#CB68A2"/>
<stop offset="1" stop-color="#E9A9D9"/>
</linearGradient>
<linearGradient id="paint3_linear_63_12844" x1="83.9083" y1="76.0205" x2="83.9083" y2="90.7567" gradientUnits="userSpaceOnUse">
<stop stop-color="#CB68A2"/>
<stop offset="1" stop-color="#E9A9D9"/>
</linearGradient>
<linearGradient id="paint4_linear_63_12844" x1="50.4949" y1="-0.00524902" x2="50.4949" y2="12.5" gradientUnits="userSpaceOnUse">
<stop stop-color="#CB68A2"/>
<stop offset="1" stop-color="#E9A9D9"/>
</linearGradient>
<linearGradient id="paint5_linear_63_12844" x1="6.76554" y1="41.3591" x2="6.76554" y2="58.6236" gradientUnits="userSpaceOnUse">
<stop stop-color="#CB68A2"/>
<stop offset="1" stop-color="#E9A9D9"/>
</linearGradient>
<linearGradient id="paint6_linear_63_12844" x1="94.2548" y1="41.3812" x2="94.2548" y2="58.5911" gradientUnits="userSpaceOnUse">
<stop stop-color="#CB68A2"/>
<stop offset="1" stop-color="#E9A9D9"/>
</linearGradient>
<linearGradient id="paint7_linear_63_12844" x1="17.1052" y1="9.24585" x2="17.1052" y2="24.0234" gradientUnits="userSpaceOnUse">
<stop stop-color="#CB68A2"/>
<stop offset="1" stop-color="#E9A9D9"/>
</linearGradient>
<linearGradient id="paint8_linear_63_12844" x1="83.8848" y1="9.21521" x2="83.8848" y2="23.9808" gradientUnits="userSpaceOnUse">
<stop stop-color="#CB68A2"/>
<stop offset="1" stop-color="#E9A9D9"/>
</linearGradient>
<clipPath id="clip0_63_12844">
<rect width="100" height="100" fill="white" transform="translate(0.5)"/>
</clipPath>
</defs>
</svg>
