<svg width="101" height="99" viewBox="0 0 101 99" fill="none" xmlns="http://www.w3.org/2000/svg">
<g clip-path="url(#clip0_63_12773)">
<path d="M58.6973 96.0894C58.4134 96.3734 58.2005 96.6573 57.9166 96.9413C57.7747 97.0833 57.6327 97.2253 57.4908 97.2962C57.1359 97.5802 56.7811 97.7932 56.4262 98.0772C56.1423 98.2191 55.8584 98.2901 55.6455 98.4321C55.4326 98.5031 55.2906 98.5741 55.0777 98.6451C55.0067 98.6451 54.9358 98.6451 54.8648 98.7161C54.368 98.7871 53.9422 98.929 53.4454 99C53.3744 99 53.3034 99 53.3034 99C39.6057 99 25.9081 99 12.2104 99C12.0685 99 11.8556 99 11.7136 99C11.4297 99 11.1458 99 10.862 99C10.4361 99 10.0103 99 9.51348 98.929C9.44251 98.4321 9.22959 98.3611 8.59084 98.4321C8.37792 98.4321 8.165 98.2901 7.95209 98.1481C8.09403 98.0062 8.30695 97.8642 8.44889 97.7222C8.51987 97.6512 8.73278 97.7222 8.80376 97.7222C9.58445 97.7222 10.4361 97.7222 11.2168 97.7222C22.2885 97.7222 33.4312 97.7222 44.5028 97.7222C47.6256 97.7222 50.7484 97.5802 53.8712 97.5092C54.368 97.5092 54.5809 97.2962 54.368 96.7993C54.5099 96.7283 54.6519 96.6573 54.8648 96.5863C55.8584 96.1604 56.7101 95.4505 57.2779 94.5276C57.4908 94.2436 57.7037 93.9597 57.8456 93.6047C57.9876 93.1078 58.1295 92.5398 58.2715 92.0429C58.3424 91.8299 58.3424 91.6879 58.4134 91.475C59.0522 91.546 59.6199 91.546 60.2587 91.617C60.1877 92.0429 60.1877 92.3979 60.1167 92.8238C60.1167 92.8948 60.1167 92.9658 60.0458 93.0368C59.9748 93.2498 59.9748 93.3917 59.9038 93.6047C59.8329 93.8887 59.7619 94.1016 59.6199 94.3856C59.549 94.5276 59.478 94.5986 59.478 94.7406C59.407 94.8116 59.3361 94.9535 59.3361 95.0245C59.1941 95.3795 58.9812 95.7344 58.6973 96.0894Z" fill="url(#paint0_linear_63_12773)"/>
<path d="M3.12595 97.0833C2.77109 96.7283 2.41623 96.3024 2.06137 95.9474C1.70651 95.2375 1.35165 94.5276 0.925812 93.7467C0.996784 93.6757 1.06776 93.6047 1.13873 93.5337C1.63553 92.5398 1.2097 91.546 1.06776 90.4811C0.996784 90.1261 0.996784 89.7002 0.996784 89.3452C0.996784 88.9903 1.13873 88.6353 1.13873 88.3514C1.13873 69.8937 1.13873 51.436 1.13873 32.9783C1.13873 32.7653 1.06776 32.5523 1.13873 32.4103C1.2097 32.1974 1.42262 32.0554 1.56456 31.8424C1.84845 31.9134 2.06137 31.9134 2.34526 31.9844C2.34526 32.1264 2.34526 32.3393 2.34526 32.4813C2.34526 51.8619 2.34526 71.1715 2.34526 90.5521C2.34526 91.12 2.41623 91.617 2.41623 92.1849C2.41623 92.3269 2.4872 92.4688 2.4872 92.6108C2.4872 92.6818 2.4872 92.8238 2.55818 92.8948C2.34526 93.0368 2.13234 93.1078 1.9904 93.3207C1.91942 93.3917 1.91942 93.7467 1.91942 93.7467C2.27429 93.9597 2.70012 94.1016 3.12595 94.2436C3.2679 94.3856 3.40984 94.5276 3.48082 94.6696C3.69373 94.9535 3.83568 95.1665 4.04859 95.4505C3.83568 95.7344 3.69373 95.9474 4.04859 96.2314C4.33248 96.5153 4.61637 96.7993 4.82929 97.0833C5.04221 97.3672 5.25512 97.7222 5.53901 98.0772C5.53901 98.0772 5.46804 98.2191 5.39707 98.3611C5.25512 98.2901 5.11318 98.2901 4.97123 98.2191C4.90026 98.1481 4.75832 98.1481 4.68735 98.0772C4.33248 97.7932 3.90665 97.5802 3.55179 97.2962C3.40984 97.2253 3.33887 97.0833 3.19693 97.0123C3.19693 97.0833 3.19693 97.0833 3.12595 97.0833ZM1.42262 93.8177C1.42262 93.8177 1.49359 93.7467 1.42262 93.7467C1.42262 93.7467 1.35165 93.7467 1.35165 93.6757C1.35165 93.6757 1.28067 93.7467 1.35165 93.7467C1.35165 93.8177 1.35165 93.8177 1.42262 93.8177Z" fill="url(#paint1_linear_63_12773)"/>
<path d="M5.46806 98.4321C5.53904 98.2901 5.61001 98.1482 5.61001 98.1482C5.32612 97.7932 5.18417 97.4382 4.90028 97.1543C4.68737 96.8703 4.40348 96.5864 4.11959 96.3024C3.76473 96.0184 3.90667 95.7345 4.11959 95.5215C5.32612 96.5864 6.67459 97.1543 8.30696 97.1543C22.3595 97.1543 36.412 97.1543 50.4645 97.1543C51.742 97.1543 53.0905 97.2963 54.368 96.9413C54.5099 97.4382 54.368 97.5802 53.8712 97.6512C50.7484 97.7222 47.6256 97.8642 44.5028 97.8642C33.4312 97.8642 22.2885 97.8642 11.2168 97.8642C10.4361 97.8642 9.58446 97.8642 8.80376 97.8642C8.66182 97.8642 8.51987 97.7932 8.4489 97.8642C8.23598 97.9352 8.09404 98.1482 7.95209 98.2901C8.16501 98.3611 8.37793 98.5741 8.59085 98.5741C9.2296 98.5031 9.44251 98.6451 9.51349 99.071C9.44251 99.071 9.44251 99.071 9.37154 99.142C8.59085 99.142 7.73918 99.142 6.95848 99.142C6.67459 99.071 6.46168 99.071 6.17779 99C5.96487 98.9291 5.68098 98.7871 5.46806 98.7161C5.53904 98.5031 5.46806 98.5031 5.46806 98.4321Z" fill="url(#paint2_linear_63_12773)"/>
<path d="M95.6739 82.4591C95.461 82.4591 95.2481 82.5301 95.0351 82.5301C94.9642 82.3881 94.8222 82.2461 94.7513 82.1042C94.6803 81.9622 94.6803 81.6072 94.7513 81.6072C95.2481 81.3942 95.2481 80.9683 95.319 80.5423C95.9578 80.0454 96.6675 79.6195 97.3063 79.1225C97.4482 79.1225 97.5901 79.0515 97.6611 79.0515C97.5901 78.9805 97.5192 78.9095 97.5192 78.8386C97.7321 78.5546 97.874 78.2706 98.087 78.0577C98.1579 78.0577 98.2999 78.0577 98.3708 78.0577C98.2999 77.9867 98.2289 77.9157 98.1579 77.8447C98.2289 77.5607 98.3708 77.3477 98.3708 77.0638C98.4418 76.0699 98.5128 75.076 98.5838 74.0822C98.6547 74.1531 98.8677 74.2241 98.8677 74.2951C99.1515 74.934 99.6483 75.573 99.1515 76.2829C99.1515 76.3539 99.0806 76.4249 99.1515 76.4958C99.4354 76.9218 99.7903 77.3477 100.145 77.7737C100.003 78.1996 99.8613 78.5546 99.7193 78.9805C99.5774 79.1935 99.5064 79.3355 99.3645 79.5485C98.7257 80.1874 98.087 80.8973 97.4482 81.5362C97.2353 81.6782 96.9514 81.7492 96.7385 81.8912C96.7385 81.7492 96.6675 81.6072 96.6675 81.5362C96.3836 81.6072 96.1707 81.7492 96.0288 81.8202C95.8158 81.8912 95.461 81.9622 95.7449 82.3171C95.6739 82.3881 95.6739 82.4591 95.6739 82.4591Z" fill="url(#paint3_linear_63_12773)"/>
<path d="M95.248 80.6133C95.1771 81.0392 95.1771 81.4652 94.6803 81.6781C94.6093 81.6781 94.6803 82.0331 94.6803 82.1751C94.7512 82.3171 94.8932 82.4591 94.9641 82.601C94.9641 82.672 94.9641 82.672 94.9641 82.743C93.6157 83.027 92.1962 83.027 90.7768 82.956C91.0607 82.3881 90.4219 82.3881 90.28 82.1751C90.5639 81.8201 90.8477 81.4652 91.1316 81.1102C91.5575 81.1102 91.9833 81.1102 92.4801 81.0392C93.4028 80.8972 94.3254 80.7553 95.248 80.6133Z" fill="url(#paint4_linear_63_12773)"/>
<path d="M60.3297 91.6879C59.6909 91.6169 59.1231 91.6169 58.4844 91.5459C58.4844 91.3329 58.4844 91.12 58.4844 90.907C58.9102 90.836 59.1231 90.552 59.1231 90.1261C59.1231 88.9902 59.1231 87.9254 59.1231 86.7895C59.1231 85.7956 59.0522 84.8727 58.9812 83.8789C58.9812 83.24 58.9812 82.53 58.9812 81.8911C58.9102 81.1102 58.8392 80.4003 58.7683 79.6194C58.7683 79.5484 58.5553 79.4774 58.4844 79.4064C58.4844 79.2645 58.4844 79.1935 58.4844 79.0515C58.8392 79.0515 58.7683 78.7675 58.7683 78.5545C58.8392 78.0576 58.8392 77.6317 58.9812 77.1347C59.0522 76.7798 59.1941 76.3538 59.1941 75.9989C59.1941 75.2889 59.1231 74.579 59.1231 73.8691C59.1231 63.2205 59.1231 52.5008 59.1231 41.8521C59.1231 41.5682 59.0522 41.2132 59.0522 40.9292C59.0522 40.7872 59.0522 40.5743 59.0522 40.4323C59.1231 40.0063 59.1941 39.6514 59.1941 39.2254C59.1941 38.3026 59.1231 37.3797 59.1231 36.4568C59.1231 34.54 59.1941 32.6233 59.1941 30.7065C59.1941 30.3515 58.9812 30.0676 58.9102 29.7126C58.9812 29.6416 59.0522 29.6416 59.0522 29.5706C59.407 29.2867 59.6909 29.0027 59.9748 29.6416C59.9748 29.7126 60.1877 29.7126 60.3297 29.7836C60.3297 29.9966 60.3297 30.1386 60.3297 30.3515C60.3297 40.0063 60.3297 49.6611 60.3297 59.3159C60.3297 66.4151 60.3297 73.5852 60.3297 80.6843C60.3297 80.7553 60.4006 80.7553 60.4006 80.8263C60.5426 80.8263 60.6135 80.8972 60.7555 80.8972C60.8265 80.8972 60.8974 80.8972 60.9684 80.8972C61.1813 80.8972 61.3942 80.8972 61.6072 80.9682C61.7491 81.1102 61.8201 81.2522 61.962 81.3232C63.0266 81.7491 63.0976 81.7491 62.8137 82.814C62.7427 82.814 62.7427 82.814 62.6717 82.885C62.6008 82.885 62.5298 82.885 62.4588 82.885C62.3879 82.885 62.3879 82.885 62.3169 82.885C62.104 82.885 61.962 82.885 61.7491 82.885C61.3942 82.885 61.1104 82.885 60.7555 82.885C60.5426 82.956 60.1167 82.672 60.2587 83.169C60.2587 85.0857 60.2587 87.0025 60.1877 88.9192C59.9748 88.7773 59.7619 88.5643 59.478 88.3513C59.407 88.9902 59.336 89.5582 59.336 90.1261C59.336 90.1971 59.407 90.4101 59.478 90.4101C59.6199 90.4101 59.8329 90.3391 59.8329 90.2681C59.9038 90.1261 59.9038 89.9131 59.9748 89.7002C60.0458 89.5582 60.1167 89.3452 60.1877 89.2032C60.3297 90.1261 60.3297 90.907 60.3297 91.6879ZM59.7619 74.508C59.6909 74.508 59.6199 74.508 59.549 74.508C59.549 75.076 59.478 75.6439 59.478 76.1408C59.478 76.2828 59.6199 76.3538 59.6909 76.4958C59.7619 76.3538 59.9748 76.2118 59.9748 76.1408C59.9748 75.5729 59.8329 75.005 59.7619 74.508ZM59.7619 37.5217C59.6909 37.5217 59.6199 37.5217 59.6199 37.5217C59.6199 38.3735 59.6199 39.2964 59.6199 40.1483C59.6909 40.1483 59.7619 40.1483 59.8329 40.1483C60.1877 39.2964 59.7619 38.3735 59.7619 37.5217ZM59.7619 71.5264C59.7619 71.5264 59.6909 71.4554 59.6909 71.5264C59.6909 71.5264 59.6909 71.5974 59.6199 71.5974C59.6199 71.5974 59.6909 71.6684 59.6909 71.5974C59.6909 71.5974 59.6909 71.5264 59.7619 71.5264ZM59.6199 71.9524C59.6199 71.9524 59.549 72.0234 59.6199 72.0234C59.6199 72.0234 59.6909 72.0234 59.6909 72.0943C59.6909 72.0943 59.7619 72.0234 59.6909 72.0234C59.6909 71.9524 59.6909 71.9524 59.6199 71.9524ZM59.7619 44.6208C59.7619 44.6208 59.7619 44.5498 59.6909 44.5498H59.6199C59.6199 44.5498 59.6199 44.6208 59.6909 44.6208C59.6909 44.6918 59.6909 44.6208 59.7619 44.6208ZM59.7619 72.3783C59.7619 72.3783 59.6909 72.3783 59.6909 72.3073C59.6909 72.3073 59.6199 72.3783 59.6909 72.3783C59.6909 72.3783 59.7619 72.3783 59.7619 72.4493C59.6909 72.4493 59.6909 72.4493 59.7619 72.3783Z" fill="url(#paint5_linear_63_12773)"/>
<path d="M56.2133 29.3577C56.0713 29.3577 55.9294 29.3577 55.7874 29.4287C55.5035 29.4287 55.2906 29.4287 55.0067 29.4287C54.9358 29.4287 54.9358 29.4287 54.8648 29.4287C53.2324 29.4287 51.6001 29.4287 50.0387 29.4287C46.703 29.4287 43.3673 29.4287 39.9606 29.4287C39.6767 29.0737 39.3928 29.0737 39.1089 29.4287C38.896 29.4287 38.6831 29.4287 38.4702 29.4287C30.5923 29.4287 22.7143 29.4287 14.8364 29.4287C11.5717 29.4287 8.30694 29.4287 5.11319 29.4287C4.8293 29.1447 4.40347 29.1447 4.11958 29.4287C3.90666 29.4287 3.69374 29.4287 3.48083 29.4997C3.12596 29.4997 2.7711 29.4997 2.34527 29.4997C2.34527 29.7126 2.41624 29.9256 2.41624 30.1386C2.41624 30.7775 2.41624 31.4874 2.34527 32.1263C2.06138 32.0554 1.84846 32.0554 1.56457 31.9844C1.4936 31.7714 1.35166 31.6294 1.28068 31.4164C0.996795 31.7714 0.783878 32.0554 0.499988 32.2683C0.499988 30.6355 0.499988 29.0027 0.429016 27.3699C0.429016 27.157 0.429016 26.944 0.429016 26.731C0.429016 26.589 0.429016 26.4471 0.429016 26.3051C0.429016 26.1631 0.429016 26.0211 0.429016 25.8791C0.429016 25.7371 0.429016 25.5952 0.429016 25.4532C0.429016 25.1692 0.429016 24.8852 0.429016 24.6013C0.429016 24.4593 0.429016 24.3883 0.429016 24.2463C0.429016 23.3944 0.429016 22.5425 0.429016 21.6906C0.429016 21.4777 0.429016 21.3357 0.429016 21.1227C0.429016 20.9807 0.429016 20.9097 0.429016 20.7678C0.429016 20.6968 0.429016 20.6258 0.429016 20.5548C0.429016 20.2708 0.499988 20.0579 0.499988 19.7739C0.499988 19.7029 0.499988 19.6319 0.570961 19.5609C0.641933 19.5609 0.712905 19.5609 0.783878 19.5609C0.925822 19.8449 0.996795 20.0579 1.13874 20.3418C1.20971 21.1937 1.20971 22.0456 1.20971 22.8975C1.28068 22.8265 1.35166 22.8265 1.35166 22.7555C1.70652 22.7555 1.99041 22.8265 2.34527 22.8265C2.34527 23.1105 2.34527 23.3234 2.34527 23.6074C2.34527 23.6784 2.34527 23.7494 2.41624 23.8204V23.8914C2.20332 23.8914 1.99041 23.9624 1.77749 23.8914C1.35166 23.8204 1.20971 23.9624 1.20971 24.3883C1.20971 24.7433 1.06777 25.0982 1.06777 25.5242C1.06777 25.8791 1.20971 26.2341 1.28068 26.589C1.56457 26.518 1.84846 26.4471 2.13235 26.3761C2.20332 26.3761 2.2743 26.3051 2.34527 26.3051C2.34527 26.4471 2.34527 26.589 2.41624 26.731C2.41624 26.944 2.41624 27.086 2.34527 27.2989C1.99041 27.015 1.63555 27.157 1.35166 27.5119C1.06777 27.9379 1.35166 28.2928 1.56457 28.5058C2.06138 28.5058 2.48721 28.5058 2.84208 28.5058C3.97763 28.4348 5.11319 28.2928 6.24875 28.2928C17.8882 28.2928 29.5986 28.2928 41.2381 28.2928C45.5674 28.2928 49.9677 28.2928 54.297 28.2928C54.7228 28.2928 55.1487 28.3638 55.5745 28.4348C56.0003 28.5768 56.3552 28.7898 56.2133 29.3577ZM1.70652 28.8608C1.63555 28.9317 1.56457 29.0027 1.56457 29.0027C1.56457 29.0737 1.63555 29.1447 1.70652 29.1447L1.84846 29.0737C1.77749 29.0737 1.70652 29.0027 1.70652 28.8608Z" fill="url(#paint6_linear_63_12773)"/>
<path d="M0.570972 32.2684C0.783889 31.9844 0.996806 31.7715 1.35167 31.4165C1.42264 31.5585 1.49361 31.7715 1.63556 31.9844C1.49361 32.1974 1.2807 32.3394 1.20972 32.5524C1.13875 32.6943 1.20972 32.9073 1.20972 33.1203C1.20972 51.578 1.20972 70.0357 1.20972 88.4934C1.20972 88.8483 1.06778 89.2033 1.06778 89.4873C1.06778 89.8422 1.06778 90.2682 1.13875 90.6231C1.2807 91.617 1.70653 92.6109 1.20972 93.6757C1.13875 93.7467 1.06778 93.8177 0.996806 93.8887C0.925834 93.6757 0.854862 93.4628 0.712917 93.2498C0.712917 93.1788 0.712917 93.1078 0.712917 93.0368C0.641945 92.7529 0.641945 92.5399 0.570972 92.2559C0.570972 91.688 0.5 91.1201 0.5 90.4811C0.5 89.9842 0.5 89.4163 0.5 88.9193C0.5 70.2487 0.5 51.578 0.5 32.9073C0.5 32.5524 0.570972 32.4104 0.570972 32.2684Z" fill="url(#paint7_linear_63_12773)"/>
<path d="M2.91305 93.5338C3.05499 93.8177 3.12597 94.0307 3.26791 94.3147C2.84208 94.1727 2.41624 94.0307 2.06138 93.8177C1.99041 93.8177 2.06138 93.4628 2.13235 93.3918C2.2743 93.2498 2.48721 93.1078 2.70013 92.9658C2.70013 93.1788 2.84208 93.3918 2.91305 93.5338Z" fill="url(#paint8_linear_63_12773)"/>
<path d="M3.55179 97.3672C3.40985 97.2962 3.33887 97.1542 3.19693 97.0833C3.33887 97.1542 3.48082 97.2962 3.55179 97.3672Z" fill="url(#paint9_linear_63_12773)"/>
<path d="M1.42263 93.8177C1.42263 93.8177 1.35165 93.8176 1.35165 93.7467V93.6757C1.35165 93.6757 1.42263 93.6757 1.42263 93.7467V93.8177Z" fill="url(#paint10_linear_63_12773)"/>
<path d="M40.7413 3.09105C41.1671 2.31015 41.6639 1.60024 42.5156 1.17429C43.1544 0.819336 43.8641 0.819336 44.5028 0.819336C44.6448 1.03231 44.7867 1.24528 44.9287 1.31627C45.2126 1.45826 45.5674 1.60024 45.8513 1.67123C45.5674 2.31015 45.6384 2.38114 46.3481 2.38114C46.9159 2.38114 47.4127 2.38114 47.9805 2.38114C62.104 2.38114 76.2984 2.38114 90.4219 2.38114C90.9897 2.38114 91.4865 2.31015 92.0543 2.23916C92.1962 2.23916 92.3382 2.09718 92.4801 1.95519C92.6931 1.81321 92.835 1.52925 93.0479 1.45826C94.4674 1.03231 95.8868 1.31627 97.3062 1.45826C98.5128 1.60024 99.1515 2.16817 99.1515 3.37502C99.1515 3.87196 99.2935 4.43988 100.003 4.51088C100.074 4.51088 100.145 4.65286 100.216 4.72385C99.7193 4.58187 99.1515 4.65286 98.9386 4.01394C98.9386 3.94295 98.7257 3.87196 98.5837 3.87196C98.3708 3.23304 98.0869 2.7361 97.3772 2.66511C96.4546 2.59411 95.6029 2.52312 94.6803 2.52312C79.1373 2.52312 63.5944 2.52312 48.0515 2.52312C46.8449 2.52312 45.6384 2.52312 44.4319 2.52312C43.4383 2.52312 42.8705 2.80709 42.6576 3.72997C42.3737 4.79484 42.3737 5.85971 42.5866 6.85358C42.3737 7.27953 42.4446 7.4925 42.9414 7.5635C43.0834 7.5635 43.2253 7.70548 43.5092 7.91845C42.8705 7.98944 42.7285 8.27341 42.7995 8.69935C42.7285 8.84134 42.6576 8.98332 42.5866 9.1253C42.5156 9.55125 42.5156 9.9062 42.4446 10.3322C42.3027 10.3322 42.0898 10.4031 41.9478 10.4031C42.0898 10.5451 42.1607 10.6871 42.3027 10.7581C42.6576 10.8291 42.9414 10.9711 43.2963 10.9711C43.7931 10.9711 44.2899 10.9001 44.7158 10.9711C45.1416 11.0421 45.7094 11.1131 45.9223 11.468C46.2062 11.894 46.4901 11.9649 46.9159 11.9649C63.3105 11.9649 79.7761 11.9649 96.1707 11.9649C96.4546 11.9649 96.6675 11.894 96.9514 11.823C96.8094 11.61 96.7385 11.468 96.5965 11.184C97.3062 11.1131 97.945 11.0421 98.5128 10.9001C98.4418 11.184 98.3708 11.539 98.2999 11.9649C98.5838 11.894 98.7967 11.752 98.9386 11.752C99.0806 11.752 99.2225 11.823 99.3644 11.894C99.2935 12.0359 99.2225 12.1779 99.1515 12.1779C98.9386 12.2489 98.7257 12.3199 98.5128 12.3199C98.3708 12.3199 98.2289 12.2489 98.0869 12.2489C97.7321 12.2489 97.3062 12.2489 96.9514 12.2489C80.06 12.2489 63.0976 12.2489 46.2062 12.2489C45.0706 12.2489 44.006 12.2489 42.8705 12.2489C42.5156 12.1779 42.5156 12.3909 42.5156 12.6039C42.5156 13.3848 42.5156 14.1657 42.5156 14.9466C42.5156 15.4435 42.5156 16.0114 42.5156 16.5084C42.7285 16.5084 42.9414 16.5794 43.1544 16.5794V16.6504C43.0834 16.7214 42.9414 16.7923 42.8705 16.8633C42.7285 17.4313 42.3737 17.2893 42.0188 17.1473C41.7349 17.0053 41.451 16.7214 41.1671 16.5084C41.1671 15.7985 41.1671 15.0886 41.1671 14.3077C41.1671 14.0947 41.0962 13.8817 41.0252 13.6687C40.9542 13.1718 40.8832 12.6749 40.8832 12.2489C40.8832 11.468 40.8832 10.6871 40.9542 9.97719C40.9542 9.55125 40.9542 9.05431 40.9542 8.62836C40.9542 7.98944 40.9542 7.27953 41.0252 6.64061C41.0252 6.00169 41.0962 5.36277 41.0962 4.72385C41.0252 4.22691 40.8832 3.65898 40.8123 3.16204C40.7413 3.30403 40.7413 3.16204 40.7413 3.09105ZM41.8769 9.19629C41.8059 9.19629 41.7349 9.19629 41.6639 9.19629C41.6639 9.40926 41.6639 9.55125 41.6639 9.76422C41.6639 9.76422 41.8059 9.76422 41.8769 9.76422C41.8769 9.55125 41.8769 9.40926 41.8769 9.19629ZM41.8059 7.5635C41.8059 7.5635 41.8769 7.63449 41.8769 7.5635C41.8769 7.5635 41.8769 7.4925 41.9478 7.4925C41.9478 7.4925 41.8769 7.42151 41.8769 7.4925C41.8769 7.4925 41.8059 7.4925 41.8059 7.5635Z" fill="url(#paint11_linear_63_12773)"/>
<path d="M1.13874 20.3419C0.996791 20.0579 0.925819 19.845 0.783875 19.561C0.783875 19.419 0.783875 19.348 0.783875 19.206C0.996791 18.8511 1.13874 18.4961 1.35165 18.2122L1.42263 18.1412C1.56457 17.9282 1.77749 17.7862 1.91943 17.5732C2.62915 17.0763 3.48082 16.7923 4.40346 16.7923C16.4688 16.7923 28.4631 16.7923 40.5284 16.7923C40.5284 16.6504 40.5284 16.5794 40.5993 16.4374C40.7413 16.5794 40.8832 16.6504 41.0252 16.7923C40.9542 17.0053 40.6703 17.2893 40.7413 17.4313C40.8832 17.9282 40.8123 18.2831 40.4574 18.6381C40.3155 18.6381 40.1735 18.6381 40.0316 18.6381C39.8896 18.4251 39.7477 18.2122 39.6057 18.0702C39.4638 17.9282 39.3218 17.7862 39.1799 17.7862C37.8314 17.7152 36.5539 17.6442 35.2055 17.6442C26.9017 17.6442 18.5979 17.6442 10.2942 17.6442C9.08764 17.6442 7.88111 17.6442 6.67458 17.6442C5.75194 17.6442 5.53902 17.8572 5.25513 18.6381C5.18416 18.6381 5.18416 18.7091 5.11319 18.7091C4.97124 18.7091 4.8293 18.7091 4.68735 18.7091C4.19055 18.7801 3.69374 18.9221 3.26791 18.9931L3.19693 19.064C3.12596 19.064 3.12596 19.135 3.05499 19.135C2.7711 18.9931 2.48721 18.8511 2.13235 18.7801C1.91943 18.7091 1.70651 18.7801 1.56457 18.8511C1.56457 19.0641 1.63554 19.277 1.63554 19.49C1.70651 19.703 1.77749 19.845 1.84846 20.0579C1.56457 20.1999 1.35165 20.2709 1.13874 20.3419Z" fill="url(#paint12_linear_63_12773)"/>
<path d="M40.5994 16.4374C40.5994 16.3664 40.5994 16.2954 40.5284 16.2244V16.1534C40.5284 16.0114 40.5994 15.8694 40.5994 15.7274C40.5994 12.4619 40.5994 9.26725 40.5994 6.00166C40.5994 5.78868 40.5994 5.57571 40.5994 5.36274C40.5994 5.29175 40.5994 5.22076 40.5994 5.14976C40.6703 4.58183 40.6703 4.01391 40.7413 3.51697C40.8832 4.01391 41.0252 4.58183 41.0252 5.07877C41.0962 5.71769 41.0252 6.35661 40.9542 6.99553C40.9542 7.63445 40.8832 8.34437 40.8832 8.98329C40.8832 9.40923 40.8832 9.90617 40.8832 10.3321C40.8832 11.113 40.8123 11.8939 40.8123 12.6038C40.8123 13.1008 40.8832 13.5977 40.9542 14.0237C40.9542 14.2366 41.0962 14.4496 41.0962 14.6626C41.0962 15.3725 41.0962 16.0824 41.0962 16.8633C41.0252 16.8633 40.9542 16.8633 40.8832 16.8633C40.8832 16.6503 40.7413 16.5793 40.5994 16.4374Z" fill="url(#paint13_linear_63_12773)"/>
<path d="M40.6703 15.6565C40.6703 15.7985 40.5994 15.9405 40.5994 16.0824C40.5994 16.0115 40.6703 15.7985 40.6703 15.6565Z" fill="url(#paint14_linear_63_12773)"/>
<path d="M0.78387 19.2061C0.78387 19.348 0.78387 19.419 0.78387 19.561C0.712898 19.561 0.641926 19.561 0.570953 19.561C0.712898 19.419 0.712898 19.348 0.78387 19.2061Z" fill="url(#paint15_linear_63_12773)"/>
<path d="M99.2935 1.67119C99.3644 1.74218 99.4354 1.81317 99.5064 1.88416C99.7903 2.52308 100.145 3.23299 100.429 3.87191C100.429 4.22687 100.429 4.58182 100.5 5.00777C100.429 5.00777 100.287 5.00777 100.216 5.00777C100.216 4.93678 100.216 4.93678 100.216 4.86579C100.145 4.7948 100.074 4.65281 100.003 4.65281C99.2935 4.58182 99.1515 4.01389 99.1515 3.51696C99.0805 2.31011 98.4418 1.74218 97.3062 1.6002C95.8868 1.45821 94.4673 1.17425 93.0479 1.6002C92.835 1.67119 92.693 1.95515 92.4801 2.09713C92.3382 2.16812 92.1962 2.31011 92.0543 2.3811C91.4865 2.45209 90.9897 2.52308 90.4219 2.52308C76.2984 2.52308 62.104 2.52308 47.9805 2.52308C47.4127 2.52308 46.9159 2.52308 46.3481 2.52308C45.6384 2.52308 45.5674 2.45209 45.8513 1.81317C45.5674 1.6002 45.2125 1.45821 44.9996 1.31623C44.7867 1.17425 44.7157 0.961275 44.5738 0.819292C44.9996 0.819292 45.4255 0.819292 45.8513 0.819292C62.8137 0.819292 79.7761 0.819292 96.7385 0.819292C97.803 0.748301 98.5128 1.17425 99.2935 1.67119Z" fill="url(#paint16_linear_63_12773)"/>
<path d="M100.429 76.0699C100.287 76.6378 100.216 77.2768 100.074 77.8447C99.7193 77.4188 99.4354 76.9928 99.0805 76.5669C99.0805 76.4959 99.0805 76.4249 99.0805 76.3539C99.5774 75.644 99.0806 75.0051 98.7967 74.3661C98.7257 74.2951 98.5837 74.2242 98.5128 74.1532C98.5128 73.9402 98.5128 73.7982 98.5128 73.5852C98.7967 73.9402 99.0096 74.2242 99.2935 74.5791C99.3644 74.6501 99.5064 74.7211 99.6483 74.7921C99.6483 74.6501 99.7193 74.5791 99.7193 74.4371C99.7193 74.0822 99.6483 73.6562 99.6483 73.3013C99.6483 72.8043 99.7903 72.3784 99.7903 71.8814C99.7903 61.0908 99.7903 50.3001 99.7903 39.5095C99.7903 31.9134 99.7903 24.3884 99.7903 16.7923C99.7903 16.0114 99.7193 15.1595 99.6483 14.3786L99.5774 14.3076C99.5064 14.1656 99.4354 14.0946 99.2935 13.8817C99.1515 14.3076 99.0806 14.5916 99.0096 14.8755C98.9386 15.0885 98.7257 15.2305 98.5837 15.3725C98.5128 15.1595 98.5128 14.9465 98.4418 14.7336C98.4418 14.2366 98.4418 13.8107 98.4418 13.3137C98.4418 13.1008 98.4418 12.8878 98.4418 12.6748C98.6547 12.6038 98.8676 12.6038 99.0805 12.5328C99.1515 12.4618 99.2225 12.3199 99.2935 12.2489C99.1515 12.1779 99.0096 12.1069 98.8676 12.1069C98.6547 12.1069 98.5128 12.2489 98.2289 12.3199C98.2999 11.8939 98.3708 11.61 98.4418 11.255C98.5128 11.113 98.5837 11.042 98.6547 10.9C98.7257 10.829 98.7967 10.829 98.8676 10.7581C98.7967 10.6871 98.6547 10.6161 98.5837 10.6161H98.5128C98.5128 10.1901 98.5128 9.83517 98.5128 9.40923C98.5128 9.26724 98.5128 9.12526 98.5128 8.98328C98.5837 8.91229 98.7967 8.8413 98.7967 8.77031C98.7967 8.34436 98.7967 7.9894 98.7257 7.56346C98.6547 7.42147 98.5837 7.27949 98.5128 7.2085C98.5128 6.99553 98.5837 6.78255 98.5837 6.56958C98.8676 6.56958 99.0096 6.64057 99.0096 6.99553C98.9386 7.91841 99.5064 8.48634 100.429 8.48634C100.429 10.4031 100.5 12.3909 100.5 14.3076C100.5 33.6882 100.5 53.1398 100.5 72.5204C100.5 73.5852 100.429 74.8631 100.429 76.0699ZM99.4354 13.4557C99.5064 13.3847 99.5064 13.3847 99.5064 13.3137C99.5064 13.2427 99.4354 13.2427 99.4354 13.1718C99.3644 13.2427 99.3644 13.2427 99.2935 13.3137C99.2935 13.3137 99.3644 13.3847 99.4354 13.4557Z" fill="url(#paint17_linear_63_12773)"/>
<path d="M100.429 8.27333C99.5064 8.27333 98.9386 7.7054 99.0096 6.78252C99.0096 6.42756 98.8676 6.35657 98.5838 6.35657C98.5838 5.57567 98.5128 4.72377 98.5128 3.94287C98.6547 4.01386 98.8676 4.01386 98.8676 4.08485C99.0806 4.72377 99.6483 4.72377 100.145 4.79476C100.145 4.86576 100.145 4.86576 100.145 4.93675C100.216 5.78864 99.5774 6.56954 100.145 7.42144C100.145 7.49243 100.145 7.56342 100.145 7.63441C100.216 7.7054 100.287 7.77639 100.358 7.77639C100.429 7.98937 100.429 8.13135 100.429 8.27333Z" fill="url(#paint18_linear_63_12773)"/>
<path d="M100.429 7.84746C100.358 7.77647 100.216 7.77647 100.216 7.70548C100.145 7.63449 100.216 7.56349 100.216 7.4925C99.6483 6.64061 100.287 5.78872 100.216 5.00781C100.287 5.00781 100.429 5.00781 100.5 5.00781C100.5 5.50475 100.5 5.9307 100.5 6.42764C100.216 6.56962 100.216 6.64061 100.5 6.78259C100.5 7.13755 100.429 7.4925 100.429 7.84746Z" fill="url(#paint19_linear_63_12773)"/>
<path d="M100.5 6.78257C100.216 6.64059 100.216 6.56959 100.5 6.42761C100.5 6.4986 100.5 6.64059 100.5 6.78257Z" fill="url(#paint20_linear_63_12773)"/>
<path d="M62.8847 82.8851C63.0976 81.8912 63.0976 81.8912 62.033 81.3943C61.891 81.3233 61.8201 81.1813 61.6781 81.0393C61.8201 81.0393 61.962 81.0393 62.033 81.0393C71.6143 81.0393 81.1955 81.0393 90.7058 81.0393C90.8478 81.0393 90.9897 81.0393 91.0607 81.0393C90.7768 81.3943 90.5639 81.6782 90.209 82.1042C90.351 82.3171 90.9897 82.3171 90.7058 82.8851C89.4993 82.8851 88.2928 82.8851 87.1572 82.8851C80.06 82.8851 72.9627 82.8851 65.8655 82.8851C65.6526 82.8851 65.4397 82.8851 65.2267 82.8851C64.9429 82.8851 64.7299 82.8851 64.4461 82.8851C63.9492 82.8851 63.5234 82.8851 63.0266 82.8851C63.0266 82.9561 62.9556 82.9561 62.8847 82.8851Z" fill="url(#paint21_linear_63_12773)"/>
<path d="M96.6675 81.9621C96.3126 82.1041 96.0288 82.2461 95.6739 82.3881C95.39 82.0331 95.7449 81.9621 95.9578 81.8911C96.1707 81.8202 96.3836 81.7492 96.5965 81.6072C96.5965 81.6782 96.5965 81.8202 96.6675 81.9621Z" fill="url(#paint22_linear_63_12773)"/>
<path d="M97.2353 79.1936C97.3063 79.1226 97.3772 79.0516 97.4482 78.9806C97.5192 79.0516 97.5902 79.1226 97.5902 79.1936C97.4482 79.1226 97.3063 79.1936 97.2353 79.1936Z" fill="url(#paint23_linear_63_12773)"/>
<path d="M97.945 78.1286C97.945 78.0576 98.016 77.9866 98.016 77.9156C98.0869 77.9866 98.1579 78.0576 98.2289 78.1286C98.1579 78.1286 98.016 78.1286 97.945 78.1286Z" fill="url(#paint24_linear_63_12773)"/>
<path d="M56.2133 29.3578C56.3552 28.7899 56.0004 28.5769 55.5745 28.5059C55.1487 28.4349 54.7229 28.3639 54.297 28.3639C49.9677 28.3639 45.5674 28.3639 41.2381 28.3639C29.5987 28.3639 17.8882 28.3639 6.24876 28.3639C5.1132 28.3639 3.97764 28.5059 2.84209 28.5769C2.41625 28.5769 2.06139 28.5769 1.56459 28.5769C1.35167 28.3639 1.06778 28.009 1.35167 27.583C1.56459 27.2281 1.91945 27.0861 2.34528 27.37C2.77112 27.441 3.12598 27.512 3.55181 27.512C20.6561 27.512 37.7605 27.512 54.8648 27.512C55.2906 27.512 55.7874 27.512 56.2133 27.512C56.5681 27.512 56.923 27.512 57.3488 27.512C57.6327 27.512 57.9166 27.512 58.2005 27.512C58.2715 27.512 58.3424 27.512 58.4134 27.512C58.5554 27.441 58.7683 27.441 58.9102 27.299C59.1941 27.0151 58.9102 25.8082 58.5554 25.5953C58.2715 25.4533 58.1295 25.5243 58.1295 25.8082C58.0586 25.8082 58.0586 25.8082 57.9876 25.8792C57.4198 25.8792 56.852 25.8792 56.3552 25.8082C56.4972 25.2403 56.2842 24.6724 55.7874 24.6014C54.6519 24.5304 53.5873 24.3884 52.4517 24.3884C47.2708 24.3884 42.0898 24.3884 36.9088 24.3884C26.3339 24.3884 15.83 24.3884 5.25515 24.3884C4.90028 24.3884 4.54542 24.3174 4.19056 24.3174C3.62278 24.2464 3.12598 24.3884 2.77112 24.9563C2.62917 25.1693 2.48723 25.3113 2.34528 25.4533C1.99042 25.7372 2.13236 25.8082 2.48723 25.8792C2.41625 26.0922 2.41625 26.2342 2.34528 26.4472C2.27431 26.4472 2.20334 26.5181 2.13236 26.5181C1.84848 26.5891 1.56459 26.6601 1.2807 26.7311C1.20972 26.3052 1.06778 25.9502 1.06778 25.5953C1.06778 25.2403 1.20972 24.8854 1.20972 24.4594C1.20972 24.0335 1.42264 23.8915 1.7775 23.9625C1.99042 23.9625 2.20334 23.9625 2.41625 23.9625C2.48723 23.9625 2.48723 23.9625 2.5582 23.9625C3.26792 23.9625 3.97764 23.9625 4.6164 23.9625C4.90029 23.9625 5.1132 23.9625 5.39709 23.9625C21.2239 23.9625 36.9798 23.9625 52.8066 23.9625C53.3744 23.9625 53.8712 23.9625 54.439 23.9625C55.7874 23.9625 57.0649 23.9625 58.4134 23.9625C59.1231 23.8915 59.1231 23.8915 58.9812 23.1816C58.9102 22.7556 58.9102 22.3297 58.8392 21.9037C58.7683 21.5488 58.6263 21.2648 58.4844 20.9808C58.4844 20.8389 58.4134 20.7679 58.4134 20.6259C58.3424 19.561 57.9876 19.0641 57.0649 18.7801C56.781 18.7801 56.5681 18.7801 56.2842 18.7801C56.0713 18.7801 55.8584 18.7801 55.6455 18.7801C55.5035 18.7801 55.3616 18.7801 55.2197 18.7091C55.0777 18.6381 55.0067 18.4252 54.8648 18.4252C54.5809 18.3542 54.297 18.2832 54.0131 18.2122C54.226 18.2122 54.439 18.2122 54.6519 18.1412C54.7938 18.1412 55.0067 18.1412 55.1487 18.0702C55.5035 17.7152 56.0004 17.2893 55.3616 16.7924C56.0004 16.7924 56.6391 16.7924 57.2069 16.8633C57.3488 16.9343 57.4198 16.9343 57.5617 17.0053C57.7747 17.0053 57.9166 17.0763 58.1295 17.0763C58.2005 17.0763 58.3424 17.0763 58.4134 17.0763C58.5554 17.2183 58.6973 17.3603 58.8392 17.5023C58.9812 17.6443 59.1231 17.7152 59.2651 17.8572C59.478 18.1412 59.6199 18.3542 59.8329 18.6381C59.9748 19.2061 60.2587 19.845 60.2587 20.4129C60.3297 23.6075 60.2587 26.7311 60.2587 29.9257C60.1167 29.8547 59.9038 29.8547 59.9038 29.7837C59.6909 29.1448 59.3361 29.4288 58.9812 29.7127C58.9102 29.7837 58.8392 29.7837 58.8392 29.8547C58.6973 29.8547 58.5554 29.8547 58.4134 29.8547C58.4134 29.5708 58.3424 29.4288 57.9876 29.4288C57.4198 29.4288 56.852 29.3578 56.2133 29.3578Z" fill="url(#paint25_linear_63_12773)"/>
<path d="M58.4844 29.7837C58.6263 29.7837 58.7683 29.7837 58.9102 29.7837C59.0521 30.1386 59.1941 30.4226 59.1941 30.7776C59.1941 32.6943 59.1231 34.6111 59.1231 36.5279C59.1231 37.4507 59.1941 38.3736 59.1941 39.2965C59.1941 39.7225 59.0521 40.0774 59.0521 40.5034C59.0521 40.6453 59.0521 40.8583 59.0521 41.0003C59.0521 41.2843 59.1231 41.6392 59.1231 41.9232C59.1231 52.5718 59.1231 63.2915 59.1231 73.9402C59.1231 74.6501 59.1941 75.36 59.1941 76.0699C59.1941 76.4249 58.9812 76.8508 58.9812 77.2058C58.9102 77.7027 58.8392 78.1287 58.7683 78.6256C58.7683 78.8386 58.8392 79.1225 58.4844 79.1225C58.4844 77.7737 58.4844 76.4249 58.4844 75.076C58.4844 61.2328 58.4844 47.3895 58.4844 33.6172C58.4844 32.5523 58.4844 31.4165 58.4844 30.3516C58.4134 30.1386 58.4844 29.9257 58.4844 29.7837Z" fill="url(#paint26_linear_63_12773)"/>
<path d="M58.4844 90.9071C58.4844 88.0674 58.4844 85.2278 58.4134 82.3881C58.4134 81.3942 58.4134 80.4004 58.4134 79.4065C58.4844 79.4775 58.6973 79.5485 58.6973 79.6195C58.7683 80.4004 58.8392 81.1103 58.9102 81.8912C58.9102 82.5301 58.9102 83.24 58.9102 83.8789C58.9102 84.8728 58.9812 85.7957 59.0521 86.7896C59.0521 87.9254 59.0521 88.9903 59.0521 90.1262C59.1231 90.5521 58.9102 90.8361 58.4844 90.9071Z" fill="url(#paint27_linear_63_12773)"/>
<path d="M60.3297 88.9903C60.3297 89.1323 60.3297 89.2033 60.3297 89.3453C60.2587 89.4873 60.1877 89.6293 60.1167 89.8422C60.0458 90.0552 60.0458 90.2682 59.9748 90.4102C59.9038 90.4812 59.6909 90.5522 59.6199 90.5522C59.549 90.5522 59.478 90.3392 59.478 90.2682C59.478 89.7003 59.549 89.1323 59.6199 88.4934C59.9038 88.6354 60.1168 88.8484 60.3297 88.9903Z" fill="url(#paint28_linear_63_12773)"/>
<path d="M59.7619 74.5081C59.8329 75.076 59.9038 75.6439 59.9748 76.1408C59.9748 76.2828 59.7619 76.3538 59.6909 76.4958C59.6199 76.3538 59.478 76.2828 59.478 76.1408C59.478 75.5729 59.549 75.005 59.549 74.5081C59.6199 74.5081 59.6909 74.5081 59.7619 74.5081Z" fill="url(#paint29_linear_63_12773)"/>
<path d="M59.7619 37.5217C59.7619 38.3736 60.1877 39.2965 59.7619 40.1484C59.6909 40.1484 59.6199 40.1484 59.549 40.1484C59.549 39.2965 59.549 38.3736 59.549 37.5217C59.6199 37.5217 59.6909 37.5217 59.7619 37.5217Z" fill="url(#paint30_linear_63_12773)"/>
<path d="M59.7619 71.5264C59.7619 71.5264 59.7619 71.5974 59.6909 71.5974H59.6199C59.6199 71.5974 59.6199 71.5264 59.6909 71.5264C59.6909 71.4554 59.6909 71.5264 59.7619 71.5264Z" fill="url(#paint31_linear_63_12773)"/>
<path d="M59.6199 71.9524C59.6199 71.9524 59.6909 71.9524 59.6909 72.0234V72.0944C59.6909 72.0944 59.6199 72.0944 59.6199 72.0234V71.9524Z" fill="url(#paint32_linear_63_12773)"/>
<path d="M59.7619 44.6209C59.7619 44.6209 59.6909 44.6918 59.6909 44.6209C59.6909 44.6209 59.6909 44.5499 59.6199 44.5499C59.6199 44.5499 59.6909 44.4789 59.6909 44.5499C59.6909 44.5499 59.6909 44.6209 59.7619 44.6209Z" fill="url(#paint33_linear_63_12773)"/>
<path d="M59.7619 72.3784C59.7619 72.3784 59.7619 72.4494 59.6909 72.4494C59.6909 72.4494 59.6199 72.4494 59.6199 72.3784V72.3074C59.6909 72.3784 59.6909 72.3784 59.7619 72.3784Z" fill="url(#paint34_linear_63_12773)"/>
<path d="M60.4716 80.8263C60.4716 80.8973 60.4716 80.8973 60.4716 80.9683C60.4716 80.8973 60.4006 80.8973 60.4006 80.8263C60.4006 80.8263 60.4006 80.8263 60.4716 80.8263Z" fill="url(#paint35_linear_63_12773)"/>
<path d="M2.91304 19.206C2.55818 19.632 2.41623 20.1289 2.41623 20.6968C2.41623 21.4068 2.41623 22.1877 2.34526 22.8976C1.9904 22.8976 1.70651 22.8266 1.35165 22.8266C1.28068 22.8976 1.20971 22.8976 1.20971 22.9686C1.20971 22.0457 1.20971 21.1938 1.13873 20.3419C1.35165 20.2709 1.56457 20.1999 1.70651 20.1289C1.63554 19.9159 1.56457 19.774 1.49359 19.561C1.42262 19.348 1.42262 19.135 1.42262 18.9221C1.63554 18.9221 1.84846 18.8511 1.9904 18.8511C2.34526 18.9221 2.62915 19.064 2.91304 19.206Z" fill="url(#paint36_linear_63_12773)"/>
<path d="M5.11318 29.3577C4.75832 29.3577 4.47443 29.3577 4.11957 29.3577C4.40346 29.0738 4.82929 29.0738 5.11318 29.3577Z" fill="url(#paint37_linear_63_12773)"/>
<path d="M40.0316 29.3578C39.7477 29.3578 39.4638 29.3578 39.1799 29.3578C39.3928 29.0028 39.7477 29.0028 40.0316 29.3578Z" fill="url(#paint38_linear_63_12773)"/>
<path d="M1.70651 28.8608C1.77748 28.9318 1.84845 29.0028 1.77748 29.0738C1.77748 29.1448 1.70651 29.2158 1.63554 29.1448C1.56456 29.1448 1.49359 29.0738 1.49359 29.0028C1.49359 29.0028 1.63554 29.0028 1.70651 28.8608Z" fill="url(#paint39_linear_63_12773)"/>
<path d="M55.0067 29.4287C55.0067 29.4997 54.9357 29.4997 54.9357 29.5707C54.9357 29.4997 54.8648 29.4997 54.8648 29.4287C54.9357 29.4287 55.0067 29.4287 55.0067 29.4287Z" fill="url(#paint40_linear_63_12773)"/>
<path d="M2.48721 23.8914C2.55819 23.8914 2.55819 23.8914 2.62916 23.8914V23.9624C2.55819 23.9624 2.55819 23.9624 2.48721 23.9624V23.8914Z" fill="url(#paint41_linear_63_12773)"/>
<path d="M98.7257 10.8291C98.6547 10.971 98.5837 11.042 98.5128 11.184C97.874 11.255 97.3062 11.326 96.5965 11.468C96.7384 11.681 96.8094 11.8229 96.9514 12.1069C96.6675 12.1779 96.3836 12.2489 96.1707 12.2489C79.7761 12.2489 63.3105 12.2489 46.9159 12.2489C46.49 12.2489 46.2062 12.1069 45.9223 11.7519C45.7093 11.468 45.1416 11.326 44.7157 11.255C44.2189 11.184 43.7931 11.255 43.2963 11.255C42.9414 11.255 42.5866 11.184 42.3027 11.042C42.1607 10.971 42.0898 10.8291 41.9478 10.6871C42.0898 10.6871 42.3027 10.6161 42.4446 10.6161C42.5866 10.6871 42.7285 10.6871 42.8705 10.7581C43.0834 10.7581 43.2253 10.7581 43.4382 10.7581C43.8641 10.7581 44.2189 10.7581 44.6448 10.7581C44.8577 10.7581 45.0706 10.7581 45.2835 10.7581C45.4964 10.7581 45.7093 10.7581 45.9223 10.7581C46.0642 10.7581 46.2771 10.7581 46.4191 10.7581C63.3815 10.7581 80.3438 10.7581 97.2353 10.7581C97.6611 10.7581 98.0159 10.7581 98.4418 10.7581H98.5128H98.5837C98.6547 10.6871 98.7257 10.7581 98.7257 10.8291Z" fill="url(#paint42_linear_63_12773)"/>
<path d="M95.1061 6.99548C95.9578 6.99548 96.8094 7.06647 97.6611 7.06647C97.803 7.20846 97.945 7.35044 98.1579 7.6344C97.874 7.70539 97.7321 7.77639 97.5192 7.70539C95.6029 7.70539 93.6867 7.56341 91.7704 7.6344C76.0146 7.77639 60.2587 7.35044 44.5738 7.84738C44.4319 7.84738 44.2189 7.84738 44.148 7.84738C44.148 8.20233 44.148 8.41531 44.077 8.69927C43.7931 8.62828 43.4383 8.27332 43.3673 8.84125C43.1544 8.84125 43.0124 8.84125 42.7995 8.84125C42.7285 8.41531 42.8705 8.13134 43.5092 8.06035C43.2253 7.84738 43.0834 7.70539 42.9414 7.70539C42.4446 7.6344 42.3027 7.42143 42.5866 6.99548C42.9414 6.99548 43.2253 6.99548 43.5802 6.99548C44.3609 6.99548 45.1416 7.06647 45.9223 7.06647C61.3942 7.06647 76.7952 7.06647 92.2672 7.06647C93.1899 7.06647 94.1835 6.99548 95.1061 6.99548Z" fill="url(#paint43_linear_63_12773)"/>
<path d="M44.2899 16.8633C44.3609 16.8633 44.4318 16.7924 44.5028 16.7924C48.1224 16.7924 51.742 16.7924 55.3616 16.7924C56.0003 17.2893 55.5745 17.7152 55.1487 18.0702C55.0777 18.1412 54.8648 18.1412 54.6519 18.1412C54.4389 18.1412 54.226 18.2122 54.0131 18.2122C53.8002 18.2122 53.6582 18.2122 53.4453 18.2122C53.3034 18.1412 53.1614 18.1412 53.0195 18.1412C51.4581 18.1412 49.8967 18.1412 48.3353 18.1412C48.1934 18.1412 48.0514 18.2122 47.9095 18.2122C47.7675 18.2122 47.6256 18.2122 47.4837 18.2122C46.9868 18.2122 46.49 18.1412 46.0642 18.1412C45.9932 18.1412 45.9223 18.2832 45.8513 18.3542C45.7803 18.3542 45.7093 18.3542 45.6384 18.3542C44.5738 18.1412 43.5802 18.0702 42.5156 18.3542C42.3027 18.4252 42.0898 18.5671 41.8768 18.7091C41.38 18.7091 40.9542 18.7091 40.4574 18.7091C40.8123 18.3542 40.8123 17.9992 40.7413 17.5023C40.6703 17.2893 40.9542 17.0763 41.0252 16.8633C41.0961 16.8633 41.1671 16.8633 41.2381 16.8633C41.522 17.0763 41.8059 17.3603 42.0898 17.5023C42.4446 17.6443 42.7995 17.7862 42.9414 17.2183C42.9414 17.1473 43.0834 17.0763 43.2253 17.0053C43.5092 17.2183 44.077 17.2183 44.2899 16.8633Z" fill="url(#paint44_linear_63_12773)"/>
<path d="M44.2899 16.8633C44.077 17.2182 43.5092 17.2182 43.1544 16.9343V16.8633C43.5802 16.8633 43.9351 16.8633 44.2899 16.8633Z" fill="url(#paint45_linear_63_12773)"/>
<path d="M41.8769 9.19629C41.8769 9.40926 41.8769 9.55124 41.8769 9.76422C41.8059 9.76422 41.6639 9.76422 41.6639 9.76422C41.6639 9.55124 41.6639 9.40926 41.6639 9.19629C41.7349 9.19629 41.8059 9.19629 41.8769 9.19629Z" fill="url(#paint46_linear_63_12773)"/>
<path d="M41.8059 7.56342C41.8059 7.56342 41.8059 7.49243 41.8768 7.49243H41.9478C41.9478 7.49243 41.9478 7.56342 41.8768 7.56342C41.8768 7.56342 41.8769 7.56342 41.8059 7.56342Z" fill="url(#paint47_linear_63_12773)"/>
<path d="M5.11319 18.638C5.39708 17.8571 5.61 17.6442 6.53264 17.6442C7.73917 17.6442 8.9457 17.6442 10.1522 17.6442C18.456 17.6442 26.7597 17.6442 35.0635 17.6442C36.412 17.6442 37.7605 17.7152 39.038 17.7861C39.1799 17.7861 39.3928 17.9281 39.4638 18.0701C39.6057 18.2121 39.7477 18.4961 39.8896 18.638C39.6767 18.638 39.5348 18.638 39.3218 18.638C28.3921 18.638 17.3914 18.638 6.46166 18.638C6.1068 18.709 5.61 18.638 5.11319 18.638Z" fill="url(#paint48_linear_63_12773)"/>
<path d="M98.5128 8.84131C97.0224 8.84131 95.5319 8.9123 94.0415 8.9123C78.2147 8.9123 62.3879 8.9123 46.561 8.9123C45.4964 8.9123 44.4319 8.9123 43.3673 8.84131C43.5092 8.27338 43.7931 8.55734 44.077 8.69932C44.077 8.48635 44.077 8.20239 44.148 7.84743C44.2189 7.84743 44.4319 7.84743 44.5738 7.84743C60.2587 7.35049 76.0145 7.77644 91.7704 7.63446C93.6867 7.63446 95.6029 7.70545 97.5192 7.70545C97.7321 7.70545 97.945 7.63446 98.1579 7.63446C97.945 7.42148 97.803 7.20851 97.6611 7.06653C97.874 7.06653 98.016 7.06653 98.2289 7.06653C98.2289 7.42148 98.5128 7.42148 98.7967 7.42148C98.7967 7.84743 98.8676 8.20239 98.8676 8.62833C98.7967 8.69933 98.5838 8.77032 98.5128 8.84131Z" fill="url(#paint49_linear_63_12773)"/>
<path d="M98.5128 73.6562C98.5128 73.3722 98.5838 73.1593 98.5838 72.8753C98.5838 54.2046 98.5838 35.463 98.5838 16.7923C98.5838 16.5083 98.5838 16.2244 98.5838 15.9404C98.7967 15.7984 99.0096 15.6564 99.1515 15.4435C99.3645 15.1595 99.4354 14.7335 99.5774 14.4496L99.6483 14.5206C99.7193 15.3015 99.7903 16.1534 99.7903 16.9343C99.7903 24.5303 99.7903 32.0554 99.7903 39.6514C99.7903 50.4421 99.7903 61.2328 99.7903 72.0234C99.7903 72.5204 99.6483 72.9463 99.6483 73.4432C99.6483 73.7982 99.7193 74.2241 99.7193 74.5791C99.7193 74.7211 99.6483 74.7921 99.6483 74.934C99.5064 74.8631 99.4354 74.7921 99.2935 74.7211C99.0806 74.2951 98.7967 74.0112 98.5128 73.6562Z" fill="url(#paint50_linear_63_12773)"/>
<path d="M99.6483 14.3786C99.5064 14.7336 99.3644 15.0885 99.2225 15.3725C99.0806 15.5854 98.8676 15.7274 98.6547 15.8694C98.6547 15.6564 98.6547 15.5145 98.6547 15.3015C98.7967 15.1595 99.0096 15.0175 99.0806 14.8045C99.2225 14.5916 99.2935 14.2366 99.3644 13.8107C99.5064 14.1656 99.5774 14.2366 99.6483 14.3786Z" fill="url(#paint51_linear_63_12773)"/>
<path d="M98.7257 7.42143C98.4418 7.42143 98.2289 7.42143 98.1579 7.06647C98.2998 7.06647 98.3708 7.06647 98.5128 6.99548C98.5837 7.13747 98.6547 7.27945 98.7257 7.42143Z" fill="url(#paint52_linear_63_12773)"/>
<path d="M98.7257 10.829C98.6547 10.758 98.6547 10.687 98.5837 10.616V10.545C98.6547 10.616 98.7967 10.687 98.8676 10.687C98.8676 10.687 98.7967 10.758 98.7257 10.829Z" fill="url(#paint53_linear_63_12773)"/>
<path d="M99.4354 13.4557C99.3644 13.3847 99.3644 13.3137 99.3644 13.3137C99.3644 13.2427 99.4354 13.2427 99.5064 13.1718C99.5064 13.2427 99.5774 13.2427 99.5774 13.3137C99.5064 13.3847 99.4354 13.3847 99.4354 13.4557Z" fill="url(#paint54_linear_63_12773)"/>
<path d="M98.5837 10.4741V10.5451H98.5128H98.4418V10.4741C98.5837 10.4741 98.5837 10.4741 98.5837 10.4741Z" fill="url(#paint55_linear_63_12773)"/>
<path d="M39.3928 44.4079C40.9542 42.8461 42.5156 41.2843 44.077 39.7225C44.2899 39.5095 44.5738 39.2256 44.8577 39.0126C45.0706 38.9416 45.2126 38.8706 45.4255 38.8706C45.5674 38.9416 45.7094 38.9416 45.8513 39.0126C46.1352 39.3675 46.4191 39.7225 46.2771 40.2194C46.0642 40.5034 45.7803 40.7874 45.5674 41.0003C44.5738 41.9942 43.5802 42.9881 42.6576 43.982C42.2317 44.4079 41.8769 44.7629 41.451 45.1888C41.1671 45.4018 40.9542 45.6858 40.6703 45.8987C40.0316 46.5376 39.3928 47.1056 38.7541 47.7445C38.3992 48.1704 38.1153 48.5254 37.7605 48.9513C37.4056 49.2353 37.1217 49.5903 36.7669 49.8742C36.27 50.3712 35.7732 50.7971 35.3474 51.2941C34.8506 51.791 34.2828 52.3589 33.786 52.8559C33.5731 53.0688 33.2892 53.1398 33.0763 53.3528C32.5795 53.4238 32.2246 53.2108 32.0117 52.8559C31.7988 52.4299 32.0117 52.004 32.3666 51.72C33.2892 50.7261 34.2118 49.8032 35.2055 48.8804C35.3474 48.7384 35.5603 48.5254 35.7023 48.3834C36.9088 46.9636 38.1153 45.6858 39.3928 44.4079Z" fill="url(#paint56_linear_63_12773)"/>
<path d="M56.3552 25.8081C56.1423 25.8081 55.9294 25.8081 55.7165 25.8081C38.3282 25.8081 20.8691 25.8081 3.48083 25.8081C3.19694 25.8081 2.84208 25.8081 2.55819 25.8081C2.2743 25.7372 2.13236 25.6662 2.41625 25.3822C2.55819 25.2402 2.77111 25.0982 2.84208 24.8853C3.19694 24.3173 3.69375 24.2463 4.26153 24.2463C4.61639 24.2463 4.97125 24.3173 5.32611 24.3173C15.901 24.3173 26.4049 24.3173 36.9798 24.3173C42.1608 24.3173 47.3417 24.3173 52.5227 24.3173C53.6583 24.3173 54.7229 24.4593 55.8584 24.5303C56.2842 24.6723 56.4972 25.2402 56.3552 25.8081Z" fill="url(#paint57_linear_63_12773)"/>
<path d="M55.2196 18.7801C52.5227 18.7801 49.8258 18.7091 47.0578 18.7091C45.7094 18.7091 44.2899 18.7091 42.9414 18.7091C43.1544 18.6381 43.2963 18.4961 43.5092 18.4961C44.2189 18.4251 44.9287 18.4251 45.6384 18.3541C45.7094 18.3541 45.7803 18.3541 45.8513 18.3541C46.4191 18.2831 46.9869 18.2831 47.4837 18.2122C47.6256 18.2122 47.7676 18.2122 47.9095 18.2122C48.0514 18.2831 48.1934 18.2831 48.3353 18.2831C49.8967 18.2831 51.4581 18.2831 53.0195 18.2831C53.1615 18.2831 53.3034 18.2122 53.4453 18.2122C53.6583 18.2122 53.8002 18.2122 54.0131 18.2122C54.297 18.2831 54.5809 18.3541 54.8648 18.4251C55.0067 18.4961 55.1487 18.6381 55.2196 18.7801Z" fill="url(#paint58_linear_63_12773)"/>
<path d="M58.4134 23.9625C58.4134 23.8205 58.4134 23.6785 58.4134 23.5365C58.4134 23.1106 58.4134 22.7556 58.4134 22.3297C58.4134 22.1877 58.4134 22.0457 58.4134 21.9037C58.4134 21.7617 58.4134 21.6907 58.4134 21.5488C58.4134 21.3358 58.4844 21.1938 58.4844 20.9808C58.6263 21.2648 58.7683 21.6198 58.8392 21.9037C58.9102 22.3297 58.8392 22.7556 58.9812 23.1816C59.1231 23.8205 59.1231 23.8915 58.4134 23.9625Z" fill="url(#paint59_linear_63_12773)"/>
<path d="M58.4134 27.157C58.4134 26.802 58.4844 26.4471 58.4134 26.0921C58.4134 25.9501 58.2005 25.8791 58.1295 25.8081C58.2005 25.5242 58.3424 25.4532 58.5554 25.5952C58.9102 25.8081 59.1941 27.015 58.9102 27.2989C58.8392 27.4409 58.6263 27.4409 58.4134 27.5119C58.4844 27.3699 58.4134 27.2989 58.4134 27.157Z" fill="url(#paint60_linear_63_12773)"/>
<path d="M45.2835 10.5451C45.4964 10.2612 45.7093 10.2612 45.9223 10.5451C45.7803 10.5451 45.5674 10.5451 45.2835 10.5451Z" fill="url(#paint61_linear_63_12773)"/>
<path d="M42.8705 10.4741C43.0834 10.5451 43.2253 10.5451 43.4382 10.6161C43.2253 10.6161 43.0834 10.6161 42.8705 10.6161C42.8705 10.5451 42.8705 10.5451 42.8705 10.4741Z" fill="url(#paint62_linear_63_12773)"/>
<path d="M53.5163 18.2121C53.3744 18.2831 53.2324 18.2831 53.0905 18.2831C51.5291 18.2831 49.9677 18.2831 48.4063 18.2831C48.2644 18.2831 48.1224 18.2121 47.9805 18.2121C48.1224 18.1411 48.2644 18.1411 48.4063 18.1411C49.9677 18.1411 51.5291 18.1411 53.0905 18.1411C53.2324 18.1411 53.3744 18.2121 53.5163 18.2121Z" fill="url(#paint63_linear_63_12773)"/>
<path d="M45.6384 18.3541C44.9287 18.4251 44.2189 18.4251 43.5092 18.4961C43.2963 18.4961 43.1544 18.6381 42.9414 18.7091C42.5866 18.7091 42.2317 18.7091 41.8059 18.7091C42.0188 18.5671 42.2317 18.4251 42.4446 18.3541C43.5802 17.9992 44.5738 18.1412 45.6384 18.3541Z" fill="url(#paint64_linear_63_12773)"/>
<path d="M47.5546 18.2121C46.9869 18.2831 46.4191 18.2831 45.9223 18.3541C45.9932 18.2831 46.0642 18.1411 46.1352 18.1411C46.561 18.1411 47.0578 18.2121 47.5546 18.2121Z" fill="url(#paint65_linear_63_12773)"/>
<path d="M76.5113 36.8118C75.6597 37.3797 75.1629 37.3087 74.808 36.4568C74.737 36.3149 74.737 35.9599 74.879 35.8179C75.0209 35.534 75.3048 35.321 75.5177 35.108C79.3502 31.2035 83.2537 27.37 87.0862 23.4655C87.1572 23.3945 87.2991 23.2525 87.3701 23.1815C87.8669 22.6846 88.2927 22.6846 88.7186 23.0395C89.2154 23.5365 89.2154 23.8914 88.6476 24.4593C87.7959 25.3822 86.9443 26.2341 86.0216 27.086C85.8087 27.299 85.6668 27.512 85.4538 27.6539C85.3119 27.7959 85.17 27.9379 85.028 28.0799C84.8861 28.2219 84.7441 28.3639 84.6022 28.5058C84.1054 29.0028 83.6795 29.4287 83.1827 29.9257C82.473 30.6356 81.7633 31.3455 81.0536 32.0554C80.6277 32.4813 80.1309 32.9783 79.7051 33.4042C79.3502 33.7592 78.9244 34.1851 78.5695 34.5401C77.9308 35.392 77.2211 36.1019 76.5113 36.8118Z" fill="url(#paint66_linear_63_12773)"/>
<path d="M86.1636 19.49C86.5894 19.49 86.8733 19.703 87.0153 20.0579C87.1572 20.4129 87.0862 20.7678 86.8023 21.1228C84.1054 23.8205 81.3375 26.5891 78.6405 29.2868C78.5696 29.3578 78.4276 29.4288 78.3566 29.5707C77.7179 30.0677 76.9372 29.8547 76.7243 29.0738C76.6533 28.8608 76.8662 28.6479 76.9372 28.3639C77.9308 27.37 78.9244 26.3761 79.918 25.3823C80.2729 25.0273 80.5568 24.7433 80.9116 24.3884C81.4085 23.8914 81.9053 23.3945 82.473 22.8266C82.615 22.6846 82.7569 22.5426 82.8989 22.4006C83.7505 21.5487 84.6022 20.6968 85.4539 19.8449C85.5958 19.703 85.8797 19.632 86.1636 19.49Z" fill="url(#paint67_linear_63_12773)"/>
<path d="M43.2253 35.5339C43.4382 35.5339 43.5802 35.6049 43.7931 35.6049C43.935 35.7469 44.077 35.8179 44.2189 35.9599C44.6448 36.4568 44.2899 36.8828 44.006 37.2377C43.2253 38.0896 42.3736 38.8705 41.593 39.7224C40.1025 41.2842 38.6121 42.775 37.0507 44.3368C36.5539 44.8338 35.9861 45.2597 35.4893 45.7567C35.2054 46.0406 34.8506 46.1116 34.4957 45.8277C34.1409 45.5437 33.9279 45.1177 34.1409 44.6918C34.3538 44.3368 34.6377 44.0529 34.9216 43.6979C35.1345 43.4849 35.3474 43.272 35.5603 43.13C36.4829 42.2071 37.3346 41.2842 38.2573 40.4323C39.6767 39.0125 41.0961 37.5927 42.5866 36.1019C42.7285 35.8179 42.9414 35.6759 43.2253 35.5339Z" fill="url(#paint68_linear_63_12773)"/>
</g>
<defs>
<linearGradient id="paint0_linear_63_12773" x1="34.1054" y1="91.475" x2="34.1054" y2="99" gradientUnits="userSpaceOnUse">
<stop stop-color="#CB68A2"/>
<stop offset="1" stop-color="#E9A9D9"/>
</linearGradient>
<linearGradient id="paint1_linear_63_12773" x1="3.23241" y1="31.8424" x2="3.23241" y2="98.3611" gradientUnits="userSpaceOnUse">
<stop stop-color="#CB68A2"/>
<stop offset="1" stop-color="#E9A9D9"/>
</linearGradient>
<linearGradient id="paint2_linear_63_12773" x1="29.1618" y1="95.5215" x2="29.1618" y2="99.142" gradientUnits="userSpaceOnUse">
<stop stop-color="#CB68A2"/>
<stop offset="1" stop-color="#E9A9D9"/>
</linearGradient>
<linearGradient id="paint3_linear_63_12773" x1="97.4216" y1="74.0822" x2="97.4216" y2="82.5301" gradientUnits="userSpaceOnUse">
<stop stop-color="#CB68A2"/>
<stop offset="1" stop-color="#E9A9D9"/>
</linearGradient>
<linearGradient id="paint4_linear_63_12773" x1="92.764" y1="80.6133" x2="92.764" y2="82.9954" gradientUnits="userSpaceOnUse">
<stop stop-color="#CB68A2"/>
<stop offset="1" stop-color="#E9A9D9"/>
</linearGradient>
<linearGradient id="paint5_linear_63_12773" x1="60.7204" y1="29.2556" x2="60.7204" y2="91.6879" gradientUnits="userSpaceOnUse">
<stop stop-color="#CB68A2"/>
<stop offset="1" stop-color="#E9A9D9"/>
</linearGradient>
<linearGradient id="paint6_linear_63_12773" x1="28.337" y1="19.5609" x2="28.337" y2="32.2683" gradientUnits="userSpaceOnUse">
<stop stop-color="#CB68A2"/>
<stop offset="1" stop-color="#E9A9D9"/>
</linearGradient>
<linearGradient id="paint7_linear_63_12773" x1="1.06778" y1="31.4165" x2="1.06778" y2="93.8887" gradientUnits="userSpaceOnUse">
<stop stop-color="#CB68A2"/>
<stop offset="1" stop-color="#E9A9D9"/>
</linearGradient>
<linearGradient id="paint8_linear_63_12773" x1="2.64995" y1="92.9658" x2="2.64995" y2="94.3147" gradientUnits="userSpaceOnUse">
<stop stop-color="#CB68A2"/>
<stop offset="1" stop-color="#E9A9D9"/>
</linearGradient>
<linearGradient id="paint9_linear_63_12773" x1="3.37436" y1="97.0833" x2="3.37436" y2="97.3672" gradientUnits="userSpaceOnUse">
<stop stop-color="#CB68A2"/>
<stop offset="1" stop-color="#E9A9D9"/>
</linearGradient>
<linearGradient id="paint10_linear_63_12773" x1="1.38714" y1="93.6757" x2="1.38714" y2="93.8177" gradientUnits="userSpaceOnUse">
<stop stop-color="#CB68A2"/>
<stop offset="1" stop-color="#E9A9D9"/>
</linearGradient>
<linearGradient id="paint11_linear_63_12773" x1="70.4787" y1="0.819336" x2="70.4787" y2="17.2743" gradientUnits="userSpaceOnUse">
<stop stop-color="#CB68A2"/>
<stop offset="1" stop-color="#E9A9D9"/>
</linearGradient>
<linearGradient id="paint12_linear_63_12773" x1="20.9045" y1="16.4374" x2="20.9045" y2="20.3419" gradientUnits="userSpaceOnUse">
<stop stop-color="#CB68A2"/>
<stop offset="1" stop-color="#E9A9D9"/>
</linearGradient>
<linearGradient id="paint13_linear_63_12773" x1="40.8123" y1="3.51697" x2="40.8123" y2="16.8633" gradientUnits="userSpaceOnUse">
<stop stop-color="#CB68A2"/>
<stop offset="1" stop-color="#E9A9D9"/>
</linearGradient>
<linearGradient id="paint14_linear_63_12773" x1="40.6349" y1="15.6565" x2="40.6349" y2="16.0824" gradientUnits="userSpaceOnUse">
<stop stop-color="#CB68A2"/>
<stop offset="1" stop-color="#E9A9D9"/>
</linearGradient>
<linearGradient id="paint15_linear_63_12773" x1="0.677412" y1="19.2061" x2="0.677412" y2="19.561" gradientUnits="userSpaceOnUse">
<stop stop-color="#CB68A2"/>
<stop offset="1" stop-color="#E9A9D9"/>
</linearGradient>
<linearGradient id="paint16_linear_63_12773" x1="72.5369" y1="0.811523" x2="72.5369" y2="5.00777" gradientUnits="userSpaceOnUse">
<stop stop-color="#CB68A2"/>
<stop offset="1" stop-color="#E9A9D9"/>
</linearGradient>
<linearGradient id="paint17_linear_63_12773" x1="99.3644" y1="6.56958" x2="99.3644" y2="77.8447" gradientUnits="userSpaceOnUse">
<stop stop-color="#CB68A2"/>
<stop offset="1" stop-color="#E9A9D9"/>
</linearGradient>
<linearGradient id="paint18_linear_63_12773" x1="99.4709" y1="3.94287" x2="99.4709" y2="8.27333" gradientUnits="userSpaceOnUse">
<stop stop-color="#CB68A2"/>
<stop offset="1" stop-color="#E9A9D9"/>
</linearGradient>
<linearGradient id="paint19_linear_63_12773" x1="100.239" y1="5.00781" x2="100.239" y2="7.84746" gradientUnits="userSpaceOnUse">
<stop stop-color="#CB68A2"/>
<stop offset="1" stop-color="#E9A9D9"/>
</linearGradient>
<linearGradient id="paint20_linear_63_12773" x1="100.394" y1="6.42761" x2="100.394" y2="6.78257" gradientUnits="userSpaceOnUse">
<stop stop-color="#CB68A2"/>
<stop offset="1" stop-color="#E9A9D9"/>
</linearGradient>
<linearGradient id="paint21_linear_63_12773" x1="76.3694" y1="81.0393" x2="76.3694" y2="82.9383" gradientUnits="userSpaceOnUse">
<stop stop-color="#CB68A2"/>
<stop offset="1" stop-color="#E9A9D9"/>
</linearGradient>
<linearGradient id="paint22_linear_63_12773" x1="96.1179" y1="81.6072" x2="96.1179" y2="82.3881" gradientUnits="userSpaceOnUse">
<stop stop-color="#CB68A2"/>
<stop offset="1" stop-color="#E9A9D9"/>
</linearGradient>
<linearGradient id="paint23_linear_63_12773" x1="97.4127" y1="78.9806" x2="97.4127" y2="79.1936" gradientUnits="userSpaceOnUse">
<stop stop-color="#CB68A2"/>
<stop offset="1" stop-color="#E9A9D9"/>
</linearGradient>
<linearGradient id="paint24_linear_63_12773" x1="98.0869" y1="77.9156" x2="98.0869" y2="78.1286" gradientUnits="userSpaceOnUse">
<stop stop-color="#CB68A2"/>
<stop offset="1" stop-color="#E9A9D9"/>
</linearGradient>
<linearGradient id="paint25_linear_63_12773" x1="30.679" y1="16.7924" x2="30.679" y2="29.9257" gradientUnits="userSpaceOnUse">
<stop stop-color="#CB68A2"/>
<stop offset="1" stop-color="#E9A9D9"/>
</linearGradient>
<linearGradient id="paint26_linear_63_12773" x1="58.8235" y1="29.7837" x2="58.8235" y2="79.1225" gradientUnits="userSpaceOnUse">
<stop stop-color="#CB68A2"/>
<stop offset="1" stop-color="#E9A9D9"/>
</linearGradient>
<linearGradient id="paint27_linear_63_12773" x1="58.7395" y1="79.4065" x2="58.7395" y2="90.9071" gradientUnits="userSpaceOnUse">
<stop stop-color="#CB68A2"/>
<stop offset="1" stop-color="#E9A9D9"/>
</linearGradient>
<linearGradient id="paint28_linear_63_12773" x1="59.9038" y1="88.4934" x2="59.9038" y2="90.5522" gradientUnits="userSpaceOnUse">
<stop stop-color="#CB68A2"/>
<stop offset="1" stop-color="#E9A9D9"/>
</linearGradient>
<linearGradient id="paint29_linear_63_12773" x1="59.7264" y1="74.5081" x2="59.7264" y2="76.4958" gradientUnits="userSpaceOnUse">
<stop stop-color="#CB68A2"/>
<stop offset="1" stop-color="#E9A9D9"/>
</linearGradient>
<linearGradient id="paint30_linear_63_12773" x1="59.75" y1="37.5217" x2="59.75" y2="40.1484" gradientUnits="userSpaceOnUse">
<stop stop-color="#CB68A2"/>
<stop offset="1" stop-color="#E9A9D9"/>
</linearGradient>
<linearGradient id="paint31_linear_63_12773" x1="59.6909" y1="71.4949" x2="59.6909" y2="71.5974" gradientUnits="userSpaceOnUse">
<stop stop-color="#CB68A2"/>
<stop offset="1" stop-color="#E9A9D9"/>
</linearGradient>
<linearGradient id="paint32_linear_63_12773" x1="59.6554" y1="71.9524" x2="59.6554" y2="72.0944" gradientUnits="userSpaceOnUse">
<stop stop-color="#CB68A2"/>
<stop offset="1" stop-color="#E9A9D9"/>
</linearGradient>
<linearGradient id="paint33_linear_63_12773" x1="59.6909" y1="44.5183" x2="59.6909" y2="44.6524" gradientUnits="userSpaceOnUse">
<stop stop-color="#CB68A2"/>
<stop offset="1" stop-color="#E9A9D9"/>
</linearGradient>
<linearGradient id="paint34_linear_63_12773" x1="59.6909" y1="72.3074" x2="59.6909" y2="72.4494" gradientUnits="userSpaceOnUse">
<stop stop-color="#CB68A2"/>
<stop offset="1" stop-color="#E9A9D9"/>
</linearGradient>
<linearGradient id="paint35_linear_63_12773" x1="60.4361" y1="80.8263" x2="60.4361" y2="80.9683" gradientUnits="userSpaceOnUse">
<stop stop-color="#CB68A2"/>
<stop offset="1" stop-color="#E9A9D9"/>
</linearGradient>
<linearGradient id="paint36_linear_63_12773" x1="2.02589" y1="18.8511" x2="2.02589" y2="22.9686" gradientUnits="userSpaceOnUse">
<stop stop-color="#CB68A2"/>
<stop offset="1" stop-color="#E9A9D9"/>
</linearGradient>
<linearGradient id="paint37_linear_63_12773" x1="4.61637" y1="29.1448" x2="4.61637" y2="29.3577" gradientUnits="userSpaceOnUse">
<stop stop-color="#CB68A2"/>
<stop offset="1" stop-color="#E9A9D9"/>
</linearGradient>
<linearGradient id="paint38_linear_63_12773" x1="39.6057" y1="29.0916" x2="39.6057" y2="29.3578" gradientUnits="userSpaceOnUse">
<stop stop-color="#CB68A2"/>
<stop offset="1" stop-color="#E9A9D9"/>
</linearGradient>
<linearGradient id="paint39_linear_63_12773" x1="1.65023" y1="28.8608" x2="1.65023" y2="29.1742" gradientUnits="userSpaceOnUse">
<stop stop-color="#CB68A2"/>
<stop offset="1" stop-color="#E9A9D9"/>
</linearGradient>
<linearGradient id="paint40_linear_63_12773" x1="54.9358" y1="29.4287" x2="54.9358" y2="29.5707" gradientUnits="userSpaceOnUse">
<stop stop-color="#CB68A2"/>
<stop offset="1" stop-color="#E9A9D9"/>
</linearGradient>
<linearGradient id="paint41_linear_63_12773" x1="2.55819" y1="23.8914" x2="2.55819" y2="23.9624" gradientUnits="userSpaceOnUse">
<stop stop-color="#CB68A2"/>
<stop offset="1" stop-color="#E9A9D9"/>
</linearGradient>
<linearGradient id="paint42_linear_63_12773" x1="70.3367" y1="10.6161" x2="70.3367" y2="12.2489" gradientUnits="userSpaceOnUse">
<stop stop-color="#CB68A2"/>
<stop offset="1" stop-color="#E9A9D9"/>
</linearGradient>
<linearGradient id="paint43_linear_63_12773" x1="70.2999" y1="6.99548" x2="70.2999" y2="8.84125" gradientUnits="userSpaceOnUse">
<stop stop-color="#CB68A2"/>
<stop offset="1" stop-color="#E9A9D9"/>
</linearGradient>
<linearGradient id="paint44_linear_63_12773" x1="48.0724" y1="16.7924" x2="48.0724" y2="18.7091" gradientUnits="userSpaceOnUse">
<stop stop-color="#CB68A2"/>
<stop offset="1" stop-color="#E9A9D9"/>
</linearGradient>
<linearGradient id="paint45_linear_63_12773" x1="43.7221" y1="16.8633" x2="43.7221" y2="17.1391" gradientUnits="userSpaceOnUse">
<stop stop-color="#CB68A2"/>
<stop offset="1" stop-color="#E9A9D9"/>
</linearGradient>
<linearGradient id="paint46_linear_63_12773" x1="41.7704" y1="9.19629" x2="41.7704" y2="9.76422" gradientUnits="userSpaceOnUse">
<stop stop-color="#CB68A2"/>
<stop offset="1" stop-color="#E9A9D9"/>
</linearGradient>
<linearGradient id="paint47_linear_63_12773" x1="41.8769" y1="7.49243" x2="41.8769" y2="7.56342" gradientUnits="userSpaceOnUse">
<stop stop-color="#CB68A2"/>
<stop offset="1" stop-color="#E9A9D9"/>
</linearGradient>
<linearGradient id="paint48_linear_63_12773" x1="22.5014" y1="17.6442" x2="22.5014" y2="18.6696" gradientUnits="userSpaceOnUse">
<stop stop-color="#CB68A2"/>
<stop offset="1" stop-color="#E9A9D9"/>
</linearGradient>
<linearGradient id="paint49_linear_63_12773" x1="71.1175" y1="7.06653" x2="71.1175" y2="8.9123" gradientUnits="userSpaceOnUse">
<stop stop-color="#CB68A2"/>
<stop offset="1" stop-color="#E9A9D9"/>
</linearGradient>
<linearGradient id="paint50_linear_63_12773" x1="99.1515" y1="14.4496" x2="99.1515" y2="74.934" gradientUnits="userSpaceOnUse">
<stop stop-color="#CB68A2"/>
<stop offset="1" stop-color="#E9A9D9"/>
</linearGradient>
<linearGradient id="paint51_linear_63_12773" x1="99.1515" y1="13.8107" x2="99.1515" y2="15.8694" gradientUnits="userSpaceOnUse">
<stop stop-color="#CB68A2"/>
<stop offset="1" stop-color="#E9A9D9"/>
</linearGradient>
<linearGradient id="paint52_linear_63_12773" x1="98.4418" y1="6.99548" x2="98.4418" y2="7.42143" gradientUnits="userSpaceOnUse">
<stop stop-color="#CB68A2"/>
<stop offset="1" stop-color="#E9A9D9"/>
</linearGradient>
<linearGradient id="paint53_linear_63_12773" x1="98.7257" y1="10.545" x2="98.7257" y2="10.829" gradientUnits="userSpaceOnUse">
<stop stop-color="#CB68A2"/>
<stop offset="1" stop-color="#E9A9D9"/>
</linearGradient>
<linearGradient id="paint54_linear_63_12773" x1="99.4709" y1="13.1718" x2="99.4709" y2="13.4557" gradientUnits="userSpaceOnUse">
<stop stop-color="#CB68A2"/>
<stop offset="1" stop-color="#E9A9D9"/>
</linearGradient>
<linearGradient id="paint55_linear_63_12773" x1="98.5128" y1="10.4741" x2="98.5128" y2="10.5451" gradientUnits="userSpaceOnUse">
<stop stop-color="#CB68A2"/>
<stop offset="1" stop-color="#E9A9D9"/>
</linearGradient>
<linearGradient id="paint56_linear_63_12773" x1="39.1208" y1="38.8706" x2="39.1208" y2="53.3664" gradientUnits="userSpaceOnUse">
<stop stop-color="#CB68A2"/>
<stop offset="1" stop-color="#E9A9D9"/>
</linearGradient>
<linearGradient id="paint57_linear_63_12773" x1="29.3303" y1="24.2463" x2="29.3303" y2="25.8081" gradientUnits="userSpaceOnUse">
<stop stop-color="#CB68A2"/>
<stop offset="1" stop-color="#E9A9D9"/>
</linearGradient>
<linearGradient id="paint58_linear_63_12773" x1="49.0805" y1="18.2122" x2="49.0805" y2="18.7801" gradientUnits="userSpaceOnUse">
<stop stop-color="#CB68A2"/>
<stop offset="1" stop-color="#E9A9D9"/>
</linearGradient>
<linearGradient id="paint59_linear_63_12773" x1="58.7344" y1="20.9808" x2="58.7344" y2="23.9625" gradientUnits="userSpaceOnUse">
<stop stop-color="#CB68A2"/>
<stop offset="1" stop-color="#E9A9D9"/>
</linearGradient>
<linearGradient id="paint60_linear_63_12773" x1="58.5778" y1="25.5242" x2="58.5778" y2="27.5119" gradientUnits="userSpaceOnUse">
<stop stop-color="#CB68A2"/>
<stop offset="1" stop-color="#E9A9D9"/>
</linearGradient>
<linearGradient id="paint61_linear_63_12773" x1="45.6029" y1="10.3322" x2="45.6029" y2="10.5451" gradientUnits="userSpaceOnUse">
<stop stop-color="#CB68A2"/>
<stop offset="1" stop-color="#E9A9D9"/>
</linearGradient>
<linearGradient id="paint62_linear_63_12773" x1="43.1543" y1="10.4741" x2="43.1543" y2="10.6161" gradientUnits="userSpaceOnUse">
<stop stop-color="#CB68A2"/>
<stop offset="1" stop-color="#E9A9D9"/>
</linearGradient>
<linearGradient id="paint63_linear_63_12773" x1="50.7484" y1="18.1411" x2="50.7484" y2="18.2831" gradientUnits="userSpaceOnUse">
<stop stop-color="#CB68A2"/>
<stop offset="1" stop-color="#E9A9D9"/>
</linearGradient>
<linearGradient id="paint64_linear_63_12773" x1="43.7221" y1="18.1379" x2="43.7221" y2="18.7091" gradientUnits="userSpaceOnUse">
<stop stop-color="#CB68A2"/>
<stop offset="1" stop-color="#E9A9D9"/>
</linearGradient>
<linearGradient id="paint65_linear_63_12773" x1="46.7385" y1="18.1411" x2="46.7385" y2="18.3541" gradientUnits="userSpaceOnUse">
<stop stop-color="#CB68A2"/>
<stop offset="1" stop-color="#E9A9D9"/>
</linearGradient>
<linearGradient id="paint66_linear_63_12773" x1="81.9221" y1="22.7888" x2="81.9221" y2="37.1788" gradientUnits="userSpaceOnUse">
<stop stop-color="#CB68A2"/>
<stop offset="1" stop-color="#E9A9D9"/>
</linearGradient>
<linearGradient id="paint67_linear_63_12773" x1="81.8981" y1="19.49" x2="81.8981" y2="29.8381" gradientUnits="userSpaceOnUse">
<stop stop-color="#CB68A2"/>
<stop offset="1" stop-color="#E9A9D9"/>
</linearGradient>
<linearGradient id="paint68_linear_63_12773" x1="39.236" y1="35.5339" x2="39.236" y2="46.0084" gradientUnits="userSpaceOnUse">
<stop stop-color="#CB68A2"/>
<stop offset="1" stop-color="#E9A9D9"/>
</linearGradient>
<clipPath id="clip0_63_12773">
<rect width="100" height="98.2517" fill="white" transform="translate(0.5 0.748291)"/>
</clipPath>
</defs>
</svg>
