<svg width="101" height="100" viewBox="0 0 101 100" fill="none" xmlns="http://www.w3.org/2000/svg">
<g clip-path="url(#clip0_63_12915)">
<path fill-rule="evenodd" clip-rule="evenodd" d="M67.9219 43.5208C69.4896 44.3541 70.5781 45.526 71.125 46.8645C71.6719 48.2031 71.6719 49.651 71.3177 51.0468C71.2396 51.3645 71.1302 51.6823 71.0156 51.9948C72.651 53.8125 73.1667 56.1198 73.2344 57.6145C73.349 60.1458 72.151 62.2864 70.3438 63.8281C64.8385 68.552 56.3854 69.0312 49.5677 65.776C48.9792 65.4948 49.0052 64.6198 49.5573 64.2812C54.6823 61.1093 56.2552 57.6875 57.2396 54.776C58.25 51.7812 60.8177 49.5468 64.1302 49.375C65.1771 49.3125 66.3177 49.4479 67.401 49.7708C67.1198 51.5989 66.4688 53.177 65.9688 55.4427C68 53.3698 69.8177 50.651 68.9688 47.7448C68.724 46.927 68.0208 46.2187 66.8281 45.5833L67.9219 43.5208ZM34.4167 41.901C34.8438 41.8802 35.224 42.1666 35.3177 42.5781C36.625 48.3125 39.3438 50.7187 41.776 52.4427C44.3073 54.2343 45.5885 57.3385 44.6562 60.5364C44.3646 61.5468 43.849 62.5625 43.1875 63.4739C41.8333 63.1145 40.2135 62.651 39.0052 61.9583C40.4427 64.1145 42.724 65.8489 45.3802 65.4791L45.401 67.7552C43.401 68.1875 41.474 67.5312 39.8698 66.3281C38.099 67.0625 36.2031 67.177 35.3958 67.177C32.375 67.177 30.2188 65.4895 29.1146 63.1927C25.8594 56.4166 28.6563 47.7135 33.8958 42.1145C34.0469 41.9895 34.224 41.9166 34.4167 41.901ZM48.1667 25.9062C55.7448 26.2135 62.4635 33.0052 64.5521 40.5885C64.724 41.2135 64.0729 41.7604 63.4479 41.5885C57.5417 39.9375 53.8333 41.2083 50.9219 42.5729C47.9427 43.9687 44.4635 43.6093 42.0729 41.177C41.2604 40.3489 40.5833 39.2864 40.1042 38.151C42.1979 36.5677 43.5417 36.526 46.8906 35.6302C44.7708 35.3385 42.5573 35.4531 40.6406 36.0625C38.974 36.7083 37.8073 37.7031 37.3333 39.0468L35.1354 38.276C35.8438 36.2708 37.474 34.8802 39.4167 34.0416C39.724 31.6718 40.9635 29.8125 41.1406 29.5468C42.8906 26.8802 45.5052 25.7864 48.1667 25.9062ZM50.4844 19.4166C42.3594 19.4166 34.5677 22.6458 28.8177 28.3854C23.0677 34.1354 19.8438 41.927 19.8438 50.0625C19.8438 66.9791 33.5573 80.6979 50.4844 80.6979C67.4063 80.6979 81.1198 66.9791 81.1198 50.0625C81.1198 33.1354 67.4063 19.4166 50.4844 19.4166Z" fill="url(#paint0_linear_63_12915)"/>
<path fill-rule="evenodd" clip-rule="evenodd" d="M87.9323 34.1406C88.224 34.1458 88.4792 34.3333 88.5834 34.5989C91.8698 42.7083 92.4844 51.651 90.3438 60.1302C90.2605 60.5312 89.8594 60.7864 89.4584 60.6823C89.0626 60.5833 88.8282 60.1771 88.9323 59.776C91.0053 51.5989 90.4167 42.9739 87.2448 35.1562C87.0365 34.6614 87.4063 34.1198 87.9323 34.1406Z" fill="url(#paint1_linear_63_12915)"/>
<path fill-rule="evenodd" clip-rule="evenodd" d="M50.4843 2.45829C76.7916 2.45829 98.0885 23.7448 98.0885 50.052C98.0885 76.3541 76.7916 97.6562 50.4843 97.6562C24.1823 97.6562 2.88017 76.3541 2.88017 50.052C2.88017 23.7448 24.1823 2.45829 50.4843 2.45829ZM50.4843 0.041626C22.875 0.041626 0.463501 22.4427 0.463501 50.052C0.463501 77.6614 22.875 100.073 50.4843 100.073C78.0937 100.073 100.51 77.6614 100.51 50.052C100.51 22.4427 78.0937 0.041626 50.4843 0.041626Z" fill="url(#paint2_linear_63_12915)"/>
<path d="M12.0104 66.026C11.9375 66.2395 11.7448 66.4062 11.4479 66.5312C11.1146 66.6718 10.8437 66.6823 10.6354 66.5781C10.4323 66.4635 10.2656 66.25 10.1406 65.9323L9.64063 64.7187L11.4219 63.9895L11.9167 65.177C12.0469 65.5104 12.0781 65.7916 12.0104 66.026ZM14.6927 64.7656C14.625 64.9635 14.4635 65.1145 14.2187 65.2187C14.099 65.2656 13.9792 65.2864 13.8698 65.2708C13.7708 65.2604 13.6771 65.2239 13.5885 65.177C13.5 65.125 13.4167 65.052 13.3437 64.9635C13.276 64.8698 13.224 64.7708 13.1875 64.6666L12.6927 63.4687L14.1458 62.8645L14.625 64.0312C14.7448 64.3281 14.7656 64.5677 14.6927 64.7656ZM10.0885 68.052C10.599 68.375 11.2031 68.401 11.901 68.1145C12.3073 67.9479 12.625 67.7291 12.849 67.4635C13.0521 67.2031 13.1563 66.8437 13.1719 66.375C13.4375 66.6041 13.7292 66.7448 14.0521 66.7916C14.3698 66.8385 14.6979 66.7916 15.0156 66.6562C15.375 66.5104 15.651 66.3177 15.8333 66.0833C16.0156 65.8489 16.1302 65.5937 16.1771 65.3125C16.2292 65.026 16.224 64.7187 16.1563 64.401C16.099 64.0885 16.0052 63.776 15.875 63.4687L14.7917 60.8385L7.75 63.7187L8.80208 66.2864C9.15625 67.151 9.58854 67.7343 10.0885 68.052Z" fill="url(#paint3_linear_63_12915)"/>
<path d="M11.7396 72.1719L18.2032 68.1459L19.0677 69.5365L12.6042 73.5573L11.7396 72.1719Z" fill="url(#paint4_linear_63_12915)"/>
<path d="M21.8229 76.151C21.6822 76.6198 21.302 77.1354 20.677 77.6875C20.0572 78.2448 19.5052 78.5677 19.0156 78.651C18.5468 78.7396 18.1354 78.5781 17.7656 78.1718C17.401 77.7604 17.2864 77.3281 17.427 76.875C17.5729 76.3958 17.9531 75.8802 18.5781 75.3281C19.1979 74.776 19.75 74.4583 20.2395 74.3698C20.7135 74.2812 21.1302 74.4427 21.5 74.8593C21.8593 75.2604 21.9687 75.6875 21.8229 76.151ZM19.0885 80.2031C19.9531 80.1614 20.8437 79.7291 21.7708 78.9114C22.1614 78.5677 22.5 78.1875 22.7708 77.7864C23.052 77.3854 23.2395 76.9739 23.3385 76.5468C23.4322 76.1146 23.427 75.6823 23.3072 75.2448C23.1979 74.7968 22.9427 74.3593 22.552 73.9166C22.1562 73.4739 21.7447 73.1666 21.3125 73.0052C20.8854 72.8333 20.4531 72.7708 20.0156 72.8177C19.5781 72.8646 19.1458 73.0052 18.7135 73.2396C18.2864 73.4687 17.8802 73.7552 17.4895 74.1093C17.0937 74.4583 16.7552 74.8281 16.4739 75.2291C16.2031 75.6302 16.0104 76.0416 15.9114 76.4739C15.8177 76.901 15.8333 77.3437 15.9427 77.7864C16.0625 78.2239 16.3229 78.6718 16.7135 79.1146C17.4062 79.8906 18.2031 80.2604 19.0885 80.2031Z" fill="url(#paint5_linear_63_12915)"/>
<path d="M27.9895 81.5364C28 81.7864 27.9375 82.0573 27.8281 82.3437C27.7187 82.6198 27.5468 82.927 27.3073 83.2552C27.1145 83.5156 26.9062 83.7552 26.6875 83.9531C26.4739 84.1562 26.2395 84.302 25.9948 84.401C25.7552 84.4948 25.5 84.5208 25.2187 84.4791C24.9583 84.4323 24.6718 84.3073 24.375 84.0833L23.6979 83.5885L26.5312 79.7239L27.2239 80.2395C27.7291 80.6093 27.9843 81.0468 27.9895 81.5364ZM26.2395 85.9791C26.677 85.8906 27.0989 85.7135 27.4843 85.4218C27.8854 85.125 28.2552 84.7343 28.6198 84.25C28.9635 83.7812 29.2135 83.3229 29.3854 82.8593C29.5468 82.401 29.6145 81.9583 29.5833 81.5156C29.5468 81.0781 29.4114 80.6562 29.1562 80.25C28.9166 79.8489 28.552 79.4583 28.0573 79.0989L26.052 77.6198L21.5416 83.7552L23.5677 85.2448C24.4843 85.9114 25.375 86.1614 26.2395 85.9791Z" fill="url(#paint6_linear_63_12915)"/>
<path d="M29.4219 89.0052L34.1719 91.1927L34.7604 89.9167L31.4948 88.401L32.2656 86.724L34.5781 87.776L35.1562 86.5208L32.8594 85.4531L33.5 84.0625L36.6562 85.5208L37.25 84.2344L32.6198 82.0938L29.4219 89.0052Z" fill="url(#paint7_linear_63_12915)"/>
<path d="M41.7864 93.3542L43.0104 93.6407L43.9218 89.7917L41.0052 89.0938L40.677 90.474L42.0468 90.7917C41.9323 91.1146 41.7448 91.3542 41.4739 91.5209C41.1562 91.7188 40.7968 91.7761 40.3854 91.6719C40.0833 91.6094 39.8593 91.4688 39.7083 91.2604C39.552 91.0625 39.4583 90.8282 39.4062 90.5625C39.3645 90.3021 39.3541 90.0261 39.3802 89.7396C39.4166 89.4532 39.4531 89.2032 39.5052 88.974C39.5625 88.7552 39.6354 88.5104 39.7291 88.2292C39.8281 87.9427 39.9635 87.6823 40.1198 87.4479C40.2812 87.2136 40.4739 87.0313 40.6927 86.8959C40.9218 86.7657 41.1875 86.7344 41.4948 86.8073C41.8802 86.8959 42.1458 87.0573 42.2968 87.2761C42.4531 87.5 42.5729 87.7969 42.6458 88.1667L44.2135 88.1302C44.1718 87.6979 44.0937 87.3386 43.9687 87.0417C43.8541 86.75 43.6823 86.5 43.4791 86.2865C43.0573 85.8802 42.5729 85.6094 42.0208 85.4792C41.427 85.3386 40.901 85.3334 40.4323 85.4532C39.9843 85.5729 39.5833 85.7813 39.2448 86.0834C38.9166 86.3854 38.6406 86.7657 38.4114 87.2188C38.1979 87.6615 38.0208 88.1459 37.9062 88.6667C37.7916 89.1511 37.7291 89.6198 37.7291 90.0938C37.7448 90.5573 37.8333 90.9896 37.9843 91.3802C38.1406 91.7761 38.3906 92.1198 38.7239 92.4219C39.052 92.7032 39.4895 92.9115 40.0208 93.0365C40.3802 93.125 40.7083 93.1459 41.0052 93.1094C41.302 93.0782 41.6093 92.9636 41.927 92.7709L41.7864 93.3542Z" fill="url(#paint8_linear_63_12915)"/>
<path d="M50.5365 88.1823C50.625 88.2552 50.6875 88.3594 50.7344 88.4844C50.7813 88.6042 50.8021 88.7552 50.7969 88.9375C50.7969 89.1302 50.7552 89.2917 50.6771 89.401C50.5938 89.5156 50.5 89.6042 50.3698 89.6615C50.25 89.724 50.1094 89.7552 49.948 89.776C49.7969 89.7813 49.6407 89.7917 49.4792 89.7812L48.5105 89.7604L48.5521 87.9062L49.6823 87.9271C50.0834 87.9375 50.3594 88.0208 50.5365 88.1823ZM50.8438 94.1979L52.6667 94.2396L51.0834 90.8542C51.5052 90.7135 51.8438 90.4844 52.0677 90.1615C52.3073 89.8281 52.4323 89.4427 52.448 88.9896C52.4532 88.6042 52.4011 88.2552 52.2813 87.9635C52.1719 87.6615 52.0157 87.4115 51.8021 87.2031C51.5886 87.0052 51.3334 86.8542 51.0261 86.7396C50.7292 86.6302 50.3907 86.5729 50.0105 86.5677L46.9532 86.5L46.7865 94.1042L48.4115 94.1354L48.4792 91.1354L49.5209 91.151L50.8438 94.1979Z" fill="url(#paint9_linear_63_12915)"/>
<path d="M57.6042 87.8385L58.776 90.3698L57.3698 90.6302L57.6042 87.8385ZM60.0677 93.1719L61.6875 92.8698L58.1823 85.7656L56.2917 86.1146L55.5 94.0052L57.1094 93.7135L57.2552 92.0677L59.3802 91.6719L60.0677 93.1719Z" fill="url(#paint10_linear_63_12915)"/>
<path d="M66.3333 85.2812C66.5468 85.4062 66.75 85.5937 66.927 85.8489C67.1145 86.0885 67.2812 86.3906 67.427 86.7656C67.5468 87.0729 67.6406 87.3749 67.6979 87.6666C67.7552 87.9531 67.7604 88.2239 67.7083 88.4843C67.6614 88.7343 67.552 88.9687 67.375 89.1822C67.1927 89.3854 66.9323 89.5572 66.5885 89.6979L65.8073 90.0104L64.0208 85.5677L64.8229 85.2447C65.401 85.0156 65.9114 85.0208 66.3333 85.2812ZM69.177 89.1093C69.3437 88.6874 69.4062 88.2343 69.3645 87.7499C69.3229 87.2656 69.1927 86.7343 68.9635 86.1718C68.75 85.6302 68.4895 85.177 68.1927 84.7968C67.8958 84.4114 67.5468 84.1145 67.151 83.9114C66.7708 83.7083 66.3281 83.6093 65.8541 83.6093C65.3802 83.5989 64.8593 83.7083 64.2968 83.9322L61.9791 84.8593L64.8073 91.927L67.1458 90.9895C68.1979 90.5677 68.8802 89.9427 69.177 89.1093Z" fill="url(#paint11_linear_63_12915)"/>
<path d="M72.3073 81.9218L74.3802 83.7916L73.1875 84.5781L72.3073 81.9218ZM76.6615 85.8645L78.0417 84.9531L72.026 79.7916L70.4219 80.8489L72.7865 88.427L74.1562 87.5208L73.6458 85.9479L75.4427 84.7604L76.6615 85.8645Z" fill="url(#paint12_linear_63_12915)"/>
<path d="M81.0156 78.0416C81.2395 78.026 81.4687 78.1354 81.6979 78.3645C81.9531 78.6198 82.0729 78.8593 82.052 79.0937C82.0312 79.3177 81.8958 79.5573 81.651 79.802L80.7291 80.7291L79.3593 79.3698L80.276 78.4583C80.526 78.2083 80.776 78.0625 81.0156 78.0416ZM78.8177 76.0573C79.0208 76.0364 79.2187 76.1302 79.4166 76.3229C79.5052 76.4062 79.5677 76.5052 79.5937 76.6145C79.625 76.7135 79.6354 76.8073 79.6198 76.9166C79.6093 77.0104 79.5729 77.1145 79.5208 77.2135C79.4583 77.3125 79.3854 77.401 79.3073 77.4895L78.3854 78.4062L77.276 77.2916L78.1614 76.401C78.3906 76.1823 78.6041 76.0625 78.8177 76.0573ZM83.625 79.026C83.7291 78.427 83.5156 77.8645 82.9843 77.3333C82.6718 77.0208 82.3437 76.8125 82.0104 76.7135C81.6979 76.6198 81.3281 76.6614 80.8854 76.8281C80.9948 76.4948 81.0052 76.1718 80.927 75.8593C80.8489 75.5468 80.6823 75.2708 80.4323 75.0208C80.1614 74.75 79.875 74.5729 79.5885 74.4948C79.302 74.4166 79.0208 74.4114 78.7448 74.4739C78.4583 74.5364 78.177 74.6614 77.9114 74.8437C77.6458 75.0208 77.401 75.2343 77.1562 75.4687L75.151 77.4791L80.5416 82.8541L82.5 80.8906C83.1562 80.2291 83.5312 79.6145 83.625 79.026Z" fill="url(#paint13_linear_63_12915)"/>
<path d="M86.8593 75.8906L89.5468 71.8594L88.3698 71.0781L86.5885 73.75L81.4323 70.3125L80.526 71.6667L86.8593 75.8906Z" fill="url(#paint14_linear_63_12915)"/>
<path d="M91.1823 68.7656L93.2135 63.9479L91.9167 63.3958L90.5156 66.7083L88.8073 65.9948L89.7865 63.651L88.5052 63.1146L87.5208 65.4427L86.099 64.8542L87.4583 61.651L86.1562 61.0938L84.1719 65.7969L91.1823 68.7656Z" fill="url(#paint15_linear_63_12915)"/>
<path d="M17.7812 29.9948C17.9895 29.9063 18.2395 29.9375 18.5312 30.0938C18.8541 30.2604 19.0416 30.4531 19.0937 30.6823C19.1406 30.9063 19.0781 31.1719 18.9218 31.4792L18.3229 32.6459L16.6093 31.7604L17.2031 30.6146C17.3698 30.2917 17.5625 30.0834 17.7812 29.9948ZM15.0833 28.7604C15.276 28.6875 15.4948 28.7084 15.7343 28.8334C15.8541 28.8959 15.9427 28.9688 16 29.0573C16.0573 29.1459 16.0937 29.2344 16.1093 29.3386C16.1302 29.4375 16.1302 29.5469 16.1093 29.6615C16.0833 29.7656 16.0416 29.875 15.9895 29.9792L15.3958 31.1302L13.9895 30.4063L14.5677 29.2865C14.7187 29.0156 14.8854 28.8334 15.0833 28.7604ZM20.5677 30.1406C20.4843 29.5417 20.1093 29.0677 19.4479 28.7188C19.052 28.5209 18.677 28.4219 18.3333 28.4219C18.0052 28.4323 17.6614 28.5781 17.2916 28.875C17.302 28.5261 17.2135 28.2136 17.0416 27.9427C16.8645 27.6719 16.625 27.4479 16.3125 27.2865C15.9687 27.1094 15.6458 27.0313 15.3489 27.0417C15.0573 27.0573 14.7812 27.1302 14.5364 27.2813C14.2812 27.4271 14.0573 27.6302 13.8541 27.8906C13.6562 28.1354 13.4843 28.4115 13.3281 28.7084L12.026 31.2344L18.7864 34.7292L20.0573 32.2656C20.4948 31.4323 20.6562 30.724 20.5677 30.1406Z" fill="url(#paint16_linear_63_12915)"/>
<path d="M15.9115 24.3854L16.8698 23.0573L23.0417 27.5052L22.0834 28.8333L15.9115 24.3854Z" fill="url(#paint17_linear_63_12915)"/>
<path d="M22.5937 19.4167C23.0833 19.5209 23.625 19.8699 24.2187 20.448C24.8125 21.0261 25.1719 21.5626 25.3021 22.0417C25.4219 22.5001 25.2917 22.9271 24.9167 23.3178C24.526 23.7136 24.1042 23.8594 23.6354 23.7501C23.1562 23.6407 22.6198 23.2969 22.0156 22.7188C21.4167 22.1407 21.0573 21.6042 20.9375 21.1303C20.8125 20.6667 20.9427 20.2344 21.3333 19.8438C21.7135 19.448 22.1302 19.3126 22.5937 19.4167ZM26.8437 21.8594C26.7396 20.9949 26.2448 20.1355 25.3594 19.2761C24.9844 18.9115 24.5885 18.6042 24.1667 18.3594C23.75 18.1042 23.3229 17.9428 22.8854 17.8855C22.4479 17.8178 22.0156 17.8594 21.5833 18.0053C21.151 18.1511 20.7344 18.4271 20.3177 18.8594C19.9062 19.2813 19.6354 19.7136 19.5 20.1563C19.3594 20.5938 19.3333 21.0261 19.4062 21.4688C19.4896 21.8907 19.6615 22.3178 19.9219 22.7292C20.1771 23.1407 20.5 23.5261 20.875 23.8907C21.25 24.2605 21.651 24.5678 22.0729 24.823C22.4896 25.0626 22.9167 25.224 23.349 25.2969C23.7812 25.3542 24.2187 25.3074 24.651 25.1615C25.0885 25.0157 25.5104 24.724 25.9271 24.3021C26.651 23.5521 26.9583 22.7396 26.8437 21.8594Z" fill="url(#paint18_linear_63_12915)"/>
<path d="M28.8385 14.5676C29.0729 14.6458 29.302 14.7864 29.5364 14.9947C29.7708 15.1926 29.9948 15.4531 30.2291 15.7864C30.4062 16.0572 30.5625 16.3281 30.6823 16.5989C30.802 16.8645 30.8593 17.1301 30.875 17.3958C30.8906 17.6562 30.8281 17.9114 30.6927 18.1562C30.5677 18.3906 30.3489 18.6145 30.0416 18.8281L29.3489 19.302L26.6406 15.3541L27.3489 14.8645C27.8698 14.5156 28.3645 14.4166 28.8385 14.5676ZM32.4479 17.6822C32.5156 17.2447 32.4791 16.7916 32.3333 16.3281C32.1875 15.8593 31.9427 15.3749 31.5937 14.8749C31.2708 14.3958 30.9166 13.9999 30.5416 13.6979C30.1614 13.3906 29.7656 13.177 29.3385 13.0624C28.9114 12.9479 28.4635 12.9426 28 13.052C27.5364 13.1406 27.052 13.3593 26.552 13.7031L24.4948 15.1145L28.7968 21.3958L30.875 19.9687C31.8073 19.3281 32.3333 18.5729 32.4479 17.6822Z" fill="url(#paint19_linear_63_12915)"/>
<path d="M34.5677 17.6458L39.3542 15.5469L38.7917 14.2552L35.4896 15.6979L34.75 14L37.073 12.974L36.5157 11.7031L34.1927 12.7135L33.573 11.3125L36.7657 9.92187L36.198 8.625L31.5209 10.6615L34.5677 17.6458Z" fill="url(#paint20_linear_63_12915)"/>
<path d="M44.5312 14.2916L45.7604 14.0208L44.8854 10.1562L41.9635 10.8177L42.2708 12.1979L43.6406 11.8906C43.6823 12.2239 43.6145 12.526 43.4479 12.7916C43.25 13.1094 42.9479 13.3177 42.5364 13.4114C42.2395 13.4791 41.9739 13.4479 41.7448 13.3385C41.526 13.2135 41.3333 13.0521 41.1718 12.8385C41.0208 12.6198 40.8854 12.375 40.7864 12.1094C40.6927 11.8437 40.6198 11.5885 40.5677 11.3646C40.5104 11.1458 40.4739 10.8906 40.4323 10.5989C40.401 10.2969 40.4062 10.0052 40.4479 9.72915C40.4843 9.4479 40.5781 9.19269 40.7187 8.97915C40.8645 8.76039 41.0937 8.61456 41.401 8.54685C41.7864 8.45831 42.0885 8.47915 42.3229 8.61977C42.5625 8.74477 42.7968 8.95831 43.0312 9.2656L44.4166 8.54685C44.1979 8.17185 43.9635 7.88539 43.7291 7.67185C43.4895 7.45831 43.2291 7.30727 42.9531 7.20831C42.401 7.02602 41.8437 6.99477 41.2864 7.11977C40.6927 7.25519 40.2135 7.47914 39.8541 7.79164C39.4948 8.09894 39.2343 8.45831 39.0625 8.88539C38.8958 9.29685 38.8073 9.76039 38.8073 10.2656C38.8073 10.7552 38.8645 11.2708 38.9895 11.7969C39.0937 12.276 39.2552 12.7291 39.4583 13.1458C39.6718 13.5625 39.9323 13.9062 40.25 14.1927C40.5625 14.4791 40.9375 14.6823 41.3645 14.7969C41.7812 14.9166 42.2708 14.9114 42.8073 14.7916C43.1666 14.7135 43.4687 14.5885 43.7187 14.4271C43.9739 14.2656 44.1927 14.026 44.401 13.7187L44.5312 14.2916Z" fill="url(#paint21_linear_63_12915)"/>
<path d="M50.4375 7.80209C50.5209 7.87501 50.5938 7.96876 50.6407 8.09376C50.698 8.21355 50.724 8.35938 50.7292 8.54167C50.7292 8.73959 50.698 8.89063 50.6302 9.01563C50.5573 9.13542 50.4584 9.21876 50.3386 9.28647C50.2136 9.35418 50.0782 9.39063 49.9167 9.42188C49.7657 9.4323 49.6042 9.44272 49.4532 9.45313L48.4792 9.47397L48.4323 7.61459L49.573 7.58855C49.9636 7.57293 50.2552 7.64584 50.4375 7.80209ZM51.0157 13.7917L52.8334 13.75L51.1042 10.4427C51.5209 10.2865 51.8334 10.0365 52.0573 9.70834C52.2813 9.36459 52.3855 8.97397 52.375 8.52084C52.3646 8.13542 52.2917 7.79167 52.1667 7.50001C52.0417 7.20834 51.8646 6.95834 51.6459 6.77084C51.4323 6.57293 51.1667 6.42709 50.8594 6.33334C50.5469 6.2448 50.2084 6.19793 49.8386 6.20834L46.7709 6.27605L46.9532 13.8854L48.5782 13.849L48.5105 10.8438L49.5521 10.8177L51.0157 13.7917Z" fill="url(#paint22_linear_63_12915)"/>
<path d="M57.1614 8.69267L57.3958 11.4687L55.9843 11.2291L57.1614 8.69267ZM57.6562 14.5468L59.2812 14.8229L58.4166 6.94267L56.5156 6.61975L53.0729 13.7708L54.6927 14.0416L55.3906 12.5416L57.5156 12.901L57.6562 14.5468Z" fill="url(#paint23_linear_63_12915)"/>
<path d="M65.5156 11.1458C65.5833 11.3854 65.6042 11.6563 65.5677 11.9635C65.5417 12.2656 65.4531 12.6042 65.3177 12.9844C65.2031 13.2865 65.0677 13.5677 64.9167 13.8281C64.7656 14.0729 64.5833 14.2813 64.3698 14.4375C64.1615 14.5937 63.9271 14.6927 63.651 14.724C63.3854 14.7604 63.0729 14.7083 62.724 14.5781L61.9375 14.2865L63.6094 9.79687L64.4167 10.099C65 10.3177 65.3698 10.6719 65.5156 11.1458ZM65.0365 15.8958C65.4427 15.6927 65.7865 15.401 66.0885 15.0156C66.3906 14.6302 66.6406 14.1458 66.8542 13.5729C67.0521 13.0365 67.1771 12.5208 67.2083 12.0469C67.25 11.5521 67.1875 11.099 67.0417 10.6875C66.8906 10.2708 66.6354 9.90625 66.2812 9.58333C65.9323 9.26042 65.4844 8.99479 64.9115 8.78125L62.5729 7.90625L59.9062 15.0365L62.2656 15.9115C63.3229 16.3125 64.25 16.3073 65.0365 15.8958Z" fill="url(#paint24_linear_63_12915)"/>
<path d="M71.3177 13.9948L70.5052 16.6667L69.2865 15.9167L71.3177 13.9948ZM69.6094 19.6146L71.0156 20.4688L73.1302 12.8282L71.4844 11.8334L65.6406 17.198L67.0417 18.0521L68.2448 16.9219L70.0938 18.0417L69.6094 19.6146Z" fill="url(#paint25_linear_63_12915)"/>
<path d="M76.3594 21.1458C76.3855 21.375 76.2865 21.6094 76.0677 21.849C75.8282 22.1146 75.5834 22.2448 75.3542 22.2396C75.1302 22.2292 74.8855 22.099 74.6302 21.8698L73.6563 20.9896L74.9532 19.5625L75.9063 20.4271C76.1719 20.6719 76.323 20.9167 76.3594 21.1458ZM78.2448 18.8646C78.2709 19.0677 78.1927 19.276 78 19.474C77.9167 19.5677 77.823 19.6354 77.7136 19.6719C77.625 19.7031 77.5209 19.7135 77.4167 19.7031C77.3177 19.6979 77.2188 19.6719 77.1094 19.6146C77.0105 19.5625 76.9167 19.5 76.8386 19.4219L75.8698 18.5469L76.9323 17.3854L77.8646 18.2292C78.0938 18.4375 78.224 18.651 78.2448 18.8646ZM75.4948 23.8021C76.099 23.875 76.6511 23.6406 77.1511 23.0833C77.448 22.7604 77.6407 22.4271 77.7292 22.0885C77.8021 21.776 77.75 21.3906 77.5573 20.9687C77.8959 21.0625 78.2188 21.0625 78.5261 20.9583C78.8438 20.8698 79.1094 20.6875 79.3438 20.4323C79.6094 20.1406 79.7657 19.8542 79.8334 19.5625C79.9011 19.276 79.8959 18.9896 79.8125 18.7135C79.7344 18.4375 79.599 18.1615 79.4063 17.901C79.2136 17.6406 78.9948 17.401 78.75 17.1771L76.6407 15.2656L71.5209 20.901L73.573 22.7656C74.2657 23.3906 74.9063 23.7396 75.4948 23.8021Z" fill="url(#paint26_linear_63_12915)"/>
<path d="M76.4427 25.6198L79.375 29.4687L80.5 28.6145L78.5573 26.0573L83.4896 22.302L82.5052 21.0104L76.4427 25.6198Z" fill="url(#paint27_linear_63_12915)"/>
<path d="M79.8385 30.2552L82.2395 34.8959L83.4895 34.25L81.8385 31.0469L83.4843 30.198L84.6562 32.4427L85.8958 31.8021L84.7291 29.5521L86.0937 28.849L87.6875 31.9375L88.9427 31.2917L86.5989 26.7552L79.8385 30.2552Z" fill="url(#paint28_linear_63_12915)"/>
<path fill-rule="evenodd" clip-rule="evenodd" d="M13.0313 34.1406C12.7396 34.1458 12.4844 34.3333 12.3802 34.5989C9.09377 42.7083 8.46876 51.651 10.6146 60.1302C10.7031 60.5312 11.099 60.7864 11.5 60.6823C11.9011 60.5833 12.1354 60.1771 12.0208 59.776C9.95314 51.5989 10.5469 42.9739 13.7188 35.1562C13.9323 34.6614 13.5573 34.1198 13.0313 34.1406Z" fill="url(#paint29_linear_63_12915)"/>
</g>
<defs>
<linearGradient id="paint0_linear_63_12915" x1="50.4818" y1="19.4166" x2="50.4818" y2="80.6979" gradientUnits="userSpaceOnUse">
<stop stop-color="#CB68A2"/>
<stop offset="1" stop-color="#E9A9D9"/>
</linearGradient>
<linearGradient id="paint1_linear_63_12915" x1="89.3909" y1="34.14" x2="89.3909" y2="60.7056" gradientUnits="userSpaceOnUse">
<stop stop-color="#CB68A2"/>
<stop offset="1" stop-color="#E9A9D9"/>
</linearGradient>
<linearGradient id="paint2_linear_63_12915" x1="50.4869" y1="0.041626" x2="50.4869" y2="100.073" gradientUnits="userSpaceOnUse">
<stop stop-color="#CB68A2"/>
<stop offset="1" stop-color="#E9A9D9"/>
</linearGradient>
<linearGradient id="paint3_linear_63_12915" x1="11.9811" y1="60.8385" x2="11.9811" y2="68.313" gradientUnits="userSpaceOnUse">
<stop stop-color="#CB68A2"/>
<stop offset="1" stop-color="#E9A9D9"/>
</linearGradient>
<linearGradient id="paint4_linear_63_12915" x1="15.4037" y1="68.1459" x2="15.4037" y2="73.5573" gradientUnits="userSpaceOnUse">
<stop stop-color="#CB68A2"/>
<stop offset="1" stop-color="#E9A9D9"/>
</linearGradient>
<linearGradient id="paint5_linear_63_12915" x1="19.6267" y1="72.8026" x2="19.6267" y2="80.2089" gradientUnits="userSpaceOnUse">
<stop stop-color="#CB68A2"/>
<stop offset="1" stop-color="#E9A9D9"/>
</linearGradient>
<linearGradient id="paint6_linear_63_12915" x1="25.5662" y1="77.6198" x2="25.5662" y2="86.0369" gradientUnits="userSpaceOnUse">
<stop stop-color="#CB68A2"/>
<stop offset="1" stop-color="#E9A9D9"/>
</linearGradient>
<linearGradient id="paint7_linear_63_12915" x1="33.3359" y1="82.0938" x2="33.3359" y2="91.1927" gradientUnits="userSpaceOnUse">
<stop stop-color="#CB68A2"/>
<stop offset="1" stop-color="#E9A9D9"/>
</linearGradient>
<linearGradient id="paint8_linear_63_12915" x1="40.9713" y1="85.3682" x2="40.9713" y2="93.6407" gradientUnits="userSpaceOnUse">
<stop stop-color="#CB68A2"/>
<stop offset="1" stop-color="#E9A9D9"/>
</linearGradient>
<linearGradient id="paint9_linear_63_12915" x1="49.7266" y1="86.5" x2="49.7266" y2="94.2396" gradientUnits="userSpaceOnUse">
<stop stop-color="#CB68A2"/>
<stop offset="1" stop-color="#E9A9D9"/>
</linearGradient>
<linearGradient id="paint10_linear_63_12915" x1="58.5938" y1="85.7656" x2="58.5938" y2="94.0052" gradientUnits="userSpaceOnUse">
<stop stop-color="#CB68A2"/>
<stop offset="1" stop-color="#E9A9D9"/>
</linearGradient>
<linearGradient id="paint11_linear_63_12915" x1="65.6781" y1="83.6086" x2="65.6781" y2="91.927" gradientUnits="userSpaceOnUse">
<stop stop-color="#CB68A2"/>
<stop offset="1" stop-color="#E9A9D9"/>
</linearGradient>
<linearGradient id="paint12_linear_63_12915" x1="74.2318" y1="79.7916" x2="74.2318" y2="88.427" gradientUnits="userSpaceOnUse">
<stop stop-color="#CB68A2"/>
<stop offset="1" stop-color="#E9A9D9"/>
</linearGradient>
<linearGradient id="paint13_linear_63_12915" x1="79.4008" y1="74.4312" x2="79.4008" y2="82.8541" gradientUnits="userSpaceOnUse">
<stop stop-color="#CB68A2"/>
<stop offset="1" stop-color="#E9A9D9"/>
</linearGradient>
<linearGradient id="paint14_linear_63_12915" x1="85.0364" y1="70.3125" x2="85.0364" y2="75.8906" gradientUnits="userSpaceOnUse">
<stop stop-color="#CB68A2"/>
<stop offset="1" stop-color="#E9A9D9"/>
</linearGradient>
<linearGradient id="paint15_linear_63_12915" x1="88.6927" y1="61.0938" x2="88.6927" y2="68.7656" gradientUnits="userSpaceOnUse">
<stop stop-color="#CB68A2"/>
<stop offset="1" stop-color="#E9A9D9"/>
</linearGradient>
<linearGradient id="paint16_linear_63_12915" x1="16.3085" y1="27.0408" x2="16.3085" y2="34.7292" gradientUnits="userSpaceOnUse">
<stop stop-color="#CB68A2"/>
<stop offset="1" stop-color="#E9A9D9"/>
</linearGradient>
<linearGradient id="paint17_linear_63_12915" x1="19.4766" y1="23.0573" x2="19.4766" y2="28.8333" gradientUnits="userSpaceOnUse">
<stop stop-color="#CB68A2"/>
<stop offset="1" stop-color="#E9A9D9"/>
</linearGradient>
<linearGradient id="paint18_linear_63_12915" x1="23.1169" y1="17.8539" x2="23.1169" y2="25.3207" gradientUnits="userSpaceOnUse">
<stop stop-color="#CB68A2"/>
<stop offset="1" stop-color="#E9A9D9"/>
</linearGradient>
<linearGradient id="paint19_linear_63_12915" x1="28.4877" y1="12.9731" x2="28.4877" y2="21.3958" gradientUnits="userSpaceOnUse">
<stop stop-color="#CB68A2"/>
<stop offset="1" stop-color="#E9A9D9"/>
</linearGradient>
<linearGradient id="paint20_linear_63_12915" x1="35.4375" y1="8.625" x2="35.4375" y2="17.6458" gradientUnits="userSpaceOnUse">
<stop stop-color="#CB68A2"/>
<stop offset="1" stop-color="#E9A9D9"/>
</linearGradient>
<linearGradient id="paint21_linear_63_12915" x1="42.2838" y1="7.04443" x2="42.2838" y2="14.8841" gradientUnits="userSpaceOnUse">
<stop stop-color="#CB68A2"/>
<stop offset="1" stop-color="#E9A9D9"/>
</linearGradient>
<linearGradient id="paint22_linear_63_12915" x1="49.8021" y1="6.20691" x2="49.8021" y2="13.8854" gradientUnits="userSpaceOnUse">
<stop stop-color="#CB68A2"/>
<stop offset="1" stop-color="#E9A9D9"/>
</linearGradient>
<linearGradient id="paint23_linear_63_12915" x1="56.177" y1="6.61975" x2="56.177" y2="14.8229" gradientUnits="userSpaceOnUse">
<stop stop-color="#CB68A2"/>
<stop offset="1" stop-color="#E9A9D9"/>
</linearGradient>
<linearGradient id="paint24_linear_63_12915" x1="63.5636" y1="7.90625" x2="63.5636" y2="16.2084" gradientUnits="userSpaceOnUse">
<stop stop-color="#CB68A2"/>
<stop offset="1" stop-color="#E9A9D9"/>
</linearGradient>
<linearGradient id="paint25_linear_63_12915" x1="69.3854" y1="11.8334" x2="69.3854" y2="20.4688" gradientUnits="userSpaceOnUse">
<stop stop-color="#CB68A2"/>
<stop offset="1" stop-color="#E9A9D9"/>
</linearGradient>
<linearGradient id="paint26_linear_63_12915" x1="75.7004" y1="15.2656" x2="75.7004" y2="23.815" gradientUnits="userSpaceOnUse">
<stop stop-color="#CB68A2"/>
<stop offset="1" stop-color="#E9A9D9"/>
</linearGradient>
<linearGradient id="paint27_linear_63_12915" x1="79.9662" y1="21.0104" x2="79.9662" y2="29.4687" gradientUnits="userSpaceOnUse">
<stop stop-color="#CB68A2"/>
<stop offset="1" stop-color="#E9A9D9"/>
</linearGradient>
<linearGradient id="paint28_linear_63_12915" x1="84.3906" y1="26.7552" x2="84.3906" y2="34.8959" gradientUnits="userSpaceOnUse">
<stop stop-color="#CB68A2"/>
<stop offset="1" stop-color="#E9A9D9"/>
</linearGradient>
<linearGradient id="paint29_linear_63_12915" x1="11.5708" y1="34.14" x2="11.5708" y2="60.7056" gradientUnits="userSpaceOnUse">
<stop stop-color="#CB68A2"/>
<stop offset="1" stop-color="#E9A9D9"/>
</linearGradient>
<clipPath id="clip0_63_12915">
<rect width="100" height="100" fill="white" transform="translate(0.5)"/>
</clipPath>
</defs>
</svg>
